<svg xmlns="http://www.w3.org/2000/svg" viewBox="0 0 99.95 107.19"><title>Corn</title><path d="M58.61,164.39a14.36,14.36,0,0,1,1.82-2A12,12,0,0,0,58.61,164.39Z" transform="translate(-35.76 -67.11)" fill="none"/><path d="M70.53,116.8c9.66-6,22.84-5,33.44-4.25,6,.44,12.29.88,14.39-.56C125.79,99.1,132.92,79,131.61,71.34c-10.77-1.57-38.33,4.85-55.92,23.48a118.86,118.86,0,0,0-13,15.86,2,2,0,0,1-.84,1.26,99.09,99.09,0,0,0-11,23.59A66.79,66.79,0,0,1,70.53,116.8Zm47.6-38.5.21,0a2,2,0,0,1,2.4,1.52,2,2,0,0,1-1.49,2.38,2.46,2.46,0,0,1-.53.06,2,2,0,0,1-2-1.47A2,2,0,0,1,118.13,78.3ZM114,90.2l.12-.09a2,2,0,0,1,2.33,3.26l-.12.08a2,2,0,0,1-2.79-.46A2,2,0,0,1,114,90.2ZM107.71,97a2,2,0,0,1-.52,2.78l-.16.11a2,2,0,0,1-1.15.36,2,2,0,0,1-1.15-3.63l.2-.14A2,2,0,0,1,107.71,97Zm-5.33-13,.25-.13a2,2,0,1,1,1.77,3.58l-.22.11a1.93,1.93,0,0,1-.9.22,2,2,0,0,1-.9-3.78Zm-4,19.48a2,2,0,0,1-.58,2.77,2.1,2.1,0,0,1-1.18.36,2,2,0,0,1-1.64-.84,2,2,0,0,1,.45-2.74l.19-.14A2,2,0,0,1,98.36,103.49ZM92.88,89.73l.23-.17a2,2,0,1,1,2.28,3.28L95.2,93a2,2,0,0,1-1.16.37,2,2,0,0,1-1.16-3.62Zm-10.45,9,.08-.08a2,2,0,1,1,3,2.65l-.13.14a2,2,0,0,1-2.82.11A2,2,0,0,1,82.43,98.73Z" transform="translate(-35.76 -67.11)" fill="#ffeb8a"/><path d="M80.79,124.49a2,2,0,0,1,2.14-1.85c27.77,2,32.31,28.43,34.75,42.63.12.69.24,1.35.35,2,4.52-7.65,11.84-23.93,9.87-37.4a20.64,20.64,0,0,0-8.06-14.1c-3.43,1.7-9.15,1.29-16.16.78-10-.72-22.49-1.61-31.05,3.67-17.9,11-26.48,28.85-28.39,40.74a1.82,1.82,0,0,1-.16.53s0,.33.3.92c1.73,3.06,8.15,7,9.95,7.36a19.12,19.12,0,0,0,2.85-3.44c.49-.68,1-1.33,1.43-1.93a12,12,0,0,1,1.82-2,4.3,4.3,0,0,1,2.26-1.11C76.07,159.69,84,151,93.18,140.86l1.22-1.34a2,2,0,0,1,1.49-.65l1.6-2c.92-1.14,1.8-2.23,2.67-3.29-4.24-3.79-9.89-6.42-17.52-7A2,2,0,0,1,80.79,124.49Zm5.26,10.37a2,2,0,0,1,.21,2.82C80.5,144.33,66.94,150.49,61,151.24h-.26a2,2,0,0,1-.24-4c4.69-.59,17.54-6.14,22.78-12.21A2,2,0,0,1,86.05,134.86Z" transform="translate(-35.76 -67.11)" fill="#f9ba8f"/><path d="M60.87,106.28A135.48,135.48,0,0,1,72.78,92.07c.79-.83,1.6-1.64,2.44-2.43-11.15-2.33-24.94,4.49-31.65,9.27C51.42,98.5,57.44,101.07,60.87,106.28Z" transform="translate(-35.76 -67.11)" fill="#dabe92"/><path d="M118.72,82.21a2.46,2.46,0,0,0,.53-.06,2,2,0,0,0,1.49-2.38,2,2,0,0,0-2.4-1.52l-.21,0a2,2,0,0,0-1.37,2.44A2,2,0,0,0,118.72,82.21Z" transform="translate(-35.76 -67.11)" fill="#5e4739"/><path d="M115.19,93.82a2,2,0,0,0,1.16-.37l.12-.08a2,2,0,0,0-2.33-3.26l-.12.09a2,2,0,0,0,1.17,3.62Z" transform="translate(-35.76 -67.11)" fill="#5e4739"/><path d="M122.51,112.78C129.93,99.41,138,77.26,135.12,69a2,2,0,0,0-1.44-1.3c-11.11-2.56-36.89,3.86-55,18.91a2.11,2.11,0,0,0-.68-.36c-17-5.08-40.06,10.13-42.06,14.72a2,2,0,0,0,2.26,2.75c5.89-1.29,16.13-2.1,20.18,6.27-6.74,10.38-11.83,22.64-15.62,40.32a2.22,2.22,0,0,0,0,.77,53.19,53.19,0,0,0-2.41,9,5.15,5.15,0,0,0,.8,4.68c2.59,4.08,10.37,9,13.3,9,2.28.05,4-2.38,6-5.13a17.73,17.73,0,0,1,2.84-3.41c14.79-1.8,23.17-11,32.87-21.7l1.21-1.34a2,2,0,0,0-2.95-2.69l-1.22,1.34C84,151,76.07,159.69,62.69,161.29a4.3,4.3,0,0,0-2.26,1.11,14.36,14.36,0,0,0-1.82,2c-.47.6-.94,1.25-1.43,1.93a19.12,19.12,0,0,1-2.85,3.44c-1.8-.39-8.22-4.3-9.95-7.36-.33-.59-.32-.88-.3-.92a1.82,1.82,0,0,0,.16-.53c1.91-11.89,10.49-29.7,28.39-40.74,8.56-5.28,21-4.39,31.05-3.67,7,.51,12.73.92,16.16-.78a20.64,20.64,0,0,1,8.06,14.1c2,13.47-5.35,29.75-9.87,37.4-.11-.64-.23-1.3-.35-2-2.44-14.2-7-40.63-34.75-42.63a2,2,0,0,0-.29,4c7.63.55,13.28,3.18,17.52,7,9.47,8.45,11.92,22.65,13.58,32.35.48,2.76.89,5.15,1.39,6.9a2,2,0,0,0,1.51,1.41,2,2,0,0,0,.41,0,2,2,0,0,0,1.54-.72c3.56-4.26,15.92-26.17,13.27-44.3A24.46,24.46,0,0,0,122.51,112.78ZM75.22,89.64c-.84.79-1.65,1.6-2.44,2.43a135.48,135.48,0,0,0-11.91,14.21c-3.43-5.21-9.45-7.78-17.3-7.37C50.28,94.13,64.07,87.31,75.22,89.64Zm-13.4,22.3a2,2,0,0,0,.84-1.26,118.86,118.86,0,0,1,13-15.86c17.59-18.63,45.15-25,55.92-23.48,1.31,7.7-5.82,27.76-13.25,40.65-2.1,1.44-8.34,1-14.39.56-10.6-.76-23.78-1.7-33.44,4.25a66.79,66.79,0,0,0-19.72,18.73A99.09,99.09,0,0,1,61.82,111.94Z" transform="translate(-35.76 -67.11)" fill="#5e4739"/><path d="M60.45,147.27a2,2,0,0,0,.24,4H61c6-.75,19.55-6.91,25.31-13.56a2,2,0,0,0-3-2.62C78,141.13,65.14,146.68,60.45,147.27Z" transform="translate(-35.76 -67.11)" fill="#5e4739"/><path d="M83.9,102.08a2,2,0,0,0,1.47-.64l.13-.14a2,2,0,1,0-3-2.65l-.08.08a2,2,0,0,0,.12,2.82A2,2,0,0,0,83.9,102.08Z" transform="translate(-35.76 -67.11)" fill="#5e4739"/><path d="M94,93.35A2,2,0,0,0,95.2,93l.19-.14a2,2,0,1,0-2.28-3.28l-.23.17A2,2,0,0,0,94,93.35Z" transform="translate(-35.76 -67.11)" fill="#5e4739"/><path d="M103.28,87.79a1.93,1.93,0,0,0,.9-.22l.22-.11a2,2,0,1,0-1.77-3.58l-.25.13a2,2,0,0,0,.9,3.78Z" transform="translate(-35.76 -67.11)" fill="#5e4739"/><path d="M104.73,96.61a2,2,0,0,0,1.15,3.63,2,2,0,0,0,1.15-.36l.16-.11a2,2,0,1,0-2.26-3.3Z" transform="translate(-35.76 -67.11)" fill="#5e4739"/><path d="M95.41,103a2,2,0,0,0-.45,2.74,2,2,0,0,0,1.64.84,2.1,2.1,0,0,0,1.18-.36,2,2,0,0,0-2.18-3.36Z" transform="translate(-35.76 -67.11)" fill="#5e4739"/></svg>