<svg xmlns="http://www.w3.org/2000/svg" viewBox="0 0 106.29 106.24"><title>Farfalle</title><path d="M90.45,150.59l.51.34a31.74,31.74,0,0,0,9.34,4,24.84,24.84,0,0,1-.72-3.21L95.24,123A20.47,20.47,0,0,0,91,115.92a28.94,28.94,0,0,0-5.06-4.53,22.7,22.7,0,0,0-8.1-3L82.14,137A20.31,20.31,0,0,0,90.45,150.59Z" transform="translate(-57.06 -68.66)" fill="#ffeb8a"/><path d="M112.36,130.06a29.18,29.18,0,0,0-5-4.53,22.61,22.61,0,0,0-8-3,25.57,25.57,0,0,1,.83,3.61l4.35,28.76a20,20,0,0,0,7.37,9.83l.5.34a32.42,32.42,0,0,0,9.5,4.09l-4.28-28.28A20.43,20.43,0,0,0,112.36,130.06Z" transform="translate(-57.06 -68.66)" fill="#ffeb8a"/><path d="M79.41,142.39a24.73,24.73,0,0,1-1.22-4.77l-3.17-21c-2,5.42-5.88,11.64-13.11,15.12C63.93,134.82,69.14,140.82,79.41,142.39Z" transform="translate(-57.06 -68.66)" fill="#dabe92"/><path d="M120.65,136.56a23.38,23.38,0,0,1,.87,3.72l3.86,25.5a30.22,30.22,0,0,1,14.16-18.29C137.5,144.36,132,137.81,120.65,136.56Z" transform="translate(-57.06 -68.66)" fill="#dabe92"/><path d="M122.77,106.32l-15.12-6.26a21.93,21.93,0,0,1,4.73,13.61,17.59,17.59,0,0,0,12.27-6.7A16.07,16.07,0,0,1,122.77,106.32Z" transform="translate(-57.06 -68.66)" fill="#dabe92"/><path d="M141,79.49l12.34,5.1a19.18,19.18,0,0,1-3.47-11.88,17.48,17.48,0,0,0-11.48,5.94A18.87,18.87,0,0,1,141,79.49Z" transform="translate(-57.06 -68.66)" fill="#dabe92"/><path d="M153.9,94.05a15,15,0,0,0,4.17-3.17l-18.6-7.7a14.08,14.08,0,0,0-11.05.08l-.38.17A21.7,21.7,0,0,0,122.9,87c.46.15.92.31,1.38.49l19.34,8a14.26,14.26,0,0,0,5.71,0A20.47,20.47,0,0,0,153.9,94.05Z" transform="translate(-57.06 -68.66)" fill="#ffeb8a"/><path d="M137.17,102a14.46,14.46,0,0,0,4-3,17.39,17.39,0,0,1-1.71-.61l-19.38-8a13.91,13.91,0,0,0-8.43.88l-.44.2A22.06,22.06,0,0,0,106,95.05l18.29,7.58a14.32,14.32,0,0,0,8.31.78A20.19,20.19,0,0,0,137.17,102Z" transform="translate(-57.06 -68.66)" fill="#ffeb8a"/><path d="M119,132.4h-.08a24.94,24.94,0,0,0-3.59-5.05,32.68,32.68,0,0,0-5.79-5.16,28.38,28.38,0,0,0-12-4,24.54,24.54,0,0,0-3.56-5,32.86,32.86,0,0,0-5.8-5.16c-5.35-3.54-12.26-4-12.56-4a2,2,0,0,0-1.59.65,1.71,1.71,0,0,0-.2.27,2,2,0,0,0-.45,1.17c0,.18-1,17.65-14.94,22.8a2,2,0,0,0-1.14,2.69c.26.57,6.34,13.63,24.23,15a23.72,23.72,0,0,0,6.69,7.2l.62.42a37,37,0,0,0,13.33,5.19,23.89,23.89,0,0,0,7.46,8.54l.6.41A36.81,36.81,0,0,0,124,173.69l.26,0A2,2,0,0,0,126,174.9h.09a2,2,0,0,0,2-1.9c0-.67,1-16.31,15.09-22.86a2,2,0,0,0,1-2.64C143.87,146.93,137.59,133.41,119,132.4Zm6.41,33.38-3.86-25.5a23.38,23.38,0,0,0-.87-3.72c11.3,1.25,16.85,7.8,18.89,10.93A30.22,30.22,0,0,0,125.38,165.78Zm-13-.71-.5-.34a20,20,0,0,1-7.37-9.83l-4.35-28.76a25.57,25.57,0,0,0-.83-3.61,22.61,22.61,0,0,1,8,3,29.18,29.18,0,0,1,5,4.53,20.43,20.43,0,0,1,5.21,10.82l4.28,28.28A32.42,32.42,0,0,1,112.35,165.07ZM75,116.65l3.17,21a24.73,24.73,0,0,0,1.22,4.77c-10.27-1.57-15.48-7.57-17.5-10.62C69.14,128.29,73,122.07,75,116.65ZM82.14,137l-4.33-28.65a22.7,22.7,0,0,1,8.1,3A28.94,28.94,0,0,1,91,115.92,20.47,20.47,0,0,1,95.24,123l4.34,28.73a24.84,24.84,0,0,0,.72,3.21,31.74,31.74,0,0,1-9.34-4l-.51-.34A20.31,20.31,0,0,1,82.14,137Z" transform="translate(-57.06 -68.66)" fill="#5e4739"/><path d="M163.27,89.5a1.51,1.51,0,0,0-.13-.29s0-.07,0-.11v0a2.06,2.06,0,0,0-.7-.83c-.1-.06-10.23-7-8.29-17.17a2,2,0,0,0-1.72-2.36c-.46-.06-11-1.18-18.69,9.38a17.79,17.79,0,0,0-6.9,1.5l-.49.23a27.27,27.27,0,0,0-8.2,6.26,17.72,17.72,0,0,0-8,1.47l-.49.23A27.08,27.08,0,0,0,101,94.46a2,2,0,0,0-1,3.65c.38.26,9.44,6.5,8.26,17.34a2,2,0,0,0,1.75,2.2,11.6,11.6,0,0,0,1.28.06c3.18,0,11.54-.95,17.83-10,.19,0,.39,0,.59,0a18.4,18.4,0,0,0,3.69-.37,24.22,24.22,0,0,0,5.48-1.71,20.92,20.92,0,0,0,7-5.9l.58,0a18.57,18.57,0,0,0,3.7-.37,25,25,0,0,0,5.47-1.7A21.53,21.53,0,0,0,163,91.2,2,2,0,0,0,163.27,89.5Zm-50.89,24.17a21.93,21.93,0,0,0-4.73-13.61l15.12,6.26a16.07,16.07,0,0,0,1.88.65A17.59,17.59,0,0,1,112.38,113.67Zm11.92-11L106,95.05a22.06,22.06,0,0,1,5.24-3.63l.44-.2a13.91,13.91,0,0,1,8.43-.88l19.38,8a17.39,17.39,0,0,0,1.71.61,14.46,14.46,0,0,1-4,3,20.19,20.19,0,0,1-4.56,1.4A14.32,14.32,0,0,1,124.3,102.63Zm19.32-7.18-19.34-8c-.46-.18-.92-.34-1.38-.49A21.7,21.7,0,0,1,128,83.43l.38-.17a14.08,14.08,0,0,1,11.05-.08l18.6,7.7a15,15,0,0,1-4.17,3.17,20.47,20.47,0,0,1-4.57,1.4A14.26,14.26,0,0,1,143.62,95.45Zm6.25-22.74a19.18,19.18,0,0,0,3.47,11.88L141,79.49a18.87,18.87,0,0,0-2.61-.84A17.48,17.48,0,0,1,149.87,72.71Z" transform="translate(-57.06 -68.66)" fill="#5e4739"/></svg>