<svg xmlns="http://www.w3.org/2000/svg" viewBox="0 0 97.93 100"><title>Mashed potato</title><path d="M44.76,118.55a15.75,15.75,0,0,0,1,3.65c13.47,6.58,32.77,3.57,45.11-6.14,6.67-5.08,8.86-11.39,15.37-16.74,6.31-5.44,14.86-11.56,18-17.69,3.81-6.72,3.84-17.42.95-26.2a32.64,32.64,0,0,0-18.93-10.75c-12.57-2.06-16.9,1.07-24.75,6.76-2.91,2.1-6.2,4.48-10.47,7a1.77,1.77,0,0,1-.31.15C58.9,63.18,52,72.38,51.59,83.87c-.1,1.88,0,4.48.13,7,.25,5.52.34,9.08-.48,11A28.55,28.55,0,0,1,49,106.8C47.09,110.34,44.52,115.19,44.76,118.55ZM112,63.41a3,3,0,1,1-3,3A3,3,0,0,1,112,63.41ZM81,104.73a4,4,0,1,1-4,4A4,4,0,0,1,81,104.73ZM74.45,78.51a3,3,0,1,1-3,3A3,3,0,0,1,74.45,78.51Z" transform="translate(-40.75 -40.05)" fill="#e3b163"/><path d="M124.15,81.63c-3.1,6.13-11.65,12.25-18,17.69-6.51,5.35-8.7,11.66-15.37,16.74-12.34,9.71-31.64,12.72-45.11,6.14,1.87,4.79,5.77,7.82,9,9.61,9.44,5.19,23.38,5.7,33.14,1.21,10.19-4.21,12.9-7.51,17.81-13.49,1.58-1.93,3.38-4.12,5.7-6.67l.09-.1c2-1.87,4.18-3.86,6.55-6,5.09-4.51,10.34-9.18,13.37-13.29,4.23-6.06,4.37-17.29.31-27.28a38.91,38.91,0,0,0-6.61-10.79C128,64.21,128,74.91,124.15,81.63Z" transform="translate(-40.75 -40.05)" fill="#d0973e"/><path d="M106.89,40.74h0C92.61,38.39,87.23,42.3,79.07,48.2c-2.8,2-6,4.32-10,6.75C56,60.07,48,70.82,47.59,83.7c-.11,2,0,4.74.14,7.35.14,3.26.37,8.2-.18,9.3a2,2,0,0,0-.15.45,26.91,26.91,0,0,1-2,4.12c-2.24,4.22-5,9.48-4.66,14,0,0,0,.07,0,.1.93,6.85,5.09,12.48,12,16.29a42.39,42.39,0,0,0,20,4.72,40.64,40.64,0,0,0,16.68-3.35c11-4.57,14.15-8.35,19.3-14.62,1.54-1.88,3.29-4,5.53-6.48,1.87-1.8,4.06-3.75,6.38-5.81,5.24-4.65,10.65-9.46,14-14,5.07-7.26,5.38-19.76.76-31.11C130.22,51.94,119.82,43.2,106.89,40.74ZM51.24,101.9c.82-2,.73-5.51.48-11-.11-2.52-.23-5.12-.13-7,.36-11.49,7.31-20.69,19-25.25a1.77,1.77,0,0,0,.31-.15c4.27-2.55,7.56-4.93,10.47-7,7.85-5.69,12.18-8.82,24.75-6.76A32.64,32.64,0,0,1,125.1,55.43a38.91,38.91,0,0,1,6.61,10.79c4.06,10,3.92,21.22-.31,27.28-3,4.11-8.28,8.78-13.37,13.29-2.37,2.11-4.6,4.1-6.55,6l-.09.1c-2.32,2.55-4.12,4.74-5.7,6.67-4.91,6-7.62,9.28-17.81,13.49-9.76,4.49-23.7,4-33.14-1.21-3.26-1.79-7.16-4.82-9-9.61a15.75,15.75,0,0,1-1-3.65c-.24-3.36,2.33-8.21,4.21-11.75A28.55,28.55,0,0,0,51.24,101.9Z" transform="translate(-40.75 -40.05)" fill="#5e4739"/><path d="M112,69.35a3,3,0,1,0-3-3A3,3,0,0,0,112,69.35Z" transform="translate(-40.75 -40.05)" fill="#b0701d"/><path d="M74.45,84.59a3,3,0,1,0-3-3A3,3,0,0,0,74.45,84.59Z" transform="translate(-40.75 -40.05)" fill="#b0701d"/><path d="M81,112.65a4,4,0,1,0-4-4A4,4,0,0,0,81,112.65Z" transform="translate(-40.75 -40.05)" fill="#b0701d"/></svg>