<svg xmlns="http://www.w3.org/2000/svg" viewBox="0 0 108.94 94.28"><title>Pasta</title><polygon points="74.53 70.07 74.53 68.26 74.52 68.26 74.52 70.07 74.53 70.07" fill="none"/><polygon points="37.79 27.33 37.37 25.58 37.37 25.58 37.37 25.58 37.79 27.34 37.79 27.33" fill="none"/><polygon points="38.73 31.22 39.16 32.98 39.16 32.98 38.73 31.22 38.73 31.22" fill="none"/><polygon points="74.52 74.07 74.52 75.88 74.53 75.88 74.53 74.07 74.52 74.07" fill="none"/><path d="M79.38,66.76a1.55,1.55,0,0,1,.05-.23.83.83,0,0,1,0-.15,1.92,1.92,0,0,1,.12-.25l0-.09a1.05,1.05,0,0,1,.2-.27s0,0,0,0l.24-.21s0,0,.05,0l.06,0c.05,0,.12-.06.18-.1l.11-.06.22-.08.16-.05h0l-.43-1.76L72,65.42a2,2,0,0,1-.48.06,2,2,0,0,1-.46-4l8.47-2.05-.43-1.76-.13,0-.25,0h-.1a1.51,1.51,0,0,1-.3,0h0l-.11,0-.26-.07-.14-.07-.21-.1-.13-.09a1.3,1.3,0,0,1-.18-.15l-.11-.12A1,1,0,0,1,77,57c-6.47-8.68-15.5-9.29-28.5-6.59l3.29,2.36a2,2,0,0,1,.6,2.56l-3.16,6,5.93,4.95a2,2,0,0,1,.57,2.28l-3,7.38,5.48,3.65a2,2,0,0,1,.66,2.58L57.1,85.59c14-4.09,21.11-10.12,22.27-18.79A.06.06,0,0,1,79.38,66.76Z" transform="translate(-41.72 -32.14)" fill="#ffeb8a"/><path d="M88.61,57.27a2,2,0,1,1,.94,3.89l-9.1,2.21.43,1.76a2,2,0,0,1,2.11.79c5,7.18,14.08,9.29,28.4,6.52l-3.21-2.27a2,2,0,0,1-.6-2.61l3.2-5.75-6-5.2a2,2,0,0,1-.54-2.29l3-7.11-5.55-3.85a2,2,0,0,1-.63-2.56l1.85-3.6c-12.8,3.55-20.54,8.23-22.32,18.91a2,2,0,0,1-1.5,1.61h0l.42,1.76Z" transform="translate(-41.72 -32.14)" fill="#ffeb8a"/><path d="M100.5,77.65a70.28,70.28,0,0,0,16.21-2.28,2,2,0,0,0,.69-3.57L112,67.94l3.11-5.61a2,2,0,0,0-.44-2.48l-6.14-5.32,3.08-7.26a2,2,0,0,0-.71-2.42l-5.44-3.78,3.09-6a2,2,0,0,0-2.25-2.86c-12.35,3-24.61,7-28.66,19.36-9.25-9.14-22-7.09-34.34-4.09A2,2,0,0,0,41.75,49a2,2,0,0,0,.8,2L48.05,55l-3.11,5.85a2,2,0,0,0,.49,2.48l6.06,5-3,7.53a2,2,0,0,0,.74,2.41l5.34,3.56-3.08,5.92a2,2,0,0,0,1.78,2.92,2,2,0,0,0,.47-.06c10.64-2.57,24.64-7.33,28.68-19.27C87.31,76.1,93.85,77.65,100.5,77.65ZM57.1,85.59l1.81-3.49a2,2,0,0,0-.66-2.58l-5.48-3.65,3-7.38a2,2,0,0,0-.57-2.28l-5.93-4.95,3.16-6a2,2,0,0,0-.6-2.56l-3.29-2.36c13-2.7,22-2.09,28.5,6.59a1,1,0,0,0,.14.15l.11.12a1.3,1.3,0,0,0,.18.15l.13.09.21.1.14.07.26.07.11,0h0a1.51,1.51,0,0,0,.3,0h.1l.25,0,.13,0h0a2,2,0,0,0,1.5-1.61c1.78-10.68,9.52-15.36,22.32-18.91l-1.85,3.6a2,2,0,0,0,.63,2.56l5.55,3.85-3,7.11a2,2,0,0,0,.54,2.29l6,5.2-3.2,5.75a2,2,0,0,0,.6,2.61l3.21,2.27C97.07,75.21,88,73.1,83,65.92a2,2,0,0,0-2.11-.79h0l-.16.05-.22.08-.11.06c-.06,0-.13.06-.18.1l-.06,0s0,0-.05,0l-.24.21s0,0,0,0a1.05,1.05,0,0,0-.2.27l0,.09a1.92,1.92,0,0,0-.12.25.83.83,0,0,0,0,.15,1.55,1.55,0,0,0-.05.23.06.06,0,0,0,0,0C78.21,75.47,71.1,81.5,57.1,85.59Z" transform="translate(-41.72 -32.14)" fill="#5e4739"/><path d="M89.55,61.16a2,2,0,1,0-.94-3.89l-9.1,2.21h0L71,61.53a2,2,0,0,0,.46,4,2,2,0,0,0,.48-.06l8.47-2.05h0Z" transform="translate(-41.72 -32.14)" fill="#5e4739"/><path d="M107.52,106.21a2,2,0,0,1,0-4h8.72v-1.8l-.2,0-.19,0-.1,0c-.09,0-.19,0-.28-.09h0l-.07,0a1.73,1.73,0,0,1-.27-.15L115,100l-.21-.18-.08-.09a1.84,1.84,0,0,1-.17-.22s0-.07,0-.1a1.43,1.43,0,0,1-.12-.21c-4.25-10-12.87-12.68-26.14-13.12l2.65,3.07a2,2,0,0,1,0,2.64l-4.49,5L91,103a2,2,0,0,1,0,2.35l-4.62,6.48,4.46,4.83a2,2,0,0,1,0,2.67l-2.59,3c14.58-.68,22.91-4.87,26.07-13,0,0,0,0,0-.06l.07-.12a1.19,1.19,0,0,1,.12-.22l.07-.09a1.81,1.81,0,0,1,.18-.21l.09-.08.21-.16.12-.07.23-.11,0,0,.11,0,.23-.07.19,0h.19v-1.82Z" transform="translate(-41.72 -32.14)" fill="#dabe92"/><path d="M141.49,103l4.59-6.2-4.48-5a2,2,0,0,1,0-2.64l2.65-3.07c-13.27.44-21.9,3.16-26.15,13.12a2,2,0,0,1-1.84,1.22v1.8h9.37a2,2,0,0,1,0,4h-9.37V108a2,2,0,0,1,1.87,1.27c3.16,8.15,11.49,12.34,26.06,13l-2.59-3a2,2,0,0,1,0-2.67l4.46-4.83-4.62-6.48A2,2,0,0,1,141.49,103Z" transform="translate(-41.72 -32.14)" fill="#dabe92"/><path d="M150.28,110.85l-4.71-6.62,4.69-6.34a2,2,0,0,0-.11-2.52l-4.4-4.94,4.42-5.12a2,2,0,0,0-1.52-3.3c-12.71,0-25.57,1-32.41,12.06C109.4,83,96.54,82,83.83,82A2,2,0,0,0,82,83.18a2,2,0,0,0,.3,2.14l4.42,5.11-4.4,4.94a2,2,0,0,0-.11,2.52l4.7,6.34-4.72,6.62a2,2,0,0,0,.16,2.52l4.35,4.7-4.39,5a2,2,0,0,0,1.51,3.31c10.94,0,25.67-1.33,32.41-12,6.75,10.64,21.47,12,32.41,12a2,2,0,0,0,1.51-3.31l-4.38-5,4.34-4.7A2,2,0,0,0,150.28,110.85Zm-8.66,5.83a2,2,0,0,0,0,2.67l2.59,3c-14.57-.68-22.9-4.87-26.06-13a2,2,0,0,0-1.87-1.27h-.19l-.19,0-.23.07-.11,0,0,0-.23.11-.12.07-.21.16-.09.08a1.81,1.81,0,0,0-.18.21l-.07.09a1.19,1.19,0,0,0-.12.22l-.07.12s0,0,0,.06c-3.16,8.15-11.49,12.34-26.07,13l2.59-3a2,2,0,0,0,0-2.67l-4.46-4.83L91,105.37A2,2,0,0,0,91,103l-4.6-6.2,4.49-5a2,2,0,0,0,0-2.64l-2.65-3.07c13.27.44,21.89,3.16,26.14,13.12a1.43,1.43,0,0,0,.12.21s0,.07,0,.1a1.84,1.84,0,0,0,.17.22l.08.09.21.18.09.07a1.73,1.73,0,0,0,.27.15l.07,0h0c.09,0,.19.06.28.09l.1,0,.19,0,.2,0h0a2,2,0,0,0,1.84-1.22c4.25-10,12.88-12.68,26.15-13.12l-2.65,3.07a2,2,0,0,0,0,2.64l4.48,5-4.59,6.2a2,2,0,0,0,0,2.35l4.62,6.48Z" transform="translate(-41.72 -32.14)" fill="#5e4739"/><path d="M107.52,102.21a2,2,0,0,0,0,4h18.09a2,2,0,0,0,0-4H107.52Z" transform="translate(-41.72 -32.14)" fill="#5e4739"/></svg>