<svg xmlns="http://www.w3.org/2000/svg" viewBox="0 0 103.61 104.83"><title>Peas</title><path d="M99.21,54c-3.89,2.46-5.72,6.87-4,9.63a5,5,0,0,0,3.55,2.15q1.32-2,2.8-4.11a43.21,43.21,0,0,0,4.11-8.58c.11-.26.22-.53.32-.79A10.25,10.25,0,0,0,99.21,54Z" transform="translate(-25.05 -32.43)" fill="#c5dc76"/><path d="M96.57,69.36a8.67,8.67,0,0,1-4.72-3.58c-2.95-4.67-.6-11.47,5.23-15.14a13.66,13.66,0,0,1,10.5-2.09c2-4.45,4.56-8.95,8.78-12.07A16.29,16.29,0,0,0,105.52,41C97.9,48.74,92.07,54,80.78,56.58,70.13,59,66.44,63,62.2,70.85c-2.57,4.79-8.07,7-13.38,9.11-2,.82-4.17,1.67-6.06,2.65-5.23,2.7-11,12.55-13.08,17.9a48.45,48.45,0,0,1,11,2.48c7.6,3,18.62.61,24.05-5.26A12.74,12.74,0,0,1,67.5,95.5a2,2,0,0,1-1.1-2.15,2,2,0,0,1,2.32-1.61,22.86,22.86,0,0,0,10.58-.88c4.07-2,8.42-5.42,13-13.15A76.61,76.61,0,0,1,96.57,69.36ZM63.88,94.15a14.6,14.6,0,0,1-6.68,6,14.85,14.85,0,0,1-6.33,1.46c-4.07,0-7.67-1.83-9.23-5.14-2.34-5,.81-11.41,7-14.35,6.45-3,13.14-1.46,15.56,3.68A9,9,0,0,1,63.88,94.15Zm24.74-20a15.3,15.3,0,0,1-5.11,7.91,15,15,0,0,1-8.73,3.69l-.71,0a9.31,9.31,0,0,1-7.26-3.13c-3.72-4.37-2.3-11.73,3.19-16.41a15.18,15.18,0,0,1,8.61-3.8,9.42,9.42,0,0,1,8.09,3.22h0A9.45,9.45,0,0,1,88.62,74.17Z" transform="translate(-25.05 -32.43)" fill="#85986f"/><path d="M122,52.31c-.66-1.87-1.35-3.8-1.93-5.79a15.92,15.92,0,0,1-.64-7.31c-5.2,3.44-7.62,9.49-10,15.38A45.51,45.51,0,0,1,104.84,64c-6.25,8.82-10,16.27-12,24.17-1.46,5.62-4.51,10.34-7.74,15.34A102.21,102.21,0,0,0,78.91,114c-2.89,6-3.59,13-3.72,17.25a44.23,44.23,0,0,1,8.38-2.79c4.17-1.11,8.48-2.25,11.22-4.38,4.61-3.57,4.94-6.24,5.29-9.07.33-2.67.71-5.69,4.4-8.68,7.64-6.2,11.49-12.57,10.56-17.48-1.14-6,2.72-12.29,7.89-19.89C126.19,64.19,124.23,58.69,122,52.31ZM84.84,124h-.5a2,2,0,0,1,.08-4h.08a7.67,7.67,0,0,0,8.19-7.7,2,2,0,0,1,2.09-1.9,2,2,0,0,1,1.91,2.09A11.59,11.59,0,0,1,84.84,124ZM102,101.92a1.84,1.84,0,0,1-.47.06,2,2,0,0,1-.47-4,8.05,8.05,0,0,0,6.06-10,2,2,0,1,1,3.9-.89A12,12,0,0,1,102,101.92ZM121.1,65.83a12.51,12.51,0,0,1-5.93,7.44,2,2,0,1,1-1.93-3.51,8.52,8.52,0,0,0,4-5,8,8,0,0,0-1.06-6.31,2,2,0,1,1,3.45-2A12,12,0,0,1,121.1,65.83Z" transform="translate(-25.05 -32.43)" fill="#c5dc76"/><path d="M123.86,45.4c-2-6.85,1.28-8.54,1.49-8.63h0l.18-.09.06,0,.19-.13.12-.11a1.14,1.14,0,0,0,.15-.16.58.58,0,0,0,.1-.12,1.27,1.27,0,0,0,.13-.19l.07-.12a1.84,1.84,0,0,0,.09-.25,1,1,0,0,0,0-.1,1.65,1.65,0,0,0,.06-.32v-.05a2.41,2.41,0,0,0,0-.38s0,0,0-.05,0-.21-.07-.32h0a.61.61,0,0,1,0-.12,2.72,2.72,0,0,0-.11-.25v0l0,0a2.38,2.38,0,0,0-.31-.4l-.07-.06a1.69,1.69,0,0,0-.41-.29l-.1,0a2.35,2.35,0,0,0-.47-.15h0a2.77,2.77,0,0,0-.5,0h-.07l-.75-.1c-3.42-.45-13.82-1.83-20.91,5.36-7.34,7.44-12.53,12.13-22.78,14.48C67.8,55.44,63.41,60.13,58.67,69c-1.88,3.5-6.47,5.34-11.33,7.29C45.2,77.1,43,78,40.92,79.05,33.36,83,26.12,97,25.09,101.83a2,2,0,0,0,1.81,2.41c.07,0,7.6.6,12.31,2.46A23.91,23.91,0,0,0,48,108.29c7.33,0,15-2.87,19.63-7.84,1.78-1.92,4.14-2.67,7.12-3.62,4-1.26,8.57-2.73,13.41-7.32-1.49,4.07-3.92,7.86-6.48,11.84a102.1,102.1,0,0,0-6.41,10.94c-4.93,10.16-4.12,22.58-4.09,23.11a2,2,0,0,0,1.42,1.77,2,2,0,0,0,2.16-.7c1.47-1.9,5.7-3,9.8-4.11,4.55-1.21,9.26-2.46,12.65-5.09,5.91-4.58,6.4-8.55,6.8-11.74.29-2.37.51-4.09,3-6.06,9-7.26,13.2-14.83,12-21.33-.85-4.5,2.63-10.08,7.27-16.91,4.4-6.47,1.9-13.48-.52-20.27C125.07,49.15,124.4,47.27,123.86,45.4ZM115,88.88c.93,4.91-2.92,11.28-10.56,17.48-3.69,3-4.07,6-4.4,8.68-.35,2.83-.68,5.5-5.29,9.07-2.74,2.13-7.05,3.27-11.22,4.38a44.23,44.23,0,0,0-8.38,2.79C75.32,127,76,120,78.91,114a102.21,102.21,0,0,1,6.17-10.52c3.23-5,6.28-9.72,7.74-15.34,2.06-7.9,5.77-15.35,12-24.17a45.51,45.51,0,0,0,4.57-9.41c2.35-5.89,4.77-11.94,10-15.38a15.92,15.92,0,0,0,.64,7.31c.58,2,1.27,3.92,1.93,5.79,2.28,6.38,4.24,11.88,1,16.68C117.76,76.59,113.9,82.88,115,88.88Zm-35.74,2a22.86,22.86,0,0,1-10.58.88,2,2,0,0,0-2.32,1.61,2,2,0,0,0,1.1,2.15,12.74,12.74,0,0,0-2.77,2.23C59.3,103.6,48.28,106,40.68,103a48.45,48.45,0,0,0-11-2.48c2.06-5.35,7.85-15.2,13.08-17.9,1.89-1,4-1.83,6.06-2.65,5.31-2.12,10.81-4.32,13.38-9.11C66.44,63,70.13,59,80.78,56.58,92.07,54,97.9,48.74,105.52,41a16.29,16.29,0,0,1,10.84-4.53c-4.22,3.12-6.8,7.62-8.78,12.07a13.66,13.66,0,0,0-10.5,2.09c-5.83,3.67-8.18,10.47-5.23,15.14a8.67,8.67,0,0,0,4.72,3.58,76.61,76.61,0,0,0-4.32,8.35C87.72,85.44,83.37,88.89,79.3,90.86ZM106,52.32c-.1.26-.21.53-.32.79a43.21,43.21,0,0,1-4.11,8.58q-1.48,2.1-2.8,4.11a5,5,0,0,1-3.55-2.15c-1.74-2.76.09-7.17,4-9.63A10.25,10.25,0,0,1,106,52.32Z" transform="translate(-25.05 -32.43)" fill="#5e4739"/><path d="M108.61,85.58A2,2,0,0,0,107.1,88,8.05,8.05,0,0,1,101,98a2,2,0,0,0,.47,4,1.84,1.84,0,0,0,.47-.06,12,12,0,0,0,9-14.83A2,2,0,0,0,108.61,85.58Z" transform="translate(-25.05 -32.43)" fill="#5e4739"/><path d="M116.89,55.72a2,2,0,0,0-.71,2.74,8,8,0,0,1,1.06,6.31,8.52,8.52,0,0,1-4,5,2,2,0,1,0,1.93,3.51,12.51,12.51,0,0,0,5.93-7.44,12,12,0,0,0-1.47-9.4A2,2,0,0,0,116.89,55.72Z" transform="translate(-25.05 -32.43)" fill="#5e4739"/><path d="M94.78,110.4a2,2,0,0,0-2.09,1.9A7.67,7.67,0,0,1,84.5,120h-.08a2,2,0,0,0-.08,4h.5a11.59,11.59,0,0,0,11.85-11.52A2,2,0,0,0,94.78,110.4Z" transform="translate(-25.05 -32.43)" fill="#5e4739"/><path d="M60.63,87.52h0c-1-2.08-3-3-5.31-3a11.77,11.77,0,0,0-4.93,1.18c-4.16,2-6.51,6.1-5.13,9s6.07,3.73,10.23,1.77a10.59,10.59,0,0,0,4.87-4.3A5.13,5.13,0,0,0,60.63,87.52Z" transform="translate(-25.05 -32.43)" fill="#c5dc76"/><path d="M48.68,82.13c-6.23,2.94-9.38,9.38-7,14.35,1.56,3.31,5.16,5.14,9.23,5.14a14.85,14.85,0,0,0,6.33-1.46,14.6,14.6,0,0,0,6.68-6,9,9,0,0,0,.36-8.34C61.82,80.67,55.13,79.08,48.68,82.13Zm6.81,14.42c-4.16,2-8.85,1.15-10.23-1.77s1-7.07,5.13-9a11.77,11.77,0,0,1,4.93-1.18c2.29,0,4.33.87,5.31,3h0a5.13,5.13,0,0,1-.27,4.73A10.59,10.59,0,0,1,55.49,96.55Z" transform="translate(-25.05 -32.43)" fill="#5e4739"/><path d="M83.66,68.27a5.35,5.35,0,0,0-4.22-1.85,4.7,4.7,0,0,0-.54,0,11.27,11.27,0,0,0-6.31,2.85c-3.74,3.19-5,8.12-2.73,10.77a5.57,5.57,0,0,0,4.69,1.72A11,11,0,0,0,80.92,79a11.32,11.32,0,0,0,3.8-5.79A5.48,5.48,0,0,0,83.66,68.27Z" transform="translate(-25.05 -32.43)" fill="#c5dc76"/><path d="M86.7,65.67a9.42,9.42,0,0,0-8.09-3.22A15.18,15.18,0,0,0,70,66.25c-5.49,4.68-6.91,12-3.19,16.41a9.31,9.31,0,0,0,7.26,3.13l.71,0a15,15,0,0,0,8.73-3.69,15.3,15.3,0,0,0,5.11-7.91,9.45,9.45,0,0,0-1.92-8.5ZM80.92,79a11,11,0,0,1-6.37,2.74,5.57,5.57,0,0,1-4.69-1.72c-2.26-2.65-1-7.58,2.73-10.77a11.27,11.27,0,0,1,6.31-2.85,4.7,4.7,0,0,1,.54,0,5.35,5.35,0,0,1,4.22,1.85,5.48,5.48,0,0,1,1.06,5A11.32,11.32,0,0,1,80.92,79Z" transform="translate(-25.05 -32.43)" fill="#5e4739"/></svg>