<svg xmlns="http://www.w3.org/2000/svg" viewBox="0 0 98.52 101.36"><title>Rice</title><path d="M134.82,65a9.82,9.82,0,0,0,.26-2.16c0-3.42-1.83-7.44-4.76-10.47a2,2,0,0,1-.47-2,10.29,10.29,0,0,0,.42-2.91,10.77,10.77,0,0,0-10.75-10.76,10.36,10.36,0,0,0-3,.43,2,2,0,0,1-2-.57A13,13,0,0,0,105,32.45,12.67,12.67,0,0,0,97.3,35a2.08,2.08,0,0,1-1.3.39,21.65,21.65,0,0,1-5.46-.84A15.28,15.28,0,0,1,84.67,31a.91.91,0,0,0-.92-.26A13.14,13.14,0,0,0,77,35.27a12.69,12.69,0,0,0-2.61,6.39,2,2,0,0,1-2.47,1.72,6.74,6.74,0,0,0-1.63-.2,6.86,6.86,0,0,0-6.35,4.24,2,2,0,0,1-2.15,1.21,6.92,6.92,0,0,0-1.11-.09,10.61,10.61,0,0,0-8,3.89c-1.73,2.2-2.09,5.51-1.1,10.12a15.46,15.46,0,0,0,.8,2.51l.41,0ZM119.05,45.62a2,2,0,0,1,2.68-.89l2,1a2,2,0,0,1,.9,2.68,2,2,0,0,1-2.69.9l-2-1A2,2,0,0,1,119.05,45.62Zm-11-1a2,2,0,0,1,2.68-.89l2,1a2,2,0,0,1,.9,2.68,2,2,0,0,1-2.69.9l-2-1A2,2,0,0,1,108.05,44.62Zm0,6a2,2,0,0,1,2.68-.89l2,1a2,2,0,0,1,.9,2.68,2,2,0,0,1-2.69.9l-2-1A2,2,0,0,1,108.05,50.62ZM93.39,55.37a2,2,0,0,1,2.68-.9l2,1a2,2,0,0,1-.9,3.79,2.07,2.07,0,0,1-.89-.21l-2-1A2,2,0,0,1,93.39,55.37Zm-7-12a2,2,0,0,1,2.68-.9l2,1a2,2,0,0,1-.9,3.79,2.07,2.07,0,0,1-.89-.21l-2-1A2,2,0,0,1,86.39,43.37Zm-6,2a2,2,0,0,1,2.68-.9l2,1a2,2,0,0,1-.9,3.79,2.07,2.07,0,0,1-.89-.21l-2-1A2,2,0,0,1,80.39,45.37ZM67.26,50.8a2,2,0,0,1,2.68-.89l2,1a2,2,0,0,1-.89,3.79,2.08,2.08,0,0,1-.9-.21l-2-1A2,2,0,0,1,67.26,50.8Z" transform="translate(-44.96 -26.7)" fill="#fff"/><path d="M139.48,80.09a5,5,0,0,0-4.48-3H54.2c-2.78,0-5.05,2.52-5.05,5.65V77c0-3.11,2.25-5.65,5.05-5.65H135a5,5,0,0,1,4.48,3v-1.6A3.79,3.79,0,0,0,135.7,69h-83A3.78,3.78,0,0,0,49,72.82V86.31C49,110,63.07,124.05,86.7,124.05h20.2c20.4,0,32.58-12.18,32.58-32.58ZM63.09,84.77v3.32a3,3,0,1,1-6,0V84.77a3,3,0,0,1,6,0Zm12.75,30a18.83,18.83,0,0,1-6.49-1.16,20.4,20.4,0,0,1-2.34-1,19,19,0,0,1-4.07-2.94,18.4,18.4,0,0,1-3.12-3.86,17.73,17.73,0,0,1-1.69-3.61,18.71,18.71,0,0,1-1-6.12,3,3,0,0,1,6,0,12.6,12.6,0,0,0,1.85,6.63,13.19,13.19,0,0,0,2.13,2.64,13,13,0,0,0,2.78,2,11.93,11.93,0,0,0,1.59.72,14.38,14.38,0,0,0,1.67.48,12.68,12.68,0,0,0,2.76.3,3,3,0,1,1,0,6Z" transform="translate(-44.96 -26.7)" fill="#f8dbc8"/><path d="M135,71.38H54.2c-2.8,0-5.05,2.54-5.05,5.65V82.7c0-3.13,2.27-5.65,5.05-5.65H135a5,5,0,0,1,4.48,3V74.42A5,5,0,0,0,135,71.38Z" transform="translate(-44.96 -26.7)" fill="#fff"/><path d="M57.11,84.77v3.32a3,3,0,1,0,6,0V84.77a3,3,0,0,0-6,0Z" transform="translate(-44.96 -26.7)" fill="#fff"/><path d="M75.87,108.75a12.68,12.68,0,0,1-2.76-.3,14.38,14.38,0,0,1-1.67-.48,11.93,11.93,0,0,1-1.59-.72,13,13,0,0,1-2.78-2,13.19,13.19,0,0,1-2.13-2.64A12.6,12.6,0,0,1,63.09,96a3,3,0,0,0-6,0,18.71,18.71,0,0,0,1,6.12,17.73,17.73,0,0,0,1.69,3.61,18.4,18.4,0,0,0,3.12,3.86A19,19,0,0,0,67,112.51a20.4,20.4,0,0,0,2.34,1,18.83,18.83,0,0,0,6.49,1.16,3,3,0,1,0,0-6Z" transform="translate(-44.96 -26.7)" fill="#fff"/><path d="M138.77,65.68a13.13,13.13,0,0,0,.31-2.8A19.64,19.64,0,0,0,134,50.46a14.33,14.33,0,0,0,.3-2.92,14.77,14.77,0,0,0-14.75-14.76,14.38,14.38,0,0,0-2.94.3A17,17,0,0,0,105,28.45a16.63,16.63,0,0,0-9.45,2.94,15.87,15.87,0,0,1-3.75-.63,11.43,11.43,0,0,1-4.12-2.46,4.92,4.92,0,0,0-5-1.42,17.18,17.18,0,0,0-8.85,5.93,16.86,16.86,0,0,0-3.07,6.38h-.48a10.84,10.84,0,0,0-9.37,5.37h-.24A14.53,14.53,0,0,0,49.49,50c-2.51,3.19-3.12,7.59-1.87,13.43a20.16,20.16,0,0,0,.9,2.91A7.76,7.76,0,0,0,45,72.82V86.31c0,25.75,16,41.74,41.74,41.74h20.2c22.56,0,36.58-14,36.58-36.58V72.82A7.77,7.77,0,0,0,138.77,65.68ZM106.9,124.05H86.7C63.07,124.05,49,110,49,86.31V72.82A3.78,3.78,0,0,1,52.74,69h83a3.79,3.79,0,0,1,3.78,3.78V91.47C139.48,111.87,127.3,124.05,106.9,124.05ZM51.53,62.55c-1-4.61-.63-7.92,1.1-10.12a10.61,10.61,0,0,1,8-3.89,6.92,6.92,0,0,1,1.11.09,2,2,0,0,0,2.15-1.21,6.86,6.86,0,0,1,6.35-4.24,6.74,6.74,0,0,1,1.63.2,2,2,0,0,0,2.47-1.72A12.69,12.69,0,0,1,77,35.27a13.14,13.14,0,0,1,6.76-4.54.91.91,0,0,1,.92.26,15.28,15.28,0,0,0,5.87,3.59,21.65,21.65,0,0,0,5.46.84A2.08,2.08,0,0,0,97.3,35,12.67,12.67,0,0,1,105,32.45a13,13,0,0,1,9.52,4.19,2,2,0,0,0,2,.57,10.36,10.36,0,0,1,3-.43,10.77,10.77,0,0,1,10.75,10.76,10.29,10.29,0,0,1-.42,2.91,2,2,0,0,0,.47,2c2.93,3,4.76,7.05,4.76,10.47a9.82,9.82,0,0,1-.26,2.16H52.74l-.41,0A15.46,15.46,0,0,1,51.53,62.55Z" transform="translate(-44.96 -26.7)" fill="#5e4739"/><path d="M68.15,53.49l2,1a2.08,2.08,0,0,0,.9.21,2,2,0,0,0,.89-3.79l-2-1a2,2,0,0,0-2.68.89A2,2,0,0,0,68.15,53.49Z" transform="translate(-44.96 -26.7)" fill="#5e4739"/><path d="M81.28,48.05l2,1a2.07,2.07,0,0,0,.89.21,2,2,0,0,0,.9-3.79l-2-1a2,2,0,0,0-1.79,3.58Z" transform="translate(-44.96 -26.7)" fill="#5e4739"/><path d="M87.28,46.05l2,1a2.07,2.07,0,0,0,.89.21,2,2,0,0,0,.9-3.79l-2-1a2,2,0,0,0-1.79,3.58Z" transform="translate(-44.96 -26.7)" fill="#5e4739"/><path d="M94.28,58.05l2,1a2.07,2.07,0,0,0,.89.21,2,2,0,0,0,.9-3.79l-2-1a2,2,0,0,0-1.79,3.58Z" transform="translate(-44.96 -26.7)" fill="#5e4739"/><path d="M108.94,47.31l2,1a2,2,0,0,0,2.69-.9,2,2,0,0,0-.9-2.68l-2-1a2,2,0,0,0-1.79,3.58Z" transform="translate(-44.96 -26.7)" fill="#5e4739"/><path d="M108.94,53.31l2,1a2,2,0,0,0,2.69-.9,2,2,0,0,0-.9-2.68l-2-1a2,2,0,0,0-1.79,3.58Z" transform="translate(-44.96 -26.7)" fill="#5e4739"/><path d="M119.94,48.31l2,1a2,2,0,0,0,2.69-.9,2,2,0,0,0-.9-2.68l-2-1a2,2,0,0,0-1.79,3.58Z" transform="translate(-44.96 -26.7)" fill="#5e4739"/></svg>