<svg xmlns="http://www.w3.org/2000/svg" viewBox="0 0 107.35 74.27"><title>Boiled egg</title><path d="M109,82.13a24.6,24.6,0,0,0-10.28-2.26c-13.73,0-35.59,11.21-35.59,24.49S85,128.84,98.72,128.84a24.45,24.45,0,0,0,14.85-5,31,31,0,0,1-9.19-22A50.92,50.92,0,0,1,109,82.13Z" transform="translate(-59.13 -58.57)" fill="#e4e4e6"/><path d="M135.43,62.57c-14.67,0-27.05,24.09-27.05,39.22a27,27,0,1,0,54.1,0C162.48,86.66,150.1,62.57,135.43,62.57Zm0,61.77a18.1,18.1,0,1,1,18.1-18.1A18.12,18.12,0,0,1,135.43,124.34Z" transform="translate(-59.13 -58.57)" fill="#fff"/><path d="M135.43,58.57c-10.07,0-19,9-24.7,19.95a28.58,28.58,0,0,0-12-2.65c-15.63,0-39.59,12.76-39.59,28.49s24,28.48,39.59,28.48a28.38,28.38,0,0,0,17.92-6.35,31,31,0,0,0,49.84-24.7C166.48,84.72,152.57,58.57,135.43,58.57ZM98.72,128.84c-13.73,0-35.59-11.21-35.59-24.48S85,79.87,98.72,79.87A24.6,24.6,0,0,1,109,82.13a50.92,50.92,0,0,0-4.62,19.66,31,31,0,0,0,9.19,22A24.45,24.45,0,0,1,98.72,128.84Zm36.71,0a27.09,27.09,0,0,1-27.05-27c0-15.13,12.38-39.22,27.05-39.22s27,24.09,27,39.22A27.08,27.08,0,0,1,135.43,128.84Z" transform="translate(-59.13 -58.57)" fill="#5e4739"/><path d="M135.43,92.14a14.1,14.1,0,1,0,14.1,14.1A14.12,14.12,0,0,0,135.43,92.14Z" transform="translate(-59.13 -58.57)" fill="#f9ba8f"/><path d="M135.43,88.14a18.1,18.1,0,1,0,18.1,18.1A18.12,18.12,0,0,0,135.43,88.14Zm0,32.2a14.1,14.1,0,1,1,14.1-14.1A14.12,14.12,0,0,1,135.43,120.34Z" transform="translate(-59.13 -58.57)" fill="#5e4739"/></svg>