<svg xmlns="http://www.w3.org/2000/svg" viewBox="0 0 104.16 92.6"><title>Fish steak</title><path d="M109.73,142c0,23.38,22.33,41,51.93,41,17.79,0,32.57-10.19,41.36-18.09-20.61-1.18-38.13-9.58-44.57-17.19a12.89,12.89,0,0,1-24.3-3.73H127a2,2,0,0,1,0-4h7.16a12.89,12.89,0,0,1,24.3-3.73c6.43-7.6,23.91-16,44.47-17.19-9.09-8-26.1-20.67-43.2-20.67C127.25,98.4,109.73,120.86,109.73,142Zm54.46,19.74a2,2,0,0,1,2.83-.18l10.4,9.11a2,2,0,0,1-2.64,3l-10.4-9.11A2,2,0,0,1,164.19,161.73Zm-16.11-.23a2,2,0,0,1,2.82.29l7.43,9.11a2,2,0,0,1-3.1,2.53l-7.43-9.11A2,2,0,0,1,148.08,161.5ZM163.91,120l5.2-10.39a2,2,0,0,1,3.58,1.79l-5.2,10.39a2,2,0,0,1-1.79,1.11,2.08,2.08,0,0,1-.9-.21A2,2,0,0,1,163.91,120Zm-16.45.22,3.72-10.39a2,2,0,1,1,3.76,1.35l-3.71,10.39a2,2,0,0,1-3.77-1.35Z" transform="translate(-105.73 -94.4)" fill="#f69b77"/><circle cx="41.16" cy="47.59" r="8.92" fill="#fff"/><path d="M209.88,163a2.31,2.31,0,0,0,0-.37c0-.06,0-.11,0-.17a1.18,1.18,0,0,0-.07-.2,1.11,1.11,0,0,0-.09-.19l-.09-.16a1.78,1.78,0,0,0-.22-.26l0,0h0a2.17,2.17,0,0,0-.29-.24l-.17-.09a1.51,1.51,0,0,0-.18-.09l-.22-.07-.15,0a2.58,2.58,0,0,0-.4,0c-27.26,0-48.07-13.53-48.07-19.06s20.81-19.07,48.08-19.07h0l.25,0,.14,0a1.52,1.52,0,0,0,.2-.06l.17,0,.13-.07.21-.12a.87.87,0,0,0,.1-.08,1.71,1.71,0,0,0,.2-.18h0l.08-.1.15-.19.09-.17c0-.06.06-.11.09-.18a1.39,1.39,0,0,0,.06-.19,1.21,1.21,0,0,0,0-.18,1.94,1.94,0,0,0,0-.24.59.59,0,0,0,0-.13v0a2.45,2.45,0,0,0,0-.27s0-.08,0-.13a.94.94,0,0,0-.07-.22.83.83,0,0,0,0-.15l-.09-.16c0-.06-.06-.12-.1-.18l-.1-.12-.15-.18,0,0c-7.85-7.53-28.39-25.07-49.55-25.07-35.07,0-54,24.52-54,47.59,0,25.66,24,45,55.93,45,21.82,0,39.21-14.12,47.64-22.53a2.42,2.42,0,0,0,.25-.31l.08-.15a.87.87,0,0,0,.1-.19,1.72,1.72,0,0,0,.07-.21c0-.05,0-.11,0-.17a2.58,2.58,0,0,0,0-.39h0Zm-7-44c-20.56,1.19-38,9.59-44.47,17.19a12.89,12.89,0,0,0-24.3,3.73H127a2,2,0,0,0,0,4h7.16a12.89,12.89,0,0,0,24.3,3.73c6.44,7.61,24,16,44.57,17.19-8.79,7.9-23.57,18.09-41.36,18.09-29.6,0-51.93-17.63-51.93-41,0-21.13,17.52-43.59,50-43.59C176.82,98.4,193.83,111,202.92,119.07ZM155.81,142a8.92,8.92,0,1,1-8.92-8.92A8.93,8.93,0,0,1,155.81,142Z" transform="translate(-105.73 -94.4)" fill="#5e4739"/><path d="M148.67,122.8a2,2,0,0,0,2.56-1.21l3.71-10.39a2,2,0,1,0-3.76-1.35l-3.72,10.39A2,2,0,0,0,148.67,122.8Z" transform="translate(-105.73 -94.4)" fill="#5e4739"/><path d="M164.8,122.71a2.08,2.08,0,0,0,.9.21,2,2,0,0,0,1.79-1.11l5.2-10.39a2,2,0,0,0-3.58-1.79L163.91,120A2,2,0,0,0,164.8,122.71Z" transform="translate(-105.73 -94.4)" fill="#5e4739"/><path d="M155.23,173.43a2,2,0,0,0,1.55.73,2,2,0,0,0,1.55-3.26l-7.43-9.11a2,2,0,1,0-3.1,2.53Z" transform="translate(-105.73 -94.4)" fill="#5e4739"/><path d="M174.78,173.67a2,2,0,1,0,2.64-3L167,161.55a2,2,0,1,0-2.64,3Z" transform="translate(-105.73 -94.4)" fill="#5e4739"/></svg>