<svg xmlns="http://www.w3.org/2000/svg" viewBox="0 0 106.44 106.04"><title>Shrimp</title><path d="M109.86,140.35l2.67,1.5c11.39,6.42,29,7.84,36.68,7.72l.89,0c.66,0,1.21-.07,1.62-.12.18,0,1.05-1.13,1.14-5.29l-.21-.07c-.48-.12-1-.26-1.44-.41l-.51-.17c-.45-.15-.92-.33-1.38-.51l-.55-.22c-.44-.18-.87-.39-1.31-.6l-.63-.29c-.37-.19-.75-.4-1.12-.61l-.76-.41-.17-.11c-.41-.24-.84-.51-1.26-.79l-.42-.28c-.47-.32-.95-.66-1.43-1l-.31-.24c-.5-.37-1-.77-1.51-1.18l-.07,0c-.58-.47-1.16-1-1.74-1.46l-.07-.06a179.34,179.34,0,0,1-18-18.86c-4.7,4.14-8.93,11.47-10.71,16.82h0C107.93,137.61,108.92,139.5,109.86,140.35Z" transform="translate(-104.62 -88.68)" fill="#fff"/><path d="M118.77,166.65a3.51,3.51,0,0,0,.66.14h.26a8.7,8.7,0,0,0,4.21-1.34l.38-.2c.15-.06,15.32-6,21.58-9a3.2,3.2,0,0,0,1.26-1l.07-.11c.05-.08.09-.16.13-.24l.07-.18,0,0,0-.11a3,3,0,0,0,.12-.95c-8-.06-22.79-1.44-34.16-6.77a54.82,54.82,0,0,0,3,16.95C117,165.36,117.74,166.31,118.77,166.65Z" transform="translate(-104.62 -88.68)" fill="#f69b77"/><path d="M133.57,181.49a5.25,5.25,0,0,0,3.5.75l.29-.08a5.19,5.19,0,0,0,2.25-1.24l13.26-16.44a14.67,14.67,0,0,0-.13-1.77l-.05-.36a8.9,8.9,0,0,0-.91-3,4.82,4.82,0,0,0-1.69-1.48c-.09.11-.2.22-.3.32l-.1.11a7.05,7.05,0,0,1-.87.74l-.15.1a7.93,7.93,0,0,1-1.07.63h0c-6.09,2.95-19.83,8.38-21.68,9.1l-.11.07-.12.07a13.55,13.55,0,0,1-3,1.33A28.74,28.74,0,0,0,133.57,181.49Z" transform="translate(-104.62 -88.68)" fill="#fff"/><path d="M121.53,112.39c1.83,2.25,16,19.49,25.43,25l.29.15c.53.31,1.07.6,1.61.87l.66.3c.42.19.85.38,1.27.55l.69.26,1.27.42.63.19c.57.15,1.13.28,1.69.39a16.44,16.44,0,0,0,13.48-3c4.64-3.76,6.13-6.73,5.67-11.35C173.7,121,156.65,95.45,152,92.86c-2.59-1.44-11.12,4.69-16.21,8.36a85.11,85.11,0,0,1-7.46,5C122.56,109.39,121.48,111.68,121.53,112.39Z" transform="translate(-104.62 -88.68)" fill="#f69b77"/><path d="M196.9,168l-1.8-.28c-3.35-.51-10.19,1-18.91,4.31,0,.22,0,.44,0,.68v0c0,.22,0,.45,0,.69s0,.2,0,.3l0,.51-.09.74c0,.05,0,.1,0,.15,0,.32-.1.66-.17,1l-.06.27c-.08.34-.16.69-.25,1l0,.1c-.1.4-.23.81-.35,1.22,0,.11-.07.22-.1.33l-.42,1.26,0,.14.41,0,.31,0,1.3,0h.06a46.91,46.91,0,0,0,17.12-3.7l.73-.29h0a52.31,52.31,0,0,0,11.84-6.72A65.6,65.6,0,0,0,196.9,168Z" transform="translate(-104.62 -88.68)" fill="#f69b77"/><path d="M192.44,181.69l-1,.35-.18.06-1.19.37h0a46.89,46.89,0,0,1-12.34,2.1h-1.26c-.7,0-1.4,0-2.1-.07l-.48,0-.74-.06c-.32.78-.62,1.44-.84,2L172,187a5.53,5.53,0,0,1-.11.81,46.48,46.48,0,0,0,16,2.94c6.55,0,12.65-3.53,14.41-5.8-.71-.71-2.89-2.13-7.67-4l-.76.29-.24.09Z" transform="translate(-104.62 -88.68)" fill="#f69b77"/><path d="M163.85,188.78c1.74.05,3-.26,3.64-.9l.12-.14.06-.09A1.89,1.89,0,0,0,168,187v0a1.21,1.21,0,0,0,0-.14c0-.11,0-.19,0-.2l-.05-.54.24-.44s.31-.66.73-1.63l.09-.19-.09,0,1-2.28.06-.16h0l.08-.21c.09-.24.19-.47.27-.7l0-.1a39.31,39.31,0,0,0,1.4-4.39c0-.07,0-.14.05-.21s.07-.33.1-.48.09-.45.12-.66v0a6.15,6.15,0,0,0-.08-3l-.1-.23a10.67,10.67,0,0,0-2.55-2.44c-1-.79-4.74-2.19-12.48-3.94a2.37,2.37,0,0,1,0,.31v.06l0,.59-2.07,2.56-12.19,15.1h0l-.28.29c-.17.15-.35.31-.55.47,7.33,4.48,14.18,4.44,19.35,4.41h1.22Z" transform="translate(-104.62 -88.68)" fill="#f69b77"/><path d="M210.9,168.72c-.93-2.66-5.23-3.42-13.41-4.66l-1.78-.27c-5.11-.79-14,1.91-21.06,4.56a20.39,20.39,0,0,0-2.81-2.58c-1.82-1.48-7-3.15-15.36-5a12,12,0,0,0-1.23-3.38,9.11,9.11,0,0,0-3.73-3.26c0-.22,0-.44,0-.67.25,0,.49,0,.68-.07,3.81-.48,4.54-5.3,4.65-8.61.6.05,1.19.08,1.77.08a19.76,19.76,0,0,0,12.44-4.2c4.13-3.35,7.86-7.46,7.13-14.86h0c-.64-6.37-18.57-33.28-24.29-36.45-4.82-2.68-12.79,3.06-20.49,8.61a81.6,81.6,0,0,1-7,4.76c-5.08,2.79-8,5.62-8.68,8.42a4.82,4.82,0,0,0,0,2.36c-5.44,4.62-10.17,12.72-12.22,18.85h0c-1.15,3.47-1.12,6.42.09,8.78a7.47,7.47,0,0,0,3.84,3.54l.07,0c-.48,8.48,2,17,3.18,20.33,1.2,3.52,3.3,4.87,4.85,5.39a8.12,8.12,0,0,0,.81.22A32.74,32.74,0,0,0,131.57,185a8.85,8.85,0,0,0,5.81,1.28c9.14,6.61,17.88,6.57,23.74,6.54.94,0,1.81,0,2.61,0h.48a8.85,8.85,0,0,0,5.52-1.58,50.34,50.34,0,0,0,18.11,3.51c8.48,0,16.34-4.86,18.24-8.36a3.06,3.06,0,0,0,.16-2.55c-.26-.71-.91-2.42-6.66-5.12,5.48-2.69,9.38-5.54,10.48-6.72A3.1,3.1,0,0,0,210.9,168.72ZM194.58,180.9c4.78,1.89,7,3.31,7.67,4-1.76,2.27-7.86,5.8-14.41,5.8a46.48,46.48,0,0,1-16-2.94A5.53,5.53,0,0,0,172,187l.28-.61c.22-.51.52-1.17.84-2l.74.06.48,0c.7,0,1.4.07,2.1.07h1.26a46.89,46.89,0,0,0,12.34-2.1h0l1.19-.37.18-.06,1-.35,1.14-.41.24-.09Zm-52.83,3.46c.2-.16.38-.32.55-.47l.28-.29h0l12.19-15.1,2.07-2.56,0-.59v-.06a2.37,2.37,0,0,0,0-.31c7.74,1.75,11.51,3.15,12.48,3.94a10.67,10.67,0,0,1,2.55,2.44l.1.23a6.15,6.15,0,0,1,.08,3v0q0,.31-.12.66c0,.15-.06.32-.1.48s0,.14-.05.21a39.31,39.31,0,0,1-1.4,4.39l0,.1c-.08.23-.18.46-.27.7l-.08.21h0l-.06.16-1,2.28.09,0-.09.19c-.42,1-.72,1.61-.73,1.63l-.24.44.05.54s0,.09,0,.2a1.21,1.21,0,0,1,0,.14v0a1.89,1.89,0,0,1-.29.65l-.06.09-.12.14c-.65.64-1.9,1-3.64.9l-1.53,0H161.1C155.93,188.8,149.08,188.84,141.75,184.36ZM152,92.86c4.68,2.59,21.73,28.15,22.25,33.35.46,4.62-1,7.59-5.67,11.35a16.44,16.44,0,0,1-13.48,3c-.56-.11-1.12-.24-1.69-.39l-.63-.19-1.27-.42-.69-.26c-.42-.17-.85-.36-1.27-.55l-.66-.3c-.54-.27-1.08-.56-1.61-.87l-.29-.15c-9.41-5.51-23.6-22.75-25.43-25,0-.71,1-3,6.77-6.15a85.11,85.11,0,0,0,7.46-5C140.85,97.55,149.38,91.42,152,92.86Zm-42.71,40.76h0c1.78-5.35,6-12.68,10.71-16.82a179.34,179.34,0,0,0,18,18.86l.07.06c.58.5,1.16,1,1.74,1.46l.07,0c.5.41,1,.81,1.51,1.18l.31.24c.48.36,1,.7,1.43,1l.42.28c.42.28.85.55,1.26.79l.17.11.76.41c.37.21.75.42,1.12.61l.63.29c.44.21.87.42,1.31.6l.55.22c.46.18.93.36,1.38.51l.51.17c.49.15,1,.29,1.44.41l.21.07c-.09,4.16-1,5.27-1.14,5.29-.41,0-1,.09-1.62.12l-.89,0c-7.68.12-25.29-1.3-36.68-7.72l-2.67-1.5C108.92,139.5,107.93,137.61,109.26,133.62Zm38.3,20a3,3,0,0,1-.12.95l0,.11,0,0-.07.18c0,.08-.08.16-.13.24l-.07.11a3.2,3.2,0,0,1-1.26,1c-6.26,3-21.43,9-21.58,9l-.38.2a8.7,8.7,0,0,1-4.21,1.34h-.26a3.51,3.51,0,0,1-.66-.14c-1-.34-1.79-1.29-2.34-2.89a54.82,54.82,0,0,1-3-16.95C124.77,152.14,139.6,153.52,147.56,153.58Zm-21.87,15.47.12-.07.11-.07c1.85-.72,15.59-6.15,21.68-9.1h0a7.93,7.93,0,0,0,1.07-.63l.15-.1a7.05,7.05,0,0,0,.87-.74l.1-.11c.1-.1.21-.21.3-.32a4.82,4.82,0,0,1,1.69,1.48,8.9,8.9,0,0,1,.91,3l.05.36a14.67,14.67,0,0,1,.13,1.77l-13.26,16.44a5.19,5.19,0,0,1-2.25,1.24l-.29.08a5.25,5.25,0,0,1-3.5-.75,28.74,28.74,0,0,1-10.93-11.11A13.55,13.55,0,0,0,125.69,169.05Zm68.9,7.56h0l-.73.29a46.91,46.91,0,0,1-17.12,3.7h-.06l-1.3,0-.31,0-.41,0,0-.14.42-1.26c0-.11.06-.22.1-.33.12-.41.25-.82.35-1.22l0-.1c.09-.35.17-.7.25-1l.06-.27c.07-.35.13-.69.17-1,0-.05,0-.1,0-.15l.09-.74,0-.51c0-.1,0-.2,0-.3s0-.47,0-.69v0c0-.24,0-.46,0-.68,8.72-3.26,15.56-4.82,18.91-4.31l1.8.28a65.6,65.6,0,0,1,9.53,1.87A52.31,52.31,0,0,1,194.59,176.61Z" transform="translate(-104.62 -88.68)" fill="#5e4739"/></svg>