<svg xmlns="http://www.w3.org/2000/svg" viewBox="0 0 88.02 84.54"><title>Tofu</title><path d="M71.88,70.82c1.55-.55,3.11-1.07,4.7-1.53a8.62,8.62,0,0,1,9.71,3.4,83.84,83.84,0,0,1,6.65,11.39,70,70,0,0,1,6.23-3.43,73,73,0,0,1,12.25-5c0-.12.1-.24.14-.37A71.39,71.39,0,0,0,115,61.6a4.88,4.88,0,0,0-2.6-5.31,78.88,78.88,0,0,0-13.06-5.42,71.38,71.38,0,0,0-13.92-3.14h0a5.25,5.25,0,0,0-.79-.06,5.35,5.35,0,0,0-4.68,2.89,75.23,75.23,0,0,0-5.84,13C73.19,66.06,72.47,68.47,71.88,70.82Z" transform="translate(-46.8 -43.67)" fill="#ffcd6e"/><path d="M119.11,81a4.64,4.64,0,0,0-5.24-1.84A69.41,69.41,0,0,0,101,84.23a69,69,0,0,0-6.37,3.53A80.3,80.3,0,0,1,98.4,99a9.38,9.38,0,0,1-3.5,9.91c-.89.66-1.83,1.32-2.83,2a82.21,82.21,0,0,0,6.53,11.26,4.67,4.67,0,0,0,5.26,1.87,70.67,70.67,0,0,0,12.91-5.1,89.7,89.7,0,0,0,11.85-7.2,5.41,5.41,0,0,0,2-5.71,81.76,81.76,0,0,0-4.65-13,2,2,0,0,1,.83-2.54l-5.07-8.82A2,2,0,0,1,119.11,81Z" transform="translate(-46.8 -43.67)" fill="#ffcd6e"/><path d="M134.51,105a84.8,84.8,0,0,0-4.87-13.68,2,2,0,0,0-2.65-1l-.17.1a2,2,0,0,0-.83,2.54,81.76,81.76,0,0,1,4.65,13,5.41,5.41,0,0,1-2,5.71,89.7,89.7,0,0,1-11.85,7.2,70.67,70.67,0,0,1-12.91,5.1,4.67,4.67,0,0,1-5.26-1.87,82.21,82.21,0,0,1-6.53-11.26c1-.66,1.94-1.32,2.83-2A9.38,9.38,0,0,0,98.4,99a80.3,80.3,0,0,0-3.81-11.2A69,69,0,0,1,101,84.23a69.41,69.41,0,0,1,12.91-5.1A4.64,4.64,0,0,1,119.11,81a2,2,0,0,0,2.64.6l.14-.08a2,2,0,0,0,.51-2.78,8.8,8.8,0,0,0-6.49-3.78,71.38,71.38,0,0,0,3-12.77,8.84,8.84,0,0,0-4.71-9.42,82.37,82.37,0,0,0-13.65-5.66A74.27,74.27,0,0,0,86,43.77a9.32,9.32,0,0,0-9.53,4.82,78.47,78.47,0,0,0-6.14,13.68A77.46,77.46,0,0,0,67.38,72.6c-1.47.64-2.92,1.31-4.32,2a88.32,88.32,0,0,0-12.41,7.53l0,0a9.38,9.38,0,0,0-3.5,9.91A84.59,84.59,0,0,0,52,105.84a88.18,88.18,0,0,0,7.21,12.54,8.77,8.77,0,0,0,7.17,3.81,8,8,0,0,0,2.55-.41,73.88,73.88,0,0,0,13.57-5.37q3.3-1.71,6.17-3.42a86.05,86.05,0,0,0,6.65,11.41,8.79,8.79,0,0,0,7.17,3.81,8.25,8.25,0,0,0,2.55-.41,73.5,73.5,0,0,0,13.56-5.37A92.24,92.24,0,0,0,131,114.89,9.38,9.38,0,0,0,134.51,105Zm-72,11.11a82.86,82.86,0,0,1-6.86-11.94,80.79,80.79,0,0,1-4.65-13,5.41,5.41,0,0,1,2-5.7,84.38,84.38,0,0,1,11.86-7.2,70.39,70.39,0,0,1,12.91-5.1A4.66,4.66,0,0,1,83,75a82.69,82.69,0,0,1,6.87,11.94,80.12,80.12,0,0,1,4.65,13,5.4,5.4,0,0,1-2,5.7,89.05,89.05,0,0,1-11.85,7.2A70,70,0,0,1,67.75,118,4.67,4.67,0,0,1,62.49,116.09Zm22.1-68.42a5.25,5.25,0,0,1,.79.06h0a71.38,71.38,0,0,1,13.92,3.14,78.88,78.88,0,0,1,13.06,5.42A4.88,4.88,0,0,1,115,61.6a71.39,71.39,0,0,1-3.44,13.73c0,.13-.09.25-.14.37a73,73,0,0,0-12.25,5,70,70,0,0,0-6.23,3.43,83.84,83.84,0,0,0-6.65-11.39,8.62,8.62,0,0,0-9.71-3.4c-1.59.46-3.15,1-4.7,1.53.59-2.35,1.31-4.76,2.19-7.24a75.23,75.23,0,0,1,5.84-13A5.35,5.35,0,0,1,84.59,47.67Z" transform="translate(-46.8 -43.67)" fill="#5e4739"/><path d="M92.51,105.66a5.4,5.4,0,0,0,2-5.7,80.12,80.12,0,0,0-4.65-13A82.69,82.69,0,0,0,83,75a4.66,4.66,0,0,0-5.25-1.87,70.39,70.39,0,0,0-12.91,5.1A84.38,84.38,0,0,0,53,85.41a5.41,5.41,0,0,0-2,5.7,80.79,80.79,0,0,0,4.65,13,82.86,82.86,0,0,0,6.86,11.94A4.67,4.67,0,0,0,67.75,118a70,70,0,0,0,12.91-5.1A89.05,89.05,0,0,0,92.51,105.66Z" transform="translate(-46.8 -43.67)" fill="#ffcd6e"/></svg>