<svg xmlns="http://www.w3.org/2000/svg" viewBox="0 0 113.62 106.87"><title>Purple cabbage</title><path d="M81.63,101.45a20.46,20.46,0,0,0-10.5-18,24.48,24.48,0,0,0-6.8,38.49A20.73,20.73,0,0,0,81.63,101.45Z" transform="translate(-25 -50.79)" fill="#806875"/><path d="M105.49,113.12a31.88,31.88,0,0,1-5.36.47,31,31,0,0,1-15.8-4.28A24.78,24.78,0,0,1,68,125.14a24.5,24.5,0,0,0,37.47-12Z" transform="translate(-25 -50.79)" fill="#baa1b6"/><path d="M33.33,103.94c.41.25,8.64,5,20.74-2.78A28.58,28.58,0,0,1,70.13,79.42a3,3,0,0,1,.41-.18,28.47,28.47,0,0,1,25.63,1.07,12.41,12.41,0,0,1,19.93,3.77,12.34,12.34,0,0,1,3.7-.73q.06-.84.06-1.68A23.37,23.37,0,0,0,96.52,58.33a23,23,0,0,0-5.91.76A29.81,29.81,0,0,1,91.73,67a2,2,0,0,1-2,2h0a2,2,0,0,1-2-2,26.26,26.26,0,0,0-1.44-8.29,8.42,8.42,0,0,0-15.48,3.58A2,2,0,0,1,67,63a8.43,8.43,0,0,0-16,3.81,8.26,8.26,0,0,0,.37,2.47,2,2,0,0,1-2.93,2.31,8.43,8.43,0,0,0-10.27,13.2,2,2,0,0,1-1.31,3.41,8.43,8.43,0,0,0-3.61,15.78Z" transform="translate(-25 -50.79)" fill="#baa1b6"/><path d="M82.39,133.73h-.1a28.39,28.39,0,0,1-19.92-8.13,2.65,2.65,0,0,1-.34-.33A28.49,28.49,0,0,1,53.79,106a27.41,27.41,0,0,1-13.19,3.64,20.62,20.62,0,0,1-7.21-1.25,20.32,20.32,0,0,0-1.24,7,20.56,20.56,0,0,0,10.52,17.92,2,2,0,0,1,1,2.2,8.05,8.05,0,0,0-.23,1.92,8.39,8.39,0,0,0,12.52,7.31,2,2,0,0,1,3,1.51A8.39,8.39,0,0,0,75,148.46a2,2,0,0,1,3.31-.6,8.38,8.38,0,0,0,14.45-4.64A27.35,27.35,0,0,1,82.39,133.73Z" transform="translate(-25 -50.79)" fill="#baa1b6"/><path d="M75.71,81.6a24.5,24.5,0,0,1,9.92,19.85,25.87,25.87,0,0,1-.3,3.75,27,27,0,0,0,14.8,4.39,27.43,27.43,0,0,0,6.41-.77,25.21,25.21,0,0,0,.27-3.6A24.52,24.52,0,0,0,75.71,81.6Z" transform="translate(-25 -50.79)" fill="#806875"/><path d="M134.62,110.6a8.43,8.43,0,0,0-5.74-8,2,2,0,0,1-1.12-2.85,8.28,8.28,0,0,0,1-4A8.43,8.43,0,0,0,116,88.55a2,2,0,0,1-3-1.25,8.43,8.43,0,0,0-13.38-4.71A28.5,28.5,0,0,1,87,133.34a23.34,23.34,0,0,0,41.76-13.44,2,2,0,0,1,1.12-1.73A8.38,8.38,0,0,0,134.62,110.6Z" transform="translate(-25 -50.79)" fill="#baa1b6"/><path d="M132.14,99.69a12.73,12.73,0,0,0,.63-3.93,12.45,12.45,0,0,0-9-11.94c.06-.71.09-1.43.09-2.15A27.36,27.36,0,0,0,96.52,54.33a27,27,0,0,0-7.65,1.09A12.44,12.44,0,0,0,68,57.71a12.33,12.33,0,0,0-8.52-3.38A12.45,12.45,0,0,0,47.08,66.71a12.32,12.32,0,0,0-2.84-.33A12.44,12.44,0,0,0,33.35,84.83a12.44,12.44,0,0,0-3.5,21.6,24.5,24.5,0,0,0,9.64,29.63,10.59,10.59,0,0,0-.08,1.37,12.41,12.41,0,0,0,12.39,12.4,12.17,12.17,0,0,0,3.7-.57,12.4,12.4,0,0,0,21.91,3.08,12.38,12.38,0,0,0,19.11-7.47,27.32,27.32,0,0,0,36.16-23.68,12.42,12.42,0,0,0-.54-21.5Zm-3.39,20.21A23.34,23.34,0,0,1,87,133.34,28.5,28.5,0,0,0,99.62,82.59,8.43,8.43,0,0,1,113,87.3a2,2,0,0,0,3,1.25,8.43,8.43,0,0,1,12.8,7.21,8.28,8.28,0,0,1-1,4,2,2,0,0,0,1.12,2.85,8.42,8.42,0,0,1,1,15.56A2,2,0,0,0,128.75,119.9ZM84.43,150.53a8.33,8.33,0,0,1-6.13-2.67,2,2,0,0,0-3.31.6,8.39,8.39,0,0,1-16.09-2.21,2,2,0,0,0-3-1.51,8.39,8.39,0,0,1-12.52-7.31,8.05,8.05,0,0,1,.23-1.92,2,2,0,0,0-1-2.2,20.56,20.56,0,0,1-10.52-17.92,20.32,20.32,0,0,1,1.24-7,20.62,20.62,0,0,0,7.21,1.25A27.41,27.41,0,0,0,53.79,106,28.49,28.49,0,0,0,62,125.27a2.65,2.65,0,0,0,.34.33,28.39,28.39,0,0,0,19.92,8.13h.1a27.35,27.35,0,0,0,10.36,9.49A8.41,8.41,0,0,1,84.43,150.53ZM36.94,88.16a2,2,0,0,0,1.31-3.41,8.43,8.43,0,0,1,10.27-13.2,2,2,0,0,0,2.93-2.31,8.26,8.26,0,0,1-.37-2.47A8.43,8.43,0,0,1,67,63a2,2,0,0,0,3.77-.68A8.42,8.42,0,0,1,86.29,58.7,26.26,26.26,0,0,1,87.73,67a2,2,0,0,0,2,2h0a2,2,0,0,0,2-2,29.81,29.81,0,0,0-1.12-7.92,23,23,0,0,1,5.91-.76,23.37,23.37,0,0,1,23.34,23.34q0,.84-.06,1.68a12.34,12.34,0,0,0-3.7.73,12.41,12.41,0,0,0-19.93-3.77,28.47,28.47,0,0,0-25.63-1.07,3,3,0,0,0-.41.18,28.58,28.58,0,0,0-16.06,21.74c-12.1,7.79-20.33,3-20.74,2.78a8.43,8.43,0,0,1,3.61-15.78Zm69.87,17.06a25.21,25.21,0,0,1-.27,3.6,27.43,27.43,0,0,1-6.41.77,27,27,0,0,1-14.8-4.39,25.87,25.87,0,0,0,.3-3.75A24.5,24.5,0,0,0,75.71,81.6a24.52,24.52,0,0,1,31.1,23.62ZM82.29,129.73A24.39,24.39,0,0,1,68,125.14a24.78,24.78,0,0,0,16.31-15.83,31,31,0,0,0,15.8,4.28,31.88,31.88,0,0,0,5.36-.47A24.55,24.55,0,0,1,82.29,129.73Zm-18-7.84a24.48,24.48,0,0,1,6.8-38.49,20.46,20.46,0,0,1,10.5,18A20.73,20.73,0,0,1,64.33,121.89Z" transform="translate(-25 -50.79)" fill="#5e4739"/></svg>