<svg xmlns="http://www.w3.org/2000/svg" viewBox="0 0 105.72 88.19"><title>Curly Kale</title><path d="M164.81,120.77a21.57,21.57,0,0,1-3.27,8.29,18.83,18.83,0,0,0,3.3-8.12,2,2,0,0,1,.33-.75A1,1,0,0,0,164.81,120.77Z" transform="translate(-83.3 -61.14)" fill="none"/><path d="M161.39,129.25l-.15.19Z" transform="translate(-83.3 -61.14)" fill="none"/><path d="M180.54,121.24a9.07,9.07,0,0,1-1.64,5.24A8.16,8.16,0,0,0,180.54,121.24Z" transform="translate(-83.3 -61.14)" fill="none"/><path d="M181.61,109.36a3.32,3.32,0,0,0,.71-1.1,2.69,2.69,0,0,0,.12-1,3.14,3.14,0,0,1-.19.93A4,4,0,0,1,181.61,109.36Z" transform="translate(-83.3 -61.14)" fill="none"/><path d="M179.52,74.14a5.47,5.47,0,0,1-1,3A4.45,4.45,0,0,0,179.52,74.14Z" transform="translate(-83.3 -61.14)" fill="none"/><path d="M162.21,96.13a.81.81,0,0,1,0-.16,1.93,1.93,0,0,1,.27-.7.88.88,0,0,0-.29.52A1,1,0,0,0,162.21,96.13Z" transform="translate(-83.3 -61.14)" fill="none"/><path d="M183.77,89.78A5.4,5.4,0,0,0,185,86.52,6.66,6.66,0,0,1,183.6,90C183.66,89.91,183.72,89.85,183.77,89.78Z" transform="translate(-83.3 -61.14)" fill="none"/><path d="M185,86.09v0Z" transform="translate(-83.3 -61.14)" fill="none"/><path d="M175.15,113.87a2,2,0,0,1,.32-.91,1,1,0,0,0-.33.87S175.15,113.86,175.15,113.87Z" transform="translate(-83.3 -61.14)" fill="none"/><path d="M134.27,83.8a1,1,0,0,0-.18.78,1.8,1.8,0,0,1,.31-.88A.45.45,0,0,0,134.27,83.8Z" transform="translate(-83.3 -61.14)" fill="none"/><path d="M101.35,120.6a1.1,1.1,0,0,0,0,.16,1.89,1.89,0,0,1,.3-.87A1,1,0,0,0,101.35,120.6Z" transform="translate(-83.3 -61.14)" fill="none"/><path d="M163.89,70.64a1,1,0,0,0,0,.42,1.45,1.45,0,0,1,.07-.35,8,8,0,0,0,.36-2.9A9.21,9.21,0,0,1,163.89,70.64Z" transform="translate(-83.3 -61.14)" fill="none"/><path d="M175.6,80.11a2.2,2.2,0,0,1,.3-.87A1,1,0,0,0,175.6,80.11Z" transform="translate(-83.3 -61.14)" fill="none"/><path d="M101.36,120.93a.88.88,0,0,1,0-.17,1.1,1.1,0,0,1,0-.16,1,1,0,0,1,.33-.71,2.05,2.05,0,0,1,1.71-.92,46.13,46.13,0,0,1,18.13,4.85c-2-6.17-6.2-15.68-9.8-18.92-1.23-1.1-3.07-2.24-4.94-1.5s-3,2.95-3.24,5.7a2,2,0,0,1-3.15,1.48c-2.45-1.74-7.51-2.53-10.62-1a4.17,4.17,0,0,0-2.46,3.93c-.14,4,3.52,7.73,6.19,10.43,2.18,2.2,3.62,3.66,3.38,5.46-.32,2.37-2.32,3.25-3.64,3.84-1.88.83-2.66,1.18-1.89,4.21.67,2.59,6.41,4,8.32,3.57,2.83-.59,5.29-2.4,7.89-4.32a29.38,29.38,0,0,1,7.41-4.4,31.2,31.2,0,0,1,7.29-3.51,43.51,43.51,0,0,0-19-5.84A2,2,0,0,1,101.36,120.93Z" transform="translate(-83.3 -61.14)" fill="#c5dc76"/><path d="M154.4,111.7a34.9,34.9,0,0,1-.49,7.72c-.51,4-1.36,10.55.54,11.32a5.76,5.76,0,0,0,5.13,0,6.2,6.2,0,0,0,1.66-1.34l.15-.19.15-.19a21.57,21.57,0,0,0,3.27-8.29,1,1,0,0,1,.36-.58,2,2,0,0,1,3.3,0c3.51,5.33,7,8,9.2,7.17a3.18,3.18,0,0,0,1.23-.91,9.07,9.07,0,0,0,1.64-5.24c0-.33,0-.65-.07-1-.19-1.47-.9-4-3.53-4.21a2,2,0,0,1-1.79-1.75,2.16,2.16,0,0,1,0-.44s0,0,0,0a1,1,0,0,1,.33-.87,2,2,0,0,1,1-.78,13.39,13.39,0,0,0,5.14-2.82,4,4,0,0,0,.64-1.13,3.14,3.14,0,0,0,.19-.93,5.82,5.82,0,0,0-1-2.65c-1.34-2.16-5.17-2.72-8.87-3.25-3.93-.57-8-1.16-10-3.9a1.94,1.94,0,0,1-.37-1.37,1,1,0,0,1,0-.34.88.88,0,0,1,.29-.52,2,2,0,0,1,.58-.62c2.57-1.72,6.34-1.94,10.33-2.18S181.82,92,183.6,90a6.66,6.66,0,0,0,1.4-3.46c0-.11,0-.22,0-.33v-.1a4.13,4.13,0,0,0-.75-2,5.28,5.28,0,0,0-6.08-1.8,2,2,0,0,1-2.57-2.13,1,1,0,0,1,.3-.87,2,2,0,0,1,.89-.75,4.57,4.57,0,0,0,1.78-1.31,5.47,5.47,0,0,0,1-3c0-.12,0-.24,0-.35-.26-2.9-2.42-5.72-4.82-6.27s-4.91,1.15-7.11,4.79a2,2,0,0,1-3.7-1.25,1,1,0,0,1,0-.42,9.21,9.21,0,0,0,.41-2.83,2.69,2.69,0,0,0-1.43-2.24c-1.84-.95-5.25-.28-7.06,2-2.81,3.6-6.69,13-5.79,17h0a1.53,1.53,0,0,1,0,.3.38.38,0,0,1,0,.1,1.69,1.69,0,0,1,0,.23,1.73,1.73,0,0,1-.12.51v0l0,0a1.92,1.92,0,0,1-.25.44l-.14.18-.08.07-.22.19h0l-.12.06a1.55,1.55,0,0,1-.22.12l-.22.08-.14,0h0l-.19,0a1.94,1.94,0,0,1-1.3-.29l0,0a1.86,1.86,0,0,1-.28-.21.27.27,0,0,0-.07-.08,2,2,0,0,1-.19-.22v0c-1.71-2.46-2.26-5.43-2.79-8.3-.57-3.09-1.1-6-3-7.88-1.55-1.5-2.9-2.18-3.71-1.88-1.08.4-2.42,2.81-2.8,7.15a2,2,0,0,1-.95,1.53,2,2,0,0,1-1.79.15,14.89,14.89,0,0,1-3.43-2.28c-3.79-3-5.26-3.6-7.1-1.39-2.53,3.05,1.36,9,4.16,11.33a2,2,0,0,1,.64,2.11c-.48,1.61-2.08,2.55-3.78,3.54-.93.55-2.89,1.7-2.9,2.32,0,0,0,1.1,3.32,3.32a19.79,19.79,0,0,0,3.12-1.17,14.83,14.83,0,0,1,4.6-1.48,17.24,17.24,0,0,1,10.55,2.37,2,2,0,0,1,.69.71,16.65,16.65,0,0,1,3.9,3.29c.81-1,1.64-2,2.51-3-4.43-3.71-9.07-7.39-12.78-10.2a2,2,0,0,1-.77-1.78,1,1,0,0,1,.18-.78.45.45,0,0,1,.13-.1.64.64,0,0,1,.08-.14,2,2,0,0,1,2.8-.39c1.24,1,7,5.34,13.09,10.44a62,62,0,0,1,17.44-12.67,2,2,0,0,1,1.74,3.6,57.17,57.17,0,0,0-16.08,11.71c6,5.17,11.64,10.59,13,13.66a2,2,0,0,1-1,2.64,2.1,2.1,0,0,1-.81.17,2,2,0,0,1-1.83-1.2c-.85-1.93-4.55-5.66-9.25-9.86-.12,2-.41,4.49-.73,7.4,0,.29-.07.6-.11.91A2,2,0,0,1,154.4,111.7Z" transform="translate(-83.3 -61.14)" fill="#acd263"/><path d="M162.79,111.52a2,2,0,0,0,1.83,1.2,2.1,2.1,0,0,0,.81-.17,2,2,0,0,0,1-2.64c-1.34-3.07-7-8.49-13-13.66a57.17,57.17,0,0,1,16.08-11.71,2,2,0,0,0-1.74-3.6,62,62,0,0,0-17.44,12.67c-6.1-5.1-11.85-9.49-13.09-10.44a2,2,0,0,0-2.8.39.64.64,0,0,0-.08.14,1.8,1.8,0,0,0-.31.88,2,2,0,0,0,.77,1.78c3.71,2.81,8.35,6.49,12.78,10.2-.87,1-1.7,2-2.51,3a100.61,100.61,0,0,0-15.55,29.54,39.54,39.54,0,0,0-3.22-2.44,1.93,1.93,0,0,0,0-.79c-1.3-5.07-6.58-19.16-11.93-24-2.88-2.58-6.2-3.39-9.1-2.23a9.32,9.32,0,0,0-5.21,6.24c-3.58-1.4-8.42-1.74-12.09.08a8.18,8.18,0,0,0-4.68,7.39c-.19,5.75,4.35,10.33,7.35,13.37a28.27,28.27,0,0,1,2.1,2.27,10.08,10.08,0,0,1-1.14.56c-2,.9-5.76,2.56-4.14,8.87,1.2,4.69,7.57,6.63,11.4,6.63a8.28,8.28,0,0,0,1.6-.14c3.68-.77,6.62-2.93,9.45-5,3.21-2.36,6.26-4.58,9.94-4.4a2,2,0,0,0,2.1-1.91,2,2,0,0,0-1.9-2.09,13.33,13.33,0,0,0-5.1.78,29.38,29.38,0,0,0-7.41,4.4c-2.6,1.92-5.06,3.73-7.89,4.32-1.91.4-7.65-1-8.32-3.57-.77-3,0-3.38,1.89-4.21,1.32-.59,3.32-1.47,3.64-3.84.24-1.8-1.2-3.26-3.38-5.46-2.67-2.7-6.33-6.4-6.19-10.43a4.17,4.17,0,0,1,2.46-3.93c3.11-1.55,8.17-.76,10.62,1a2,2,0,0,0,3.15-1.48c.21-2.75,1.48-5,3.24-5.7s3.71.4,4.94,1.5c3.6,3.24,7.75,12.75,9.8,18.92A46.13,46.13,0,0,0,103.39,119a2.05,2.05,0,0,0-1.71.92,1.89,1.89,0,0,0-.3.87.88.88,0,0,0,0,.17,2,2,0,0,0,2,2,43.51,43.51,0,0,1,19,5.84,35.58,35.58,0,0,1,5.68,4.19,2.34,2.34,0,0,0,.31.24A103.27,103.27,0,0,0,125,147a2,2,0,0,0,1.69,2.27l.29,0a2,2,0,0,0,2-1.71c0-.36,4.36-28.34,21.79-48.42q1.44,1.24,2.79,2.46C158.24,105.86,161.94,109.59,162.79,111.52Z" transform="translate(-83.3 -61.14)" fill="#5e4739"/><path d="M186.94,92.22c2.55-3.31,2.78-7.32.59-10.46a8.79,8.79,0,0,0-4.92-3.45,8.86,8.86,0,0,0,.88-4.88c-.42-4.64-3.82-8.86-7.91-9.81a8.64,8.64,0,0,0-7.68,2.09,6.34,6.34,0,0,0-3.2-3.7c-3.78-1.94-9.18-.53-12,3.14a39.76,39.76,0,0,0-5.33,10.69c-.6-3.06-1.45-6.33-3.93-8.75-2.82-2.73-5.47-3.66-7.89-2.76-2.9,1.08-4.26,4.46-4.9,7.32l-.19-.15c-2.81-2.23-8-6.39-12.66-.82-4.14,5-.26,11.81,3.11,15.46l-1,.63C117.69,88,115,89.59,115,92.44c-.06,2.29,1.66,4.5,5.4,7a3.12,3.12,0,0,0,1.73.48,13.88,13.88,0,0,0,4.9-1.51,15.86,15.86,0,0,1,3.19-1.15,13.21,13.21,0,0,1,8.31,1.8,2,2,0,0,0,2.75-2.72,2,2,0,0,0-.69-.71A17.24,17.24,0,0,0,130,93.21a14.83,14.83,0,0,0-4.6,1.48,19.79,19.79,0,0,1-3.12,1.17C119,93.64,119,92.58,119,92.54c0-.62,2-1.77,2.9-2.32,1.7-1,3.3-1.93,3.78-3.54a2,2,0,0,0-.64-2.11c-2.8-2.33-6.69-8.28-4.16-11.33,1.84-2.21,3.31-1.62,7.1,1.39a14.89,14.89,0,0,0,3.43,2.28,2,2,0,0,0,1.79-.15,2,2,0,0,0,.95-1.53c.38-4.34,1.72-6.75,2.8-7.15.81-.3,2.16.38,3.71,1.88,1.92,1.87,2.45,4.79,3,7.88.53,2.87,1.08,5.84,2.79,8.3v0a2,2,0,0,0,.19.22.27.27,0,0,1,.07.08,1.86,1.86,0,0,0,.28.21l0,0a1.94,1.94,0,0,0,1.3.29l.19,0h0l.14,0,.22-.08a1.55,1.55,0,0,0,.22-.12l.12-.06h0l.22-.19.08-.07.14-.18a1.92,1.92,0,0,0,.25-.44l0,0v0a1.73,1.73,0,0,0,.12-.51,1.69,1.69,0,0,0,0-.23.38.38,0,0,0,0-.1,1.53,1.53,0,0,0,0-.3h0c-.9-3.94,3-13.35,5.79-17,1.81-2.32,5.22-3,7.06-2a2.69,2.69,0,0,1,1.43,2.24,8,8,0,0,1-.36,2.9,1.45,1.45,0,0,0-.07.35,2,2,0,0,0,3.7,1.25c2.2-3.64,4.72-5.34,7.11-4.79s4.56,3.37,4.82,6.27c0,.11,0,.23,0,.35a4.45,4.45,0,0,1-1,3,4.57,4.57,0,0,1-1.78,1.31,2,2,0,0,0-.89.75,2.2,2.2,0,0,0-.3.87,2,2,0,0,0,2.57,2.13,5.28,5.28,0,0,1,6.08,1.8,4.13,4.13,0,0,1,.75,2v.1c0,.11,0,.22,0,.33a5.4,5.4,0,0,1-1.23,3.26c-.05.07-.11.13-.17.2-1.78,2-6.06,2.24-10.2,2.49s-7.76.46-10.33,2.18a2,2,0,0,0-.58.62,1.93,1.93,0,0,0-.27.7.81.81,0,0,0,0,.16,1.94,1.94,0,0,0,.37,1.37c2,2.74,6.07,3.33,10,3.9,3.7.53,7.53,1.09,8.87,3.25a5.82,5.82,0,0,1,1,2.65,2.69,2.69,0,0,1-.12,1,3.32,3.32,0,0,1-.71,1.1,13.39,13.39,0,0,1-5.14,2.82,2,2,0,0,0-1,.78,2,2,0,0,0-.32.91,2.16,2.16,0,0,0,0,.44,2,2,0,0,0,1.79,1.75c2.63.25,3.34,2.74,3.53,4.21,0,.32.06.64.07,1a8.16,8.16,0,0,1-1.64,5.24,3.18,3.18,0,0,1-1.23.91c-2.24.84-5.69-1.84-9.2-7.17a2,2,0,0,0-3.63.72,18.83,18.83,0,0,1-3.3,8.12l-.15.19-.15.19a6.2,6.2,0,0,1-1.66,1.34,5.76,5.76,0,0,1-5.13,0c-1.9-.77-1-7.37-.54-11.32a34.9,34.9,0,0,0,.49-7.72,2,2,0,0,0-1.7-1.73,2.34,2.34,0,0,0-.53,0,2,2,0,0,0-1.74,2.23,33,33,0,0,1-.49,6.72c-.82,6.38-1.75,13.61,3,15.53a11.52,11.52,0,0,0,4.35.93,8.62,8.62,0,0,0,4.19-1.07c3.19-1.73,5.07-5.23,6.17-8.43,4.9,5.91,8.83,6.22,11.4,5.27,4.25-1.58,5.94-7,5.38-11.39a9.47,9.47,0,0,0-2.59-5.6,8.94,8.94,0,0,0,4.24-4.57c.75-2.14.33-4.51-1.24-7-2.33-3.74-7.31-4.46-11.7-5.1-1.29-.19-2.6-.38-3.76-.64,1.33-.16,2.8-.25,4.25-.34C178.81,96.15,184.16,95.84,186.94,92.22Z" transform="translate(-83.3 -61.14)" fill="#5e4739"/></svg>