<svg xmlns="http://www.w3.org/2000/svg" viewBox="0 0 86.47 107.81"><title>Onion</title><path d="M143.9,126.1l-.12.05c-15.08,5.77-25.21,19.87-25.21,35.09,0,20.43,18,37.69,39.24,37.69S197,181.67,197,161.24c0-15.06-10-29.11-24.86-35-.41-.16-9.65-4-9.65-13.2a1.92,1.92,0,0,1,.38-1.16l-4.71-3.36C157.22,119.82,144.46,125.84,143.9,126.1Zm18.72,6.12a10.17,10.17,0,0,1,1.47.11,2,2,0,0,1,3.38-1.79,43.47,43.47,0,0,1,0,61.39,2,2,0,0,1-1.42.59,2,2,0,0,1-1.41-.59,2,2,0,0,1-.58-1.52,9.76,9.76,0,0,1-1.44.11Zm-7.1-4.7a2,2,0,0,1,4,0,6.45,6.45,0,0,1-2.1,4.81l-.16,8.17a2,2,0,0,1-.07,3.49l-.12,6.14a2,2,0,0,1-.07,3.69l-.3,14.74a2,2,0,0,1-.08,3.92l-.11,5.8a2,2,0,0,1-.08,4l-.12,6a2,2,0,0,1,0,4,31,31,0,0,1-31-31c0-14.57,11.51-27.67,26.76-30.46C152.15,130.76,155.52,130,155.52,127.52Z" transform="translate(-114.57 -105.18)" fill="#baa1b6"/><path d="M201,161.24c0-16.69-11-32.23-27.38-38.67-.29-.12-7.13-3-7.13-9.49a2,2,0,0,0-3.62-1.16,1.92,1.92,0,0,0-.38,1.16c0,9.25,9.24,13,9.65,13.2,14.87,5.85,24.86,19.9,24.86,35,0,20.43-18,37.69-39.23,37.69s-39.24-17.26-39.24-37.69c0-15.22,10.13-29.32,25.21-35.09l.12-.05c.56-.26,13.32-6.28,14.3-17.54,0-.45.07-.91.07-1.38a2,2,0,0,0-4,0c0,9.27-11.16,14.86-12,15.27-16.57,6.37-27.7,22-27.7,38.79,0,19.36,14.54,36.14,33.43,40.55l-4.33,4.33A2,2,0,1,0,146.5,209l6-6a1.92,1.92,0,0,0,.26-.32c1,.11,2,.21,3.05.25V211a2,2,0,0,0,4,0v-8.11c1,0,2-.14,3.05-.25a1.92,1.92,0,0,0,.26.32l6,6a2,2,0,0,0,1.41.59,2,2,0,0,0,1.42-3.42l-4.34-4.33C186.51,197.37,201,180.6,201,161.24Z" transform="translate(-114.57 -105.18)" fill="#5e4739"/><path d="M139.25,161.24a17,17,0,0,0,17,17l.24,0,.11-5.8a2,2,0,0,1-.35,0,11.28,11.28,0,0,1,0-22.55,2,2,0,0,1,.8.17l.12-6.14a1.94,1.94,0,0,1-.92.24A17,17,0,0,0,139.25,161.24Z" transform="translate(-114.57 -105.18)" fill="#e5c7b4"/><path d="M129.28,161.24a27,27,0,0,0,27,27h0l.12-6h-.16a21,21,0,1,1,0-42,2,2,0,0,1,1,.27l.16-8.17a9.77,9.77,0,0,1-4.64,2.38C139.37,137.16,129.28,148.57,129.28,161.24Z" transform="translate(-114.57 -105.18)" fill="#e5c7b4"/><path d="M149,161.24a7.28,7.28,0,0,0,7.27,7.27,2,2,0,0,1,.43.05l.3-14.74a2,2,0,0,1-.73.14A7.29,7.29,0,0,0,149,161.24Z" transform="translate(-114.57 -105.18)" fill="#e5c7b4"/><path d="M125.28,161.24a31,31,0,0,0,31,31,2,2,0,0,0,0-4h0a27,27,0,0,1-27-27c0-12.67,10.09-24.08,23.5-26.53a9.77,9.77,0,0,0,4.64-2.38,6.45,6.45,0,0,0,2.1-4.81,2,2,0,0,0-4,0c0,2.51-3.37,3.24-3.48,3.26C136.79,133.57,125.28,146.67,125.28,161.24Z" transform="translate(-114.57 -105.18)" fill="#5e4739"/><path d="M135.25,161.24a21,21,0,0,0,21,21h.16a2,2,0,0,0,.08-4l-.24,0a17,17,0,1,1,0-34,1.94,1.94,0,0,0,.92-.24,2,2,0,0,0,.07-3.49,2,2,0,0,0-1-.27A21,21,0,0,0,135.25,161.24Z" transform="translate(-114.57 -105.18)" fill="#5e4739"/><path d="M145,161.24a11.28,11.28,0,0,0,11.27,11.27,2,2,0,0,0,2-2,2,2,0,0,0-1.57-1.95,2,2,0,0,0-.43-.05,7.28,7.28,0,0,1,0-14.55,2,2,0,0,0,.73-.14,2,2,0,0,0-.73-3.86A11.28,11.28,0,0,0,145,161.24Z" transform="translate(-114.57 -105.18)" fill="#5e4739"/><path d="M164.64,189.11a39.47,39.47,0,0,0,0-55.74,1.93,1.93,0,0,1-.55-1,10.17,10.17,0,0,0-1.47-.11v58.3a9.76,9.76,0,0,0,1.44-.11A2,2,0,0,1,164.64,189.11Z" transform="translate(-114.57 -105.18)" fill="#e5c7b4"/><path d="M164.64,189.11a2,2,0,0,0,0,2.82,2,2,0,0,0,1.41.59,2,2,0,0,0,1.42-.59,43.47,43.47,0,0,0,0-61.39,2,2,0,0,0-3.38,1.79,1.93,1.93,0,0,0,.55,1A39.47,39.47,0,0,1,164.64,189.11Z" transform="translate(-114.57 -105.18)" fill="#5e4739"/></svg>