<svg xmlns="http://www.w3.org/2000/svg" viewBox="0 0 90.79 107.02"><title>Pepper</title><path d="M153.79,117.86c-.39,2.76-.78,5.58-1.18,8.2,1.71,1.19,3.45,2.39,5.26,3.51a14.15,14.15,0,0,1,3.34-4.2,1.7,1.7,0,0,1-.15-.45,18.28,18.28,0,0,1,.56-9.52,5.23,5.23,0,0,0,.39-2.75c-.68-2.46-4.47-2.89-7.07-2.85C154.55,112.37,154.17,115.15,153.79,117.86Z" transform="translate(-112.02 -105.79)" fill="#b08c7e"/><path d="M191.87,187.62a158.13,158.13,0,0,1,6.07-40.82c1.36-4.68,1.67-14.25-3.28-20-3.5-4-9.08-5.57-16.58-4.54-5.6.77-14.4,4.4-16.72,9.24a29.64,29.64,0,0,0,10.34,3.1,2,2,0,1,1-.42,4c-9.07-1-15.21-5.24-21.16-9.39l-.47-.33a2.08,2.08,0,0,1-.64-.44c-5.21-3.62-10.28-6.86-17.16-7.24-6.14-.33-11.71,2.19-13.86,6.28s-2,8.9-1.92,13.26c.12,7.32.06,14.26,0,21s-.11,13.73,0,21.08c.1,6.17,3.93,16,8.91,20,1.16.92,11.45,8.61,21.68.54a20.77,20.77,0,0,1-3.6-8.18,2,2,0,1,1,3.91-.82,16.52,16.52,0,0,0,9.52,12c7.7,3.69,17.59,2.87,21.49.89C186.52,202.83,191.7,195.53,191.87,187.62ZM135,139.17c-3,15.12-2.75,30-2,43.89a1.92,1.92,0,0,1-1.82,2h-.1a1.92,1.92,0,0,1-1.92-1.82c-.78-14.12-1.08-29.32,2.05-44.86a1.92,1.92,0,1,1,3.77.75Z" transform="translate(-112.02 -105.79)" fill="#e24b4b"/><path d="M197.69,124.2c-4.44-5.14-11.21-7.12-20.15-5.89a36.41,36.41,0,0,0-12.76,4.5,14.65,14.65,0,0,1,.68-6.3,8.59,8.59,0,0,0,.41-4.93c-1.16-4.2-5.71-6.23-12.8-5.71a2,2,0,0,0-1.83,1.69c-.48,3-1,6.45-1.41,9.75-.29,2.08-.59,4.2-.89,6.23-4.81-3.18-10-6-16.87-6.35-7.8-.43-14.71,2.88-17.62,8.42-2.55,4.86-2.45,10.58-2.38,15.18.12,7.28.06,14.19,0,20.87s-.11,13.78,0,21.18c.11,7.22,4.33,18.21,10.42,23,.94.75,6.76,5.11,14.23,5.11a19.74,19.74,0,0,0,12.63-4.72,22.8,22.8,0,0,0,5.41,3.61,32.74,32.74,0,0,0,13.9,2.94c4.63,0,8.73-.87,11.14-2.09,9.85-5,15.85-13.62,16.05-23a154.19,154.19,0,0,1,5.91-39.8C203.44,142.21,203.72,131.18,197.69,124.2Zm-41.18,82.07a16.52,16.52,0,0,1-9.52-12,2,2,0,1,0-3.91.82,20.77,20.77,0,0,0,3.6,8.18c-10.23,8.07-20.52.38-21.68-.54-5-3.95-8.81-13.81-8.91-20-.12-7.35-.06-14.33,0-21.08s.11-13.64,0-21c-.07-4.36-.15-9.31,1.92-13.26s7.72-6.61,13.86-6.28c6.88.38,12,3.62,17.16,7.24a2.08,2.08,0,0,0,.64.44l.47.33c5.95,4.15,12.09,8.43,21.16,9.39a2,2,0,1,0,.42-4,29.64,29.64,0,0,1-10.34-3.1c2.32-4.84,11.12-8.47,16.72-9.24,7.5-1,13.08.5,16.58,4.54,5,5.74,4.64,15.31,3.28,20a158.13,158.13,0,0,0-6.07,40.82c-.17,7.91-5.35,15.21-13.87,19.54C174.1,209.14,164.21,210,156.51,206.27Zm5.5-93.62a5.23,5.23,0,0,1-.39,2.75,18.28,18.28,0,0,0-.56,9.52,1.7,1.7,0,0,0,.15.45,14.15,14.15,0,0,0-3.34,4.2c-1.81-1.12-3.55-2.32-5.26-3.51.4-2.62.79-5.44,1.18-8.2s.76-5.49,1.15-8.06C157.54,109.76,161.33,110.19,162,112.65Z" transform="translate(-112.02 -105.79)" fill="#5e4739"/><path d="M133.45,136.91a1.92,1.92,0,0,0-2.26,1.51c-3.13,15.54-2.83,30.74-2.05,44.86a1.92,1.92,0,0,0,1.92,1.82h.1a1.92,1.92,0,0,0,1.82-2c-.77-13.86-1.06-28.77,2-43.89A1.92,1.92,0,0,0,133.45,136.91Z" transform="translate(-112.02 -105.79)" fill="#fff"/></svg>