<svg xmlns="http://www.w3.org/2000/svg" viewBox="0 0 84.75 107.27"><title>Avocado</title><path d="M132.72,137.63c-.19,1.16-2.2,12.65-8.11,22.3-5,8.19-8.48,25.73-1.94,37.34,4.14,7.36,11.63,11.09,22.27,11.09h.33c14.93,1.2,26.32-3.19,32.08-12.36,5.59-8.89,5.33-21.26-.66-31.51l-.05-.1a83.72,83.72,0,0,1-6.93-20c-.19-1-.33-2.25-.48-3.69-1.15-10.63-3.31-21.09-15.87-22h-.09a10.56,10.56,0,0,0-1.33,0,39.52,39.52,0,0,0,.06,4.16,2,2,0,0,1-1.87,2.12H150a2,2,0,0,1-2-1.87c-.08-1.39-.1-2.66-.08-3.85C142.94,120.47,135.83,124.66,132.72,137.63ZM148.18,149c1.55-.13,3,.67,4.47,2.37h0c5.4,6.46,13.53,22.56,8.82,32.26-1.58,3.24-5.28,7-14,7h-.92c-9.36-.28-12.85-4.9-14.14-8.74-3.23-9.65,4.23-24.2,13-31.38A4,4,0,0,1,148.18,149Z" transform="translate(-115.07 -105.45)" fill="#acd263"/><path d="M189.54,160.28c-3.46-5.63-5.85-11.62-8.88-19.21-1.55-3.9-3.32-8.32-5.46-13.27a15.19,15.19,0,0,0-10.43-8.9c6.75,5.72,7.83,15.72,8.44,21.36.14,1.36.27,2.53.43,3.38a80.45,80.45,0,0,0,6.54,18.88c6.7,11.51,6.92,25.48.56,35.61a28.22,28.22,0,0,1-9.81,9.4c10.51-1.92,17.77-6.17,21.66-12.72C199.13,183.76,194.35,168.1,189.54,160.28Z" transform="translate(-115.07 -105.45)" fill="#85986f"/><path d="M136.23,180.66c1.27,3.82,4.8,5.84,10.46,6,5.81.16,9.56-1.44,11.18-4.78,3.43-7.06-2.51-21-8.28-27.94a3.65,3.65,0,0,0-1-.9l-.15.33-.28.1C140.49,159.64,133.61,172.85,136.23,180.66Z" transform="translate(-115.07 -105.45)" fill="#ffeb8a"/><path d="M145.43,150.55c-8.77,7.18-16.23,21.73-13,31.38,1.29,3.84,4.78,8.46,14.14,8.74h.92c8.7,0,12.4-3.8,14-7,4.71-9.7-3.42-25.8-8.82-32.26h0c-1.42-1.7-2.92-2.5-4.47-2.37A4,4,0,0,0,145.43,150.55Zm3,2.83.15-.33a3.65,3.65,0,0,1,1,.9c5.77,6.91,11.71,20.88,8.28,27.94-1.62,3.34-5.37,4.94-11.18,4.78-5.66-.17-9.19-2.19-10.46-6-2.62-7.81,4.26-21,11.93-27.18Z" transform="translate(-115.07 -105.45)" fill="#5e4739"/><path d="M193,158.18c-3.29-5.33-5.62-11.18-8.57-18.59-1.57-3.93-3.34-8.38-5.51-13.38-6.33-14.58-23-12-25.49-11.57l-1,0a19,19,0,0,1,1.77-5.39,3.88,3.88,0,0,0,.56-1.78,2,2,0,0,0-4-.37l-.2.4a23.64,23.64,0,0,0-2.3,7.58c-6.12,1.24-15.64,5.78-19.43,21.71l0,.15c0,.12-1.92,11.66-7.59,20.92-5.32,8.69-9.64,27.86-2,41.4,3.37,6,10.57,13.12,25.75,13.12H145c1.7.13,3.36.2,5,.2h.13q3.19.15,6.18.15c20.13,0,33.48-5.33,39.72-15.88C204.05,183.29,197.52,165.63,193,158.18Zm-22,49.35a28.22,28.22,0,0,0,9.81-9.4c6.36-10.13,6.14-24.1-.56-35.61a80.45,80.45,0,0,1-6.54-18.88c-.16-.85-.29-2-.43-3.38-.61-5.64-1.69-15.64-8.44-21.36a15.19,15.19,0,0,1,10.43,8.9c2.14,5,3.91,9.37,5.46,13.27,3,7.59,5.42,13.58,8.88,19.21,4.81,7.82,9.59,23.48,3.05,34.53C188.7,201.36,181.44,205.61,170.93,207.53ZM148,123a2,2,0,0,0,2,1.87h.13a2,2,0,0,0,1.87-2.12,39.52,39.52,0,0,1-.06-4.16,10.56,10.56,0,0,1,1.33,0h.09c12.56.95,14.72,11.41,15.87,22,.15,1.44.29,2.68.48,3.69a83.72,83.72,0,0,0,6.93,20l.05.1c6,10.25,6.25,22.62.66,31.51-5.76,9.17-17.15,13.56-32.08,12.36h-.33c-10.64,0-18.13-3.73-22.27-11.09-6.54-11.61-3.08-29.15,1.94-37.34,5.91-9.65,7.92-21.14,8.11-22.3,3.11-13,10.22-17.16,15.2-18.47C147.9,120.35,147.92,121.62,148,123Z" transform="translate(-115.07 -105.45)" fill="#5e4739"/></svg>