<svg xmlns="http://www.w3.org/2000/svg" viewBox="0 0 126.28 85.17"><title>Coconut</title><path d="M176.34,137a69.56,69.56,0,0,0-12.59,1.11l-.24,0c-11.23,2.12-21.16,7.33-23,17C140.69,165,156.85,173,176.7,173c19.5,0,35.38-8,35.52-17.89C209.46,138.81,186.55,137,176.34,137Zm0,29.37c-14,0-28.84-4.17-28.84-11.9s14.86-11.9,28.84-11.9,28.84,4.17,28.84,11.9S190.32,166.34,176.34,166.34Z" transform="translate(-90.21 -112.04)" fill="#fff"/><path d="M136.19,158.46a21.15,21.15,0,0,1,.34-3.77c0-.06,0-.11,0-.16,1.81-9.67,10.34-16.72,23.49-19.82a35.28,35.28,0,0,0-7.25-7.77c-.29,1.2-.66,2.37-1,3.45a2,2,0,0,1-1.89,1.35,1.81,1.81,0,0,1-.65-.11,2,2,0,0,1-1.24-2.54,28.31,28.31,0,0,0,1.24-4.64,35.06,35.06,0,0,0-16.14-5.11c-.31.53-.62,1.08-.9,1.64a2,2,0,0,1-1.78,1.08,2,2,0,0,1-1.86-2.7,35.53,35.53,0,0,0-31.38,25.15,6.25,6.25,0,0,1,1.76,2.41,2,2,0,0,1-1.34,2.49,1.88,1.88,0,0,1-.57.09,2,2,0,0,1-1-.27,36.46,36.46,0,0,0-.48,5.85,36,36,0,0,0,3.3,15.08,3.62,3.62,0,0,1,2.5-.28,2,2,0,0,1-.57,3.92A35.29,35.29,0,0,0,131,190.9a34.92,34.92,0,0,0,18.15-5.09A36,36,0,0,1,136.19,158.46Zm-23.75-10.18h-.07a2,2,0,0,1-1.93-2.06c0-1-1.31-2.18-2.47-2.84a2,2,0,1,1,2-3.48c2.93,1.67,4.57,4,4.49,6.45A2,2,0,0,1,112.44,148.28ZM115.23,129a2,2,0,0,1,2.62-1.07,11.35,11.35,0,0,0,4.91.72,2,2,0,0,1,.25,4c-.33,0-.69,0-1.07,0a14.79,14.79,0,0,1-5.63-1A2,2,0,0,1,115.23,129Zm5.21,29.46h-.17a2,2,0,0,1-.16-4l.74-.06c2.2-.17,2.93-.27,3.63-1.19a2,2,0,0,1,2.81-.38,2,2,0,0,1,.38,2.8c-1.82,2.4-4.1,2.58-6.52,2.76Zm9.67,25.24a1.71,1.71,0,0,1-.11.14,5.34,5.34,0,0,1-4.28,1.74,10.71,10.71,0,0,1-3.16-.5,2,2,0,1,1,1.23-3.8,6.42,6.42,0,0,0,2.45.27,2,2,0,0,1,.4-.63,2,2,0,0,1,1.71-.62,2,2,0,0,1,1.89.88A2.1,2.1,0,0,1,130.11,183.67Zm.15-10.91a2,2,0,0,1-2.81.33c-.54-.42-1-.86-1.47-1.28a13.78,13.78,0,0,0-1.83-1.49,2,2,0,0,1,2.12-3.4,16.89,16.89,0,0,1,2.41,1.94c.4.37.81.75,1.24,1.09A2,2,0,0,1,130.26,172.76Zm4.34-32.58a2,2,0,0,1,1.35-2.49l.08,0a2,2,0,0,1,3.92.82,3.87,3.87,0,0,1-2.86,3,1.88,1.88,0,0,1-.57.09A2,2,0,0,1,134.6,140.18Z" transform="translate(-90.21 -112.04)" fill="#b08c7e"/><path d="M205.78,177.73a2,2,0,0,1,.87-3.8h0c.43,0,.89,0,1.35,0l.32,0a31.62,31.62,0,0,0,3.29-8.28c-6.52,6.91-19.42,11.41-35,11.41-15.78,0-29.16-4.74-35.77-11.82,3.22,14.38,16.57,25.4,32.87,26.44a2,2,0,0,1,3-2.56,4.09,4.09,0,0,1,1.33,2.61,37.89,37.89,0,0,0,20.35-6.94l-1.14-.95a2,2,0,1,1,2.57-3.06c.66.56,1.24,1,1.76,1.44A34.36,34.36,0,0,0,205.78,177.73Zm-40.47,4.84a11.44,11.44,0,0,1-4.55,1l-.83.07h-.2a2,2,0,0,1-2-1.81,2,2,0,0,1,1.8-2.18l.91-.08a8.65,8.65,0,0,0,3-.57,2,2,0,1,1,1.87,3.53Zm25,3a2,2,0,0,1-2,1.77h-.23a2,2,0,0,1-1.76-2.21,5.49,5.49,0,0,0-.6-1.35,2,2,0,1,1,3.42-2.07A6.94,6.94,0,0,1,190.3,185.53Z" transform="translate(-90.21 -112.04)" fill="#e5c7b4"/><path d="M176.34,146.54c-15.39,0-24.84,4.6-24.84,7.9s9.68,7.9,24.84,7.9,24.84-4.68,24.84-7.9S191.73,146.54,176.34,146.54Z" transform="translate(-90.21 -112.04)" fill="#e4e4e6"/><path d="M176.34,142.54c-14,0-28.84,4.17-28.84,11.9s14.86,11.9,28.84,11.9,28.84-4.17,28.84-11.9S190.32,142.54,176.34,142.54Zm24.84,11.9c0,3.22-9.68,7.9-24.84,7.9s-24.84-4.68-24.84-7.9,9.45-7.9,24.84-7.9S201.18,151.14,201.18,154.44Z" transform="translate(-90.21 -112.04)" fill="#5e4739"/><path d="M110,139.9a2,2,0,1,0-2,3.48c1.16.66,2.51,1.8,2.47,2.84a2,2,0,0,0,1.93,2.06h.07a2,2,0,0,0,2-1.93C114.52,143.92,112.88,141.57,110,139.9Z" transform="translate(-90.21 -112.04)" fill="#5e4739"/><path d="M123,132.61a2,2,0,0,0-.25-4,11.35,11.35,0,0,1-4.91-.72,2,2,0,1,0-1.54,3.69,14.79,14.79,0,0,0,5.63,1C122.32,132.64,122.68,132.63,123,132.61Z" transform="translate(-90.21 -112.04)" fill="#5e4739"/><path d="M137.09,141.52a3.87,3.87,0,0,0,2.86-3,2,2,0,0,0-3.92-.82l-.08,0a2,2,0,0,0,.57,3.92A1.88,1.88,0,0,0,137.09,141.52Z" transform="translate(-90.21 -112.04)" fill="#5e4739"/><path d="M127.67,155.61a2,2,0,0,0-.38-2.8,2,2,0,0,0-2.81.38c-.7.92-1.43,1-3.63,1.19l-.74.06a2,2,0,0,0,.16,4h.17l.71-.06C123.57,158.19,125.85,158,127.67,155.61Z" transform="translate(-90.21 -112.04)" fill="#5e4739"/><path d="M128.35,180.27a2,2,0,0,0-1.71.62,2,2,0,0,0-.4.63,6.42,6.42,0,0,1-2.45-.27,2,2,0,1,0-1.23,3.8,10.71,10.71,0,0,0,3.16.5,5.34,5.34,0,0,0,4.28-1.74,1.71,1.71,0,0,0,.11-.14,2.1,2.1,0,0,0,.13-2.52A2,2,0,0,0,128.35,180.27Z" transform="translate(-90.21 -112.04)" fill="#5e4739"/><path d="M129.92,170c-.43-.34-.84-.72-1.24-1.09a16.89,16.89,0,0,0-2.41-1.94,2,2,0,0,0-2.12,3.4,13.78,13.78,0,0,1,1.83,1.49c.46.42.93.86,1.47,1.28a2,2,0,1,0,2.47-3.14Z" transform="translate(-90.21 -112.04)" fill="#5e4739"/><path d="M163.44,179a8.65,8.65,0,0,1-3,.57l-.91.08a2,2,0,0,0-1.8,2.18,2,2,0,0,0,2,1.81h.2l.83-.07a11.44,11.44,0,0,0,4.55-1,2,2,0,1,0-1.87-3.53Z" transform="translate(-90.21 -112.04)" fill="#5e4739"/><path d="M214,174.77a6.94,6.94,0,0,0-1.3-.55,34.79,34.79,0,0,0,3.78-15.76,23.67,23.67,0,0,0-.28-3.61,2.2,2.2,0,0,0-.06-.37C213.82,140.93,199.31,133,176.34,133a76.12,76.12,0,0,0-12.07.91,39.8,39.8,0,0,0-10.89-11.48c0-.43,0-.86-.07-1.29a2,2,0,0,0-2.21-1.77,2,2,0,0,0-1.37.79,39,39,0,0,0-13.87-4.54,2,2,0,0,0-2.32-3.24,10.79,10.79,0,0,0-2.64,2.92,38.93,38.93,0,0,0-26.52,10.47,15.45,15.45,0,0,0-1.19-3.59A2,2,0,1,0,99.64,124a13.57,13.57,0,0,1,1,3.24,2,2,0,0,0,1,1.35,40.14,40.14,0,0,0-7.77,13.26l-.49-.34a2,2,0,1,0-2.27,3.29c.54.37,1.07.76,1.57,1.15a40.53,40.53,0,0,0-1.06,9.14,40,40,0,0,0,4.11,17.69c-.36.43-.65.81-.83,1.07a2,2,0,0,0,2.93,2.67A39.28,39.28,0,0,0,131,194.9a38.86,38.86,0,0,0,21.53-6.49,41.93,41.93,0,0,0,21,7.21,2,2,0,0,0,1,1.37,2.09,2.09,0,0,0,.93.23,2,2,0,0,0,1.77-1.08,3.1,3.1,0,0,0,.21-.45,41.78,41.78,0,0,0,24.33-8.45,5.78,5.78,0,0,0,2.83,1.28,1.74,1.74,0,0,0,.86-.25,2,2,0,0,0,1.11-1.91,2.22,2.22,0,0,0-1.5-1.94,38,38,0,0,0,5.49-6.54,3.78,3.78,0,0,1,1.46.38,2,2,0,0,0,2-3.49Zm-14.1,5.95a2,2,0,1,0-2.57,3.06l1.14.95a37.89,37.89,0,0,1-20.35,6.94,4.09,4.09,0,0,0-1.33-2.61,2,2,0,0,0-3,2.56c-16.3-1-29.65-12.06-32.87-26.44,6.61,7.08,20,11.82,35.77,11.82,15.53,0,28.43-4.5,35-11.41a31.62,31.62,0,0,1-3.29,8.28l-.32,0c-.46,0-.92,0-1.35,0h0a2,2,0,0,0-.87,3.8,34.36,34.36,0,0,1-4.11,4.43C201.15,181.75,200.57,181.28,199.91,180.72Zm-99.1-6.92a2,2,0,0,0,.57-3.92,3.62,3.62,0,0,0-2.5.28,36,36,0,0,1-3.3-15.08,36.46,36.46,0,0,1,.48-5.85,2,2,0,0,0,1,.27,1.88,1.88,0,0,0,.57-.09,2,2,0,0,0,1.34-2.49,6.25,6.25,0,0,0-1.76-2.41,35.53,35.53,0,0,1,31.38-25.15,2,2,0,0,0,3.64,1.62c.28-.56.59-1.11.9-1.64a35.06,35.06,0,0,1,16.14,5.11,28.31,28.31,0,0,1-1.24,4.64,2,2,0,0,0,1.24,2.54,1.81,1.81,0,0,0,.65.11,2,2,0,0,0,1.89-1.35c.37-1.08.74-2.25,1-3.45a35.28,35.28,0,0,1,7.25,7.77c-13.15,3.1-21.68,10.15-23.49,19.82,0,.05,0,.1,0,.16a21.15,21.15,0,0,0-.34,3.77,36,36,0,0,0,12.92,27.35A34.92,34.92,0,0,1,131,190.9,35.29,35.29,0,0,1,100.81,173.8Zm75.89-.8c-19.85,0-36-8-36.19-17.86,1.84-9.69,11.77-14.9,23-17l.24,0A69.56,69.56,0,0,1,176.34,137c10.21,0,33.12,1.84,35.88,18.14C212.08,165,196.2,173,176.7,173Z" transform="translate(-90.21 -112.04)" fill="#5e4739"/><path d="M186.41,181a2,2,0,0,0-.68,2.75,5.49,5.49,0,0,1,.6,1.35,2,2,0,0,0,1.76,2.21h.23a2,2,0,0,0,2-1.77,6.94,6.94,0,0,0-1.15-3.87A2,2,0,0,0,186.41,181Z" transform="translate(-90.21 -112.04)" fill="#5e4739"/></svg>