<svg xmlns="http://www.w3.org/2000/svg" viewBox="0 0 108.04 92.94"><title>Lemon</title><path d="M166.43,160.26c-4.45-2.16-8.59-4.36-12.13-6.34a70,70,0,0,0,1.16,12.75Z" transform="translate(-101.13 -108.06)" fill="#fff"/><path d="M183.12,182l-11-16.74-4.32,22C172.66,189.7,178.24,186.62,183.12,182Z" transform="translate(-101.13 -108.06)" fill="#fff"/><path d="M164.24,184.74l4.12-21-12,7C157.84,176,160.26,181.15,164.24,184.74Z" transform="translate(-101.13 -108.06)" fill="#fff"/><path d="M178.56,151.83a31.89,31.89,0,0,0-3.75-19.13,2,2,0,0,1-.08-1.82,6,6,0,0,0-8.22-8.21,2,2,0,0,1-1.82-.09c-13.44-7.7-32.79-3.69-46,9.55s-17.25,32.58-9.55,46a2,2,0,0,1,.09,1.82,6,6,0,0,0,8.21,8.21,2,2,0,0,1,1.82.08c9.15,5.25,21.27,5.23,32.51,0-10.06-13.82-10.08-33.75-9.73-40.68a3.22,3.22,0,0,1,1.74-2.76,3.09,3.09,0,0,1,3.11.11h0A233.18,233.18,0,0,0,178,161a61.79,61.79,0,0,0,1.47-7.34A2,2,0,0,1,178.56,151.83Zm-58.86-3.68a4.57,4.57,0,0,0-1,1.38,1.92,1.92,0,0,1-1.74,1.11,1.84,1.84,0,0,1-.82-.18,1.93,1.93,0,0,1-.93-2.56,8.33,8.33,0,0,1,2-2.62,1.92,1.92,0,1,1,2.56,2.87Zm31.59-18.84c-8.49,0-17.65,4.09-24.5,10.94a1.92,1.92,0,0,1-2.72-2.72c7.67-7.67,17.59-12.07,27.22-12.07a1.93,1.93,0,0,1,0,3.85Z" transform="translate(-101.13 -108.06)" fill="#ffeb8a"/><path d="M176.62,164.84,186,179.1a71.88,71.88,0,0,0,6.79-8.92A109.32,109.32,0,0,1,176.62,164.84Z" transform="translate(-101.13 -108.06)" fill="#fff"/><path d="M203.58,174.47c-3.33,5.93-9.69,15.69-18.05,21.42a46.66,46.66,0,0,0,18.2-9.58,4.25,4.25,0,0,0,1.44-3.22A19.22,19.22,0,0,0,203.58,174.47Z" transform="translate(-101.13 -108.06)" fill="#dabe92"/><path d="M163.88,194.05a15.68,15.68,0,0,0,12.76,1.78c11.56-3.3,20.83-18.51,24-24.34-1.21-.11-2.44-.27-3.7-.47-2.91,4.71-13.9,21.17-25.47,21.17a12.06,12.06,0,0,1-6.09-1.66c-15.31-8.8-15.31-33-15.07-38.87-1.7-1-3.17-1.88-4.37-2.61C145.65,158.5,146.53,184,163.88,194.05Z" transform="translate(-101.13 -108.06)" fill="#ffeb8a"/><path d="M203.6,168.12l-.06,0-.17-.09-.17-.08a3.18,3.18,0,0,0-1.2-.34c-7.2-.44-15.77-3.13-24-6.54a233.18,233.18,0,0,1-31.12-16.12h0a3.09,3.09,0,0,0-3.11-.11,3.22,3.22,0,0,0-1.74,2.76c-.35,6.93-.33,26.86,9.73,40.68-11.24,5.25-23.36,5.27-32.51,0a2,2,0,0,0-1.82-.08,6,6,0,0,1-8.21-8.21,2,2,0,0,0-.09-1.82c-7.7-13.45-3.69-32.8,9.55-46s32.58-17.25,46-9.55a2,2,0,0,0,1.82.09,6,6,0,0,1,8.22,8.21,2,2,0,0,0,.08,1.82,31.89,31.89,0,0,1,3.75,19.13,2,2,0,0,0,.9,1.87,2,2,0,0,0,.89.32,2,2,0,0,0,2.19-1.79,36.15,36.15,0,0,0-3.78-20.66,10.5,10.5,0,0,0-.63-8.63,14.57,14.57,0,0,0,2.08-1.58c1.44,7.66,4.63,13.56,9.53,17.54a25.24,25.24,0,0,0,15.68,5.43c1,0,1.54-.06,1.64-.07a2,2,0,0,0,1.78-2.06c-.34-9.69-3.32-17-8.86-21.78a25.44,25.44,0,0,0-15.51-5.75,18.92,18.92,0,0,0,1-4.47,2,2,0,0,0-4-.3c0,.3-.64,7-6.06,10a10.35,10.35,0,0,0-9.63-1.25c-15.13-8.09-35.54-3.79-50,10.66s-18.75,34.85-10.66,50a9.95,9.95,0,0,0,12.93,12.93,35.19,35.19,0,0,0,16.59,4,44.62,44.62,0,0,0,19.12-4.49,2.08,2.08,0,0,0,.48-.34,32.26,32.26,0,0,0,7.57,6.14,21.76,21.76,0,0,0,6.78,2.6h0a38.1,38.1,0,0,0,8.12.88c14.08,0,25-7.82,29.51-11.65a8.23,8.23,0,0,0,2.85-6.2C209.34,172.06,203.83,168.28,203.6,168.12Zm-49.3-14.2c3.54,2,7.68,4.18,12.13,6.34l-11,6.41A70,70,0,0,1,154.3,153.92Zm14.06,9.85-4.12,21c-4-3.59-6.4-8.76-7.84-14Zm3.78,1.52,11,16.74c-4.88,4.59-10.46,7.67-15.3,5.24Zm4.48-.45a109.32,109.32,0,0,0,16.15,5.34A71.88,71.88,0,0,1,186,179.1ZM146,149.05c1.2.73,2.67,1.62,4.37,2.61-.24,5.88-.24,30.07,15.07,38.87a12.06,12.06,0,0,0,6.09,1.66c11.57,0,22.56-16.46,25.47-21.17,1.26.2,2.49.36,3.7.47-3.19,5.83-12.46,21-24,24.34a15.68,15.68,0,0,1-12.76-1.78C146.53,184,145.65,158.5,146,149.05Zm39.57,46.84c8.36-5.73,14.72-15.49,18.05-21.42a19.22,19.22,0,0,1,1.59,8.62,4.25,4.25,0,0,1-1.44,3.22A46.66,46.66,0,0,1,185.53,195.89Zm11.87-72.41c4.26,3.68,6.72,9.33,7.32,16.83a21.26,21.26,0,0,1-12.5-4.55c-4.51-3.69-7.33-9.43-8.41-17.09C186.83,118.73,192.7,119.42,197.4,123.48Z" transform="translate(-101.13 -108.06)" fill="#5e4739"/><path d="M151.29,125.46c-9.63,0-19.55,4.4-27.22,12.07a1.92,1.92,0,1,0,2.72,2.72c6.85-6.85,16-10.94,24.5-10.94a1.93,1.93,0,0,0,0-3.85Z" transform="translate(-101.13 -108.06)" fill="#fff"/><path d="M192.22,135.76a21.26,21.26,0,0,0,12.5,4.55c-.6-7.5-3.06-13.15-7.32-16.83-4.7-4.06-10.57-4.75-13.59-4.81C184.89,126.33,187.71,132.07,192.22,135.76Z" transform="translate(-101.13 -108.06)" fill="#acd263"/><path d="M117.14,145.28a8.33,8.33,0,0,0-2,2.62,1.93,1.93,0,0,0,.93,2.56,1.84,1.84,0,0,0,.82.18,1.92,1.92,0,0,0,1.74-1.11,4.57,4.57,0,0,1,1-1.38,1.92,1.92,0,1,0-2.56-2.87Z" transform="translate(-101.13 -108.06)" fill="#fff"/></svg>