<svg xmlns="http://www.w3.org/2000/svg" viewBox="0 0 109.44 107.8"><title>Mango</title><path d="M153.19,121c-.93,0-1.83,0-2.7.07a2,2,0,0,1-.38.75,45.18,45.18,0,0,1-8.34,7.74,38.24,38.24,0,0,1,10-2.4A34.86,34.86,0,0,1,153.19,121Z" transform="translate(-102.74 -105.32)" fill="none"/><path d="M176.78,136.77c7.75,10.72,3.31,27,1.85,32.38a56.89,56.89,0,0,0-2.6,17.67c12.5,4.9,23.72,2.2,29-2.54,2.59-2.34,3.65-5.05,2.91-7.45a18,18,0,0,0-2.84-6c-2.1-3-3.45-5.55-4.95-20.65-.81-8.3-3.83-14.42-9-18.21-8.77-6.47-20.9-4.11-21-4.08a2.48,2.48,0,0,1-.27,0l.2,2.94A20.5,20.5,0,0,1,176.78,136.77Z" transform="translate(-102.74 -105.32)" fill="#acd263"/><path d="M211.76,175.65a21.44,21.44,0,0,0-3.4-7.11c-1.48-2.1-2.76-3.91-4.22-18.74-.94-9.46-4.49-16.54-10.57-21-10.18-7.52-23.62-4.9-24.19-4.79a2,2,0,0,0,.53,4,2.48,2.48,0,0,0,.27,0c.12,0,12.25-2.39,21,4.08,5.12,3.79,8.14,9.91,9,18.21,1.5,15.1,2.85,17.69,4.95,20.65a18,18,0,0,1,2.84,6c.74,2.4-.32,5.11-2.91,7.45-5.28,4.74-16.5,7.44-29,2.54a56.89,56.89,0,0,1,2.6-17.67c1.46-5.36,5.9-21.66-1.85-32.38a20.5,20.5,0,0,0-6.67-5.89,33,33,0,0,0-14.24-3.82c1.87-12,9.59-17.82,10-18.13a2,2,0,1,0-2.35-3.23A30.8,30.8,0,0,0,154.77,117c-1.52,0-3,0-4.36.07a2.08,2.08,0,0,0-.81-1A26.64,26.64,0,0,0,129.75,114c-10.3,2.87-19.31,11.56-26.78,25.85a2,2,0,0,0,1.77,2.92h.18a88.52,88.52,0,0,0,28.14-8,27.1,27.1,0,0,0-3.34,3.49c-6.7,8.45-8,20.83-3.85,36.79,6.93,26.68,21.68,38.06,34.2,38.06a21.58,21.58,0,0,0,2.8-.19c8.11-1.14,13.44-7.09,13.25-14.81-.06-2.65-.1-5-.11-7a39.63,39.63,0,0,0,13.27,2.38c7.85,0,14.39-2.59,18.42-6.22C211.51,183.83,213,179.6,211.76,175.65ZM162.31,209c-11.28,1.59-25.73-8.6-32.57-34.91-3.81-14.66-2.77-25.85,3.1-33.27,5.43-6.88,13.89-8.92,18.64-9.52a41,41,0,0,0,.32,6.43,2,2,0,0,0,2,1.75,1.1,1.1,0,0,0,.25,0,2,2,0,0,0,1.74-2.23,37.42,37.42,0,0,1-.28-6.15c8.49.55,14.56,3.26,18,8.07,6.63,9.17,2.57,24.09,1.24,29-2.4,8.83-3.08,12.18-2.64,30.12C172.26,203.81,168.32,208.12,162.31,209Zm-31.57-91.05A23.29,23.29,0,0,1,137,117a23.74,23.74,0,0,1,6.14.81c-11,1.86-16.35,6.14-16.64,6.37a2,2,0,0,0,1.27,3.55,2.06,2.06,0,0,0,1.26-.44c.06-.06,5.24-4.1,15.84-5.69-11,11.25-28.73,15.34-36.49,16.64C114.91,127.11,122.41,120.26,130.74,117.91Zm19.37,3.93a2,2,0,0,0,.38-.75c.87,0,1.77-.07,2.7-.07a34.86,34.86,0,0,0-1.39,6.16,38.24,38.24,0,0,0-10,2.4A45.18,45.18,0,0,0,150.11,121.84Z" transform="translate(-102.74 -105.32)" fill="#5e4739"/><path d="M174.77,168.1c1.33-4.9,5.39-19.82-1.24-29-3.48-4.81-9.55-7.52-18-8.07a37.42,37.42,0,0,0,.28,6.15,2,2,0,0,1-1.74,2.23,1.1,1.1,0,0,1-.25,0,2,2,0,0,1-2-1.75,41,41,0,0,1-.32-6.43c-4.75.6-13.21,2.64-18.64,9.52-5.87,7.42-6.91,18.61-3.1,33.27,6.84,26.31,21.29,36.5,32.57,34.91,6-.84,9.95-5.15,9.82-10.74C171.69,180.28,172.37,176.93,174.77,168.1Zm-34.41-18.73c-5.12,13.22-.81,21.16-.62,21.49a1.93,1.93,0,0,1-.72,2.62,2,2,0,0,1-1,.25,1.91,1.91,0,0,1-1.66-1c-.23-.39-5.46-9.75.37-24.79a1.92,1.92,0,0,1,3.59,1.39Z" transform="translate(-102.74 -105.32)" fill="#ffeb8a"/><path d="M144.91,121.64c-10.6,1.59-15.78,5.63-15.84,5.69a2.06,2.06,0,0,1-1.26.44,2,2,0,0,1-1.27-3.55c.29-.23,5.67-4.51,16.64-6.37A23.74,23.74,0,0,0,137,117a23.29,23.29,0,0,0-6.3.87c-8.33,2.35-15.83,9.2-22.32,20.37C116.18,137,133.88,132.89,144.91,121.64Z" transform="translate(-102.74 -105.32)" fill="#6aaa95"/><path d="M139.26,146.88a1.93,1.93,0,0,0-2.49,1.1c-5.83,15-.6,24.4-.37,24.79a1.91,1.91,0,0,0,1.66,1,2,2,0,0,0,1-.25,1.93,1.93,0,0,0,.72-2.62c-.19-.33-4.5-8.27.62-21.49A1.92,1.92,0,0,0,139.26,146.88Z" transform="translate(-102.74 -105.32)" fill="#fff"/></svg>