<svg xmlns="http://www.w3.org/2000/svg" viewBox="0 0 84.72 106.69"><title>Acorn</title><path d="M155.21,108.19c-.21,1-.45,2.12-.79,3.38,3.38.23,6.83.54,10.18.91.06-3.51,1.68-7.53,3-10.09a16.24,16.24,0,0,0-7.92-1.35C156.27,103.17,156,104.69,155.21,108.19Z" transform="translate(-113.79 -96.98)" fill="#95847b"/><path d="M186.7,141.67a8.87,8.87,0,0,1-5.86,2.17,8.1,8.1,0,0,1-4.82-2.2,5.1,5.1,0,0,0-2.79-1.47,8.44,8.44,0,0,0-3.49,1.16,11.6,11.6,0,0,1-5.67,1.57c-1.92-.13-3.63-1.36-5.29-2.54a9.25,9.25,0,0,0-3.14-1.77c-.66-.08-2.3.81-3.39,1.38-1.91,1-3.72,1.93-5.46,1.77s-3.52-1.47-5.23-2.72a12.65,12.65,0,0,0-2.9-1.8c-.78-.1-2.3.65-3.53,1.25-1.83.89-3.55,1.73-5.26,1.47s-3.24-1.64-4.72-3a11.94,11.94,0,0,0-1.86-1.49l-.35,0a1.82,1.82,0,0,1-.15.23c-7,8.35-6.07,26.94-.75,39.07,4.86,11.09,18.62,21.75,26.74,24.85,7.67-1.81,29.18-9.7,37.95-24.84,5.26-9.08,6.81-25.1,3.31-33.75a5.11,5.11,0,0,0-1.23-.33C188.22,140.6,187.76,140.88,186.7,141.67Zm-49,34.42a1.9,1.9,0,0,1-2.68-.46,38.23,38.23,0,0,1-6.37-25.36,1.93,1.93,0,0,1,3.84.36,34.24,34.24,0,0,0,5.67,22.78A1.92,1.92,0,0,1,137.67,176.09Z" transform="translate(-113.79 -96.98)" fill="#95847b"/><path d="M186,120.84c-6.14-3.56-44.7-7.62-54.53-4.89-4.83,1.34-9.29,6.84-11.38,11.38a13.6,13.6,0,0,0-1.43,5.15,9.71,9.71,0,0,1,5.57-.88,8.92,8.92,0,0,1,3.61,2.4,10.45,10.45,0,0,0,2.67,2,10.68,10.68,0,0,0,2.88-1.11c1.88-.92,3.81-1.87,5.77-1.63,1.55.18,3.12,1.33,4.78,2.54,1,.75,2.6,1.9,3.26,2a11,11,0,0,0,3.22-1.33c1.85-1,3.75-2,5.57-1.82s3.52,1.35,5.14,2.51c1.14.81,2.44,1.74,3.23,1.8a8.81,8.81,0,0,0,3.67-1.19,12.11,12.11,0,0,1,5.12-1.55h.31a8.77,8.77,0,0,1,5.06,2.33,4.72,4.72,0,0,0,2.46,1.35,5,5,0,0,0,3.36-1.4,6.6,6.6,0,0,1,5-1.74,13.22,13.22,0,0,1,5,2C193.59,133.57,190.57,123.51,186,120.84Z" transform="translate(-113.79 -96.98)" fill="#deb198"/><path d="M188,117.38c-2.91-1.69-10.52-3.27-19.38-4.42-.15-3.08,1.89-7.9,3.42-10.35a2,2,0,0,0-.69-2.79,20.51,20.51,0,0,0-12.57-2.71,1.9,1.9,0,0,0-.8.27c-5.23,3.16-5.87,6.17-6.67,10-.25,1.17-.53,2.48-1,4-8.6-.42-16.25-.26-20,.76-6.09,1.69-11.4,8-13.94,13.57-1.09,2.36-2.69,6.8-1.19,10a2,2,0,0,0,.58.73,2.5,2.5,0,0,0,1.4.52c-5.43,10.6-4,27.8,1.15,39.44,5.61,12.81,21.07,24.22,29.6,27.22a2.12,2.12,0,0,0,.66.11,2.1,2.1,0,0,0,.43-.05c8.13-1.75,31.36-10,41.12-26.87,5.1-8.8,7-23,4.83-33a3.44,3.44,0,0,0,1.2.25,2.46,2.46,0,0,0,1.22-.33,2,2,0,0,0,1-1.33C199.22,138.47,195.36,121.66,188,117.38Zm-1.26,57.38c-8.77,15.14-30.28,23-37.95,24.84-8.12-3.1-21.88-13.76-26.74-24.85-5.32-12.13-6.29-30.72.75-39.07a1.82,1.82,0,0,0,.15-.23l.35,0a11.94,11.94,0,0,1,1.86,1.49c1.48,1.32,3,2.69,4.72,3s3.43-.58,5.26-1.47c1.23-.6,2.75-1.35,3.53-1.25a12.65,12.65,0,0,1,2.9,1.8c1.71,1.25,3.49,2.54,5.23,2.72s3.55-.78,5.46-1.77c1.09-.57,2.73-1.46,3.39-1.38a9.25,9.25,0,0,1,3.14,1.77c1.66,1.18,3.37,2.41,5.29,2.54a11.6,11.6,0,0,0,5.67-1.57,8.44,8.44,0,0,1,3.49-1.16,5.1,5.1,0,0,1,2.79,1.47,8.1,8.1,0,0,0,4.82,2.2,8.87,8.87,0,0,0,5.86-2.17c1.06-.79,1.52-1.07,2.11-1A5.11,5.11,0,0,1,190,141C193.54,149.66,192,165.68,186.73,174.76Zm2.63-38a6.6,6.6,0,0,0-5,1.74,5,5,0,0,1-3.36,1.4,4.72,4.72,0,0,1-2.46-1.35,8.77,8.77,0,0,0-5.06-2.33h-.31a12.11,12.11,0,0,0-5.12,1.55,8.81,8.81,0,0,1-3.67,1.19c-.79-.06-2.09-1-3.23-1.8-1.62-1.16-3.29-2.35-5.14-2.51s-3.72.86-5.57,1.82a11,11,0,0,1-3.22,1.33c-.66-.06-2.23-1.21-3.26-2-1.66-1.21-3.23-2.36-4.78-2.54-2-.24-3.89.71-5.77,1.63a10.68,10.68,0,0,1-2.88,1.11,10.45,10.45,0,0,1-2.67-2,8.92,8.92,0,0,0-3.61-2.4,9.71,9.71,0,0,0-5.57.88,13.6,13.6,0,0,1,1.43-5.15c2.09-4.54,6.55-10,11.38-11.38,9.83-2.73,48.39,1.33,54.53,4.89,4.59,2.67,7.61,12.73,8.37,17.91A13.22,13.22,0,0,0,189.36,136.71Zm-21.78-34.32c-1.3,2.56-2.92,6.58-3,10.09-3.35-.37-6.8-.68-10.18-.91.34-1.26.58-2.37.79-3.38.74-3.5,1.06-5,4.45-7.15A16.24,16.24,0,0,1,167.58,102.39Z" transform="translate(-113.79 -96.98)" fill="#5e4739"/><path d="M132.46,150.63a1.93,1.93,0,0,0-3.84-.36A38.23,38.23,0,0,0,135,175.63a1.92,1.92,0,0,0,3.14-2.22A34.24,34.24,0,0,1,132.46,150.63Z" transform="translate(-113.79 -96.98)" fill="#fff"/></svg>