<svg xmlns="http://www.w3.org/2000/svg" viewBox="0 0 103.63 110.33"><title>Honey</title><path d="M109.91,109.27,149.23,125l4-10L113.89,99.29a2.92,2.92,0,0,0-3.79,1.63l-1.82,4.56A2.92,2.92,0,0,0,109.91,109.27Z" transform="translate(-104.07 -95.08)" fill="#b08c7e"/><path d="M172.08,112.58l-9.24,23.16a26.73,26.73,0,0,1,7.5,4.5l11.2-28.08a1.89,1.89,0,0,0,0-1.44,1.86,1.86,0,0,0-1-1L176,107.91a1.92,1.92,0,0,0-1.45,0,1.86,1.86,0,0,0-1,1l-1.43,3.58Z" transform="translate(-104.07 -95.08)" fill="#deb198"/><path d="M187.7,112.59a1.89,1.89,0,0,0-2.45,1.06L173.56,143c1.75.62,4.21.07,6.17-.78a24.84,24.84,0,0,1,4-1.31l8.14-20.42,0,0,1.42-3.58a1.9,1.9,0,0,0-1.05-2.46Z" transform="translate(-104.07 -95.08)" fill="#deb198"/><path d="M151.12,137.76c.31-.27.62-.55.95-.81a9.66,9.66,0,0,1,6.82-2.09l8.91-22.35v0l.56-1.41a1.88,1.88,0,0,0-1.06-2.44l-4.51-1.8a1.89,1.89,0,0,0-2.45,1.06L149.54,135a1.9,1.9,0,0,0,1.05,2.46A1.87,1.87,0,0,1,151.12,137.76Z" transform="translate(-104.07 -95.08)" fill="#deb198"/><path d="M198.45,145.8c-2.85-2.11-11.13-2.56-17.12.06-5.36,2.34-10.14,1.7-12.54-1.66-.86-.8-5.94-5.35-10.57-5.35a5.74,5.74,0,0,0-3.67,1.24c-2.87,2.27-4.12,5-3.42,7.59a6.33,6.33,0,0,0,5.38,4.41c1.07.15,2.25.23,3.49.32,5.26.36,12.46.87,13,8.49.11,1.53.27,3,.43,4.47.6,5.58,1.17,10.84-1.8,16.23-2.31,4.18-4.41,12-1.85,16.36,1.36,2.29,4,3.45,7.92,3.45.86,0,7.76-.08,8.31-9.61a19.12,19.12,0,0,0-4.05-10.52c-4.54-5.36-1.57-11.77-.55-13.6,1.95-3.52,5.95-5.16,9.82-6.75,3.51-1.44,6.83-2.8,8.37-5.31C202.36,151,200.71,147.46,198.45,145.8Z" transform="translate(-104.07 -95.08)" fill="#ffeb8a"/><path d="M198,120.88a1.89,1.89,0,0,0-2.44,1l-.73,1.82h0l-6.54,16.4a25.28,25.28,0,0,1,9,.77l6.29-15.78a1.87,1.87,0,0,0,0-1.45,1.92,1.92,0,0,0-1-1Z" transform="translate(-104.07 -95.08)" fill="#deb198"/><path d="M207.22,122.11A5.83,5.83,0,0,0,204,119l-4.52-1.8a5.58,5.58,0,0,0-2.11-.41,5.89,5.89,0,0,0-3.67-6.08l-4.52-1.81a5.83,5.83,0,0,0-4.17-.05,5.8,5.8,0,0,0-3-2.82l-4.51-1.8a5.9,5.9,0,0,0-6.85,1.88,5.83,5.83,0,0,0-1.81-1.15l-4.52-1.8a5.89,5.89,0,0,0-7.65,3.29l-1.93,4.83L115.37,95.57a6.91,6.91,0,0,0-9,3.86L104.56,104a6.92,6.92,0,0,0,3.87,9l39.32,15.68-1.93,4.84a5.89,5.89,0,0,0,2.7,7.37,9.8,9.8,0,0,0-1.25,7.86,10.31,10.31,0,0,0,8.68,7.32c1.22.17,2.52.26,3.77.35,6.1.42,9,1,9.25,4.77.11,1.61.28,3.15.44,4.64.56,5.14,1,9.58-1.33,13.86-2.67,4.84-5.36,14.25-1.78,20.32,1.46,2.47,4.61,5.42,11.27,5.42h.1c1.12,0,11.6-.36,12.3-13.49a.81.81,0,0,0,0-.16,23,23,0,0,0-5-13.06c-2.8-3.32-1-7.46-.1-9.08,1.27-2.29,4.46-3.6,7.84-5,3.95-1.62,8-3.29,10.26-6.93,3.92-6.4,1.79-12.17-2.07-15.07l6.38-16A5.79,5.79,0,0,0,207.22,122.11Zm-16,38.82c-3.87,1.59-7.87,3.23-9.82,6.75-1,1.83-4,8.24.55,13.6A19.12,19.12,0,0,1,186,191.8c-.55,9.53-7.45,9.64-8.31,9.61-3.9,0-6.56-1.16-7.92-3.45-2.56-4.35-.46-12.18,1.85-16.36,3-5.39,2.4-10.65,1.8-16.23-.16-1.44-.32-2.94-.43-4.47-.5-7.62-7.7-8.13-13-8.49-1.24-.09-2.42-.17-3.49-.32a6.33,6.33,0,0,1-5.38-4.41c-.7-2.56.55-5.32,3.42-7.59a5.74,5.74,0,0,1,3.67-1.24c4.63,0,9.71,4.55,10.57,5.35,2.4,3.36,7.18,4,12.54,1.66,6-2.62,14.27-2.17,17.12-.06,2.26,1.66,3.91,5.24,1.11,9.82C198,158.13,194.7,159.49,191.19,160.93Zm-82.91-55.45,1.82-4.56a2.92,2.92,0,0,1,3.79-1.63L153.21,115l-4,10-39.32-15.68A2.92,2.92,0,0,1,108.28,105.48ZM149.54,135l10.8-27.08a1.89,1.89,0,0,1,2.45-1.06l4.51,1.8a1.88,1.88,0,0,1,1.06,2.44l-.56,1.41v0l-8.91,22.35a9.66,9.66,0,0,0-6.82,2.09c-.33.26-.64.54-.95.81a1.87,1.87,0,0,0-.53-.32A1.9,1.9,0,0,1,149.54,135Zm25-27a1.92,1.92,0,0,1,1.45,0l4.51,1.81a1.86,1.86,0,0,1,1,1,1.89,1.89,0,0,1,0,1.44l-11.2,28.08a26.73,26.73,0,0,0-7.5-4.5l9.24-23.16v0l1.43-3.58A1.86,1.86,0,0,1,174.52,107.93Zm18.75,8.92-1.42,3.58,0,0-8.14,20.42a24.84,24.84,0,0,0-4,1.31c-2,.85-4.42,1.4-6.17.78l11.69-29.32a1.89,1.89,0,0,1,2.45-1.06l4.52,1.8A1.9,1.9,0,0,1,193.27,116.85Zm10.28,6.84a1.87,1.87,0,0,1,0,1.45l-6.29,15.78a25.28,25.28,0,0,0-9-.77l6.54-16.4h0l.73-1.82a1.89,1.89,0,0,1,2.44-1l4.52,1.8A1.92,1.92,0,0,1,203.55,123.69Z" transform="translate(-104.07 -95.08)" fill="#5e4739"/></svg>