<svg xmlns="http://www.w3.org/2000/svg" viewBox="0 0 90.15 73.84"><title>Mayonnaise</title><path d="M195.93,151.39c-3.25-11.76-20.17-21.91-33.93-24-8.22-1.26-13.4-4-15.38-8a8.07,8.07,0,0,1-.73-2.32c-3.38,6.46-3,10.31-2.69,11.76.77,3.16,4,4,8.51,4.95l.67.13c1.34.28,2.93.5,4.61.74,8,1.13,18.88,2.68,20.07,12.38a2,2,0,0,1-1.74,2.23l-.25,0a2,2,0,0,1-2-1.76c-.76-6.17-7.69-7.63-16.67-8.91-1.74-.25-3.38-.48-4.84-.78l-.66-.13c-4.3-.87-10.18-2-11.6-7.93-.51-2.07-.75-6.08,1.83-12.06-6.1,3.29-13.22,8.85-11.61,16.41,2.52,11.84,16.38,18.51,37.07,17.81h.07a2,2,0,0,1,.07,4c-21.12.72-35.83-6-40.25-18-4.17,3.55-12.61,11.87-12.16,20.64.29,5.66,4.34,10.77,12,15.17,28.83,16.47,60.8-3.89,62.55-5C195.29,163.4,197.64,157.59,195.93,151.39Zm-19.24,11.68c-5.07,7-16.87,10.18-26.94,10.18-5.2,0-9.94-.86-13-2.51-11-5.87-11.28-13.29-10.26-19.09a2,2,0,1,1,3.93.69c-1,5.76,0,10.5,8.21,14.86,8.38,4.46,28.9,1.71,34.87-6.48a2,2,0,1,1,3.23,2.35Z" transform="translate(-110.32 -110.27)" fill="#f4eeb8"/><path d="M199.79,150.33c-3.78-13.69-22.25-24.62-37.19-26.9-8.48-1.3-11.4-3.87-12.36-5.8a5.11,5.11,0,0,1,0-4.38,2,2,0,0,0-2.33-2.89c-1,.32-24.49,7.82-22.54,23.25-3.65,2.86-15.67,13.21-15.07,25.13.36,7.11,5.09,13.32,14.06,18.44A53,53,0,0,0,151,184.11c21.91,0,40-12,40.23-12.17l.15-.11C201,163.87,201.28,155.74,199.79,150.33Zm-73.4,23.38c-7.71-4.4-11.76-9.51-12-15.17-.45-8.77,8-17.09,12.16-20.64,4.42,12,19.13,18.68,40.25,18a2,2,0,0,0-.07-4h-.07c-20.69.7-34.55-6-37.07-17.81-1.61-7.56,5.51-13.12,11.61-16.41-2.58,6-2.34,10-1.83,12.06,1.42,5.88,7.3,7.06,11.6,7.93l.66.13c1.46.3,3.1.53,4.84.78,9,1.28,15.91,2.74,16.67,8.91a2,2,0,0,0,2,1.76l.25,0a2,2,0,0,0,1.74-2.23c-1.19-9.7-12.11-11.25-20.07-12.38-1.68-.24-3.27-.46-4.61-.74l-.67-.13c-4.5-.91-7.74-1.79-8.51-4.95-.35-1.45-.69-5.3,2.69-11.76a8.07,8.07,0,0,0,.73,2.32c2,4.09,7.16,6.79,15.38,8,13.76,2.1,30.68,12.25,33.93,24,1.71,6.2-.64,12-7,17.29C187.19,169.82,155.22,190.18,126.39,173.71Z" transform="translate(-110.32 -110.27)" fill="#5e4739"/><path d="M176.25,160.28a2,2,0,0,0-2.79.44c-6,8.19-26.49,10.94-34.87,6.48-8.21-4.36-9.22-9.1-8.21-14.86a2,2,0,1,0-3.93-.69c-1,5.8-.77,13.22,10.26,19.09,3.1,1.65,7.84,2.51,13,2.51,10.07,0,21.87-3.22,26.94-10.18A2,2,0,0,0,176.25,160.28Z" transform="translate(-110.32 -110.27)" fill="#5e4739"/></svg>