<svg xmlns="http://www.w3.org/2000/svg" viewBox="0 0 95.19 105.75"><title>Peanut</title><path d="M193.3,104.74a10.25,10.25,0,0,0-6.73-2.51c-3.26,0-6.92,1.45-10.95,4.34-6.05,4.33-9.64,8.63-13.44,13.18a92.15,92.15,0,0,1-20.29,19c-1.12.77-2.45,1.58-3.85,2.43-7,4.22-17.55,10.61-22.87,25.57-4.9,13.77,3.4,24.93,13.8,29.89,12.06,5.75,28.73,4.17,38.8-12.32,4.23-6.93,6.11-14.33,7.93-21.49,2.61-10.27,5.08-20,14.26-25.71,6.61-4.13,10.5-9.86,10.93-16.14C201.31,115,198.54,109.12,193.3,104.74ZM128,177.14a2,2,0,0,1-2,1.93h-.07A2,2,0,0,1,124,177a25.91,25.91,0,0,1,7.77-17.67,2,2,0,1,1,2.71,2.94A21.73,21.73,0,0,0,128,177.14Zm14.42-.84-.37.51c-1,1.41-3.17,4.34-3.58,5.17a2,2,0,0,1-1.8,1.12,2,2,0,0,1-.88-.21,2,2,0,0,1-.91-2.67,59.63,59.63,0,0,1,3.94-5.77l.37-.5a2,2,0,1,1,3.23,2.35Zm.68-22a2,2,0,0,1-1.26-3.55l3.82-3.12a2,2,0,0,1,2.53,3.09l-3.82,3.13A2,2,0,0,1,143.05,154.32Zm2.12,8.8,1.1-1.07a2,2,0,1,1,2.81,2.85L148,166a2,2,0,0,1-2.78-2.87Zm7.05,22.39-3.59,3.89a2,2,0,0,1-1.47.65,2,2,0,0,1-1.36-.53,2,2,0,0,1-.11-2.83l3.59-3.89a2,2,0,0,1,2.82-.12A2,2,0,0,1,152.22,185.51Zm13-59.52a32.9,32.9,0,0,1,3.19-3.34l.11-.11a2,2,0,0,1,2.8,2.86l-.12.11c-.58.57-2.36,2.3-2.68,2.75a2,2,0,0,1-1.65.84,2,2,0,0,1-1.14-.36A2,2,0,0,1,165.23,126Zm-2.82,26.47-.67,1.9a2,2,0,0,1-1.89,1.34,2.17,2.17,0,0,1-.66-.11A2,2,0,0,1,158,153l.67-1.9a2,2,0,0,1,3.78,1.32Zm-6-15.22,1.12-2.15a2,2,0,1,1,3.55,1.84L160,139.09a2,2,0,0,1-1.78,1.08,1.9,1.9,0,0,1-.92-.23A2,2,0,0,1,156.42,137.24Zm6.51,29.32a34,34,0,0,0-1.77,4.48,38.56,38.56,0,0,1-2,5,2,2,0,0,1-1.78,1.09,2.05,2.05,0,0,1-.92-.23,2,2,0,0,1-.86-2.69,33.85,33.85,0,0,0,1.77-4.47,36.7,36.7,0,0,1,2-5,2,2,0,0,1,3.55,1.84Zm8.56-27.3a30.73,30.73,0,0,0-4.81,5.68,2,2,0,0,1-1.67.9,2,2,0,0,1-1.1-.33,2,2,0,0,1-.57-2.77,34.4,34.4,0,0,1,5.44-6.42,2,2,0,0,1,2.71,2.94Zm4-25.89a2.79,2.79,0,0,1,2.65-2.32,2.73,2.73,0,0,1,2.75,2.18,2.78,2.78,0,0,1-1.39,3.21,2,2,0,0,1-1.23.18,1.9,1.9,0,0,1-1.22-.12A2.78,2.78,0,0,1,175.46,113.37Zm7.26,12.94a14.4,14.4,0,0,1-3,3.33,2,2,0,1,1-2.5-3.13,10.35,10.35,0,0,0,2.21-2.41,2,2,0,1,1,3.33,2.21Zm9-10.53-1.11,2.15a2,2,0,0,1-1.78,1.09,2,2,0,0,1-.92-.22,2,2,0,0,1-.86-2.7l1.12-2.16a2,2,0,0,1,3.55,1.84Z" transform="translate(-109.74 -97.92)" fill="#deb198"/><path d="M198.17,103.84a2,2,0,0,0,.58-1.22,3.14,3.14,0,0,1,1.74-.71,2,2,0,0,0-.47-4c-1.55.19-4.07,1.06-5,3.14-6-4.45-13.5-3.69-21.78,2.25-6.46,4.63-10.21,9.11-14.18,13.86-4.67,5.59-9.5,11.37-19.49,18.26-1,.7-2.24,1.44-3.65,2.3-7.48,4.52-18.77,11.35-24.57,27.65-5.7,16,4.22,29.3,15.85,34.84a35.15,35.15,0,0,0,15.05,3.45c10.46,0,21.33-4.93,28.88-17.29,4.55-7.45,6.59-15.5,8.4-22.59,2.51-9.89,4.68-18.43,12.5-23.31s12.27-11.66,12.8-19.25A22.85,22.85,0,0,0,198.17,103.84ZM200.89,121c-.43,6.28-4.32,12-10.93,16.14-9.18,5.73-11.65,15.44-14.26,25.71-1.82,7.16-3.7,14.56-7.93,21.49C157.7,200.79,141,202.37,129,196.62c-10.4-5-18.7-16.12-13.8-29.89,5.32-15,15.88-21.35,22.87-25.57,1.4-.85,2.73-1.66,3.85-2.43a92.15,92.15,0,0,0,20.29-19c3.8-4.55,7.39-8.85,13.44-13.18,4-2.89,7.69-4.34,10.95-4.34a10.25,10.25,0,0,1,6.73,2.51C198.54,109.12,201.31,115,200.89,121Z" transform="translate(-109.74 -97.92)" fill="#5e4739"/><path d="M134.55,159.45a2,2,0,0,0-2.83-.12A25.91,25.91,0,0,0,124,177a2,2,0,0,0,1.93,2.07H126a2,2,0,0,0,2-1.93,21.73,21.73,0,0,1,6.48-14.87A2,2,0,0,0,134.55,159.45Z" transform="translate(-109.74 -97.92)" fill="#5e4739"/><path d="M148.42,147.93a2,2,0,0,0-2.81-.28l-3.82,3.12a2,2,0,0,0,2.53,3.1l3.82-3.13A2,2,0,0,0,148.42,147.93Z" transform="translate(-109.74 -97.92)" fill="#5e4739"/><path d="M157.27,139.94a1.9,1.9,0,0,0,.92.23,2,2,0,0,0,1.78-1.08l1.12-2.16a2,2,0,1,0-3.55-1.84l-1.12,2.15A2,2,0,0,0,157.27,139.94Z" transform="translate(-109.74 -97.92)" fill="#5e4739"/><path d="M177.81,116.67a2,2,0,0,0,.43,0,2,2,0,0,0,1.23-.18,2.78,2.78,0,0,0,1.39-3.21,2.73,2.73,0,0,0-2.75-2.18A2.87,2.87,0,0,0,177,116.5,2,2,0,0,0,177.81,116.67Z" transform="translate(-109.74 -97.92)" fill="#5e4739"/><path d="M149.28,182.8l-3.59,3.89a2,2,0,0,0,.11,2.83,2,2,0,0,0,1.36.53,2,2,0,0,0,1.47-.65l3.59-3.89a2,2,0,0,0-.12-2.83A2,2,0,0,0,149.28,182.8Z" transform="translate(-109.74 -97.92)" fill="#5e4739"/><path d="M162.07,163.87a2,2,0,0,0-2.69.85,36.7,36.7,0,0,0-2,5,33.85,33.85,0,0,1-1.77,4.47,2,2,0,0,0,.86,2.69,2.05,2.05,0,0,0,.92.23,2,2,0,0,0,1.78-1.09,38.56,38.56,0,0,0,2-5,34,34,0,0,1,1.77-4.48A2,2,0,0,0,162.07,163.87Z" transform="translate(-109.74 -97.92)" fill="#5e4739"/><path d="M148,166l1.13-1.09a2,2,0,1,0-2.81-2.85l-1.1,1.07A2,2,0,1,0,148,166Z" transform="translate(-109.74 -97.92)" fill="#5e4739"/><path d="M190.86,113.09a2,2,0,0,0-2.7.85L187,116.1a2,2,0,0,0,.86,2.7,2,2,0,0,0,.92.22,2,2,0,0,0,1.78-1.09l1.11-2.15A2,2,0,0,0,190.86,113.09Z" transform="translate(-109.74 -97.92)" fill="#5e4739"/><path d="M165.74,128.74a2,2,0,0,0,1.14.36,2,2,0,0,0,1.65-.84c.32-.45,2.1-2.18,2.68-2.75l.12-.11a2,2,0,0,0-2.8-2.86l-.11.11a32.9,32.9,0,0,0-3.19,3.34A2,2,0,0,0,165.74,128.74Z" transform="translate(-109.74 -97.92)" fill="#5e4739"/><path d="M141.93,173.51a2,2,0,0,0-2.79.44l-.37.5a59.63,59.63,0,0,0-3.94,5.77,2,2,0,0,0,.91,2.67,2,2,0,0,0,.88.21,2,2,0,0,0,1.8-1.12c.41-.83,2.55-3.76,3.58-5.17l.37-.51A2,2,0,0,0,141.93,173.51Z" transform="translate(-109.74 -97.92)" fill="#5e4739"/><path d="M158.63,151.14,158,153a2,2,0,0,0,1.23,2.55,2.17,2.17,0,0,0,.66.11,2,2,0,0,0,1.89-1.34l.67-1.9a2,2,0,0,0-3.78-1.32Z" transform="translate(-109.74 -97.92)" fill="#5e4739"/><path d="M168.78,136.32a34.4,34.4,0,0,0-5.44,6.42,2,2,0,0,0,.57,2.77,2,2,0,0,0,1.1.33,2,2,0,0,0,1.67-.9,30.73,30.73,0,0,1,4.81-5.68,2,2,0,0,0-2.71-2.94Z" transform="translate(-109.74 -97.92)" fill="#5e4739"/><path d="M182.16,123.53a2,2,0,0,0-2.77.57,10.35,10.35,0,0,1-2.21,2.41,2,2,0,0,0,2.5,3.13,14.4,14.4,0,0,0,3-3.33A2,2,0,0,0,182.16,123.53Z" transform="translate(-109.74 -97.92)" fill="#5e4739"/></svg>