<svg xmlns="http://www.w3.org/2000/svg" viewBox="0 0 86.61 104.66"><title>Pickles</title><path d="M131.34,124.38a201.92,201.92,0,0,1,24.12-1.27,201.8,201.8,0,0,1,24.12,1.27c1.75.23,3.23.46,4.5.71l-.56-.64c-2.31-2.65-3.38-5.12-3.21-7.36-.65.11-1.31.21-2,.31a174.46,174.46,0,0,1-22.82,1.32,174.57,174.57,0,0,1-22.82-1.32c-.68-.09-1.31-.19-1.92-.29.16,2.23-.91,4.7-3.22,7.34l-.55.62C128.2,124.83,129.65,124.6,131.34,124.38Z" transform="translate(-112.2 -97.82)" fill="#fff"/><path d="M127.21,112.28l.16,0c4,1.1,13.39,2.39,28.09,2.39,17.73,0,27.76-1.88,29.88-3V107.9a42.94,42.94,0,0,1-7.06,1.44,174.46,174.46,0,0,1-22.82,1.32,174.57,174.57,0,0,1-22.82-1.32,42.94,42.94,0,0,1-7.06-1.44v3.78A8.22,8.22,0,0,0,127.21,112.28Z" transform="translate(-112.2 -97.82)" fill="#f9ba8f"/><path d="M155.46,106.66c14.83,0,24.27-1.32,28.21-2.42-3.94-1.11-13.38-2.42-28.21-2.42s-24.27,1.31-28.2,2.42C131.19,105.34,140.63,106.66,155.46,106.66Z" transform="translate(-112.2 -97.82)" fill="#f69b77"/><path d="M185.2,129.4c-4.59-1.14-15.16-2.29-29.74-2.29s-25.15,1.15-29.74,2.29c4.59,1.14,15.17,2.29,29.74,2.29S180.61,130.54,185.2,129.4Z" transform="translate(-112.2 -97.82)" fill="#85986f"/><path d="M154.28,153c.09-.36.19-.71.31-1.06l-1.28.81C153.64,152.82,154,152.89,154.28,153Z" transform="translate(-112.2 -97.82)" fill="#c5dc76"/><path d="M182.15,187.67c17.87-30.94,13.48-46.85,7.54-55.77-1.56,1-4.56,1.81-10.11,2.52a201.8,201.8,0,0,1-24.12,1.27,201.92,201.92,0,0,1-24.12-1.27c-5.46-.7-8.46-1.51-10-2.48-5.92,8.93-10.28,24.84,7.57,55.73a12.82,12.82,0,0,1,1.44,3.23c.68,2.62,6.83,7.58,25.2,7.58s24.52-5,25.2-7.59A13.24,13.24,0,0,1,182.15,187.67Zm-10.84-12.42a18.29,18.29,0,0,1-2.78-.22,20.23,20.23,0,1,1-39.62-7.75,18.05,18.05,0,0,1-1.74-7.69A17.85,17.85,0,0,1,145,141.76a17.63,17.63,0,0,1,12.37,5,17.65,17.65,0,1,1,13.94,28.48Z" transform="translate(-112.2 -97.82)" fill="#c5dc76"/><path d="M187.7,123.12c-.43-.47-.82-.9-1.17-1.3-2.2-2.53-2.34-4-2.22-4.63a1.8,1.8,0,0,1,.82-1.17c3-.92,4.21-2.09,4.21-3.72v-8.06c0-2.57-3.1-4-11.06-5.11a176.41,176.41,0,0,0-22.82-1.31,176.52,176.52,0,0,0-22.82,1.31c-8,1.11-11.06,2.54-11.06,5.11v8.06c0,1.66,1.31,2.85,4.39,3.78a1.73,1.73,0,0,1,.74,1.11c.12.65,0,2.1-2.22,4.63-.35.4-.74.83-1.18,1.3-6.67,7.28-22.31,24.32,2.1,66.56a9.93,9.93,0,0,1,1,2.22c.64,2.48,4.66,10.58,29.07,10.58s28.42-8.1,29.07-10.58a9.7,9.7,0,0,1,1-2.23C210,147.43,194.38,130.39,187.7,123.12Zm-32.19,75.36c-18.37,0-24.52-5-25.2-7.58a12.82,12.82,0,0,0-1.44-3.23c-17.85-30.89-13.49-46.8-7.57-55.73,1.58,1,4.58,1.78,10,2.48a201.92,201.92,0,0,0,24.12,1.27,201.8,201.8,0,0,0,24.12-1.27c5.55-.71,8.55-1.53,10.11-2.52,5.94,8.92,10.33,24.83-7.54,55.77a13.24,13.24,0,0,0-1.44,3.22C180,193.52,173.88,198.48,155.51,198.48Zm28.16-94.24c-3.94,1.1-13.38,2.42-28.21,2.42s-24.27-1.32-28.2-2.42c3.93-1.11,13.37-2.42,28.2-2.42S179.73,103.13,183.67,104.24Zm-51,5.1a174.57,174.57,0,0,0,22.82,1.32,174.46,174.46,0,0,0,22.82-1.32,42.94,42.94,0,0,0,7.06-1.44v3.78c-2.12,1.16-12.15,3-29.88,3-14.7,0-24.1-1.29-28.09-2.39l-.16,0a8.22,8.22,0,0,1-1.63-.6V107.9A42.94,42.94,0,0,0,132.64,109.34Zm-1.92,7.77c.61.1,1.24.2,1.92.29a174.57,174.57,0,0,0,22.82,1.32,174.46,174.46,0,0,0,22.82-1.32c.72-.1,1.38-.2,2-.31-.17,2.24.9,4.71,3.21,7.36l.56.64c-1.27-.25-2.75-.48-4.5-.71a201.8,201.8,0,0,0-24.12-1.27,201.92,201.92,0,0,0-24.12,1.27c-1.69.22-3.14.45-4.39.69l.55-.62C129.81,121.81,130.88,119.34,130.72,117.11Zm24.74,10c14.58,0,25.15,1.15,29.74,2.29-4.59,1.14-15.16,2.29-29.74,2.29s-25.15-1.15-29.74-2.29C130.31,128.26,140.89,127.11,155.46,127.11Z" transform="translate(-112.2 -97.82)" fill="#5e4739"/><path d="M148.48,152.13a19.73,19.73,0,0,1,4.83.61l1.28-.81c.19-.55.4-1.09.64-1.61A13.71,13.71,0,0,0,145,145.76a13.85,13.85,0,0,0-13.83,13.83,14.21,14.21,0,0,0,.17,2.07A20.23,20.23,0,0,1,148.48,152.13Z" transform="translate(-112.2 -97.82)" fill="#5b6753"/><path d="M171.31,143.93A13.69,13.69,0,0,0,158,154.52a20.15,20.15,0,0,1,3.77,2.62,2,2,0,0,1,2-1.67l3,.12a2,2,0,0,1-.09,4h-.08l-2.56-.1A20.11,20.11,0,0,1,168.65,171a13.86,13.86,0,0,0,2.66.25,13.66,13.66,0,0,0,0-27.32Zm-2.51,6.77a2,2,0,0,1,4,0v2.06a2,2,0,0,1-4,0Zm4.57,14.13a2,2,0,1,1-4,0V162a2,2,0,0,1,4,0Zm6.18-4.9h-.13l-3.59-.23a2,2,0,1,1,.25-4l3.59.23a2,2,0,0,1-.12,4Z" transform="translate(-112.2 -97.82)" fill="#85986f"/><path d="M189,157.59a17.65,17.65,0,0,0-31.6-10.82,17.63,17.63,0,0,0-12.37-5,17.85,17.85,0,0,0-17.83,17.83,18.05,18.05,0,0,0,1.74,7.69A20.22,20.22,0,1,0,168.53,175a18.29,18.29,0,0,0,2.78.22A17.68,17.68,0,0,0,189,157.59Zm-17.66,13.66a13.86,13.86,0,0,1-2.66-.25,20.11,20.11,0,0,0-4.57-11.51l2.56.1h.08a2,2,0,0,0,.09-4l-3-.12a2,2,0,0,0-2,1.67,20.15,20.15,0,0,0-3.77-2.62,13.66,13.66,0,1,1,13.31,16.73Zm-22.83,17.37a16.25,16.25,0,1,1,16.24-16.24A16.26,16.26,0,0,1,148.48,188.62Zm-17.31-29A13.85,13.85,0,0,1,145,145.76a13.71,13.71,0,0,1,10.23,4.56c-.24.52-.45,1.06-.64,1.61-.12.35-.22.7-.31,1.06-.32-.1-.64-.17-1-.25a19.73,19.73,0,0,0-4.83-.61,20.23,20.23,0,0,0-17.14,9.53A14.21,14.21,0,0,1,131.17,159.59Z" transform="translate(-112.2 -97.82)" fill="#5e4739"/><path d="M148.48,156.13a16.25,16.25,0,1,0,16.24,16.25A16.26,16.26,0,0,0,148.48,156.13Zm-6.11,17.67h-.1c-1.09-.05-2.49-.09-2.8-.05a2,2,0,0,1-2.3-1.62,2,2,0,0,1,1.64-2.33,22,22,0,0,1,3.66,0,2,2,0,0,1-.1,4Zm7.24,6.65a2,2,0,0,1-2,1.86h-.15a2,2,0,0,1-1.85-2.14l.27-3.79a2,2,0,1,1,4,.28Zm.27-12a2,2,0,1,1-4,0v-3.22a2,2,0,0,1,4,0Zm8.19,6.28h-.22l-4.83-.53a2,2,0,0,1,.44-4l4.83.54a2,2,0,0,1-.22,4Z" transform="translate(-112.2 -97.82)" fill="#85986f"/><path d="M147.88,163.26a2,2,0,0,0-2,2v3.22a2,2,0,1,0,4,0v-3.22A2,2,0,0,0,147.88,163.26Z" transform="translate(-112.2 -97.82)" fill="#5e4739"/><path d="M158.29,170.78l-4.83-.54a2,2,0,0,0-.44,4l4.83.53h.22a2,2,0,0,0,.22-4Z" transform="translate(-112.2 -97.82)" fill="#5e4739"/><path d="M142.47,169.81a22,22,0,0,0-3.66,0,2,2,0,0,0-1.64,2.33,2,2,0,0,0,2.3,1.62c.31,0,1.71,0,2.8.05h.1a2,2,0,0,0,.1-4Z" transform="translate(-112.2 -97.82)" fill="#5e4739"/><path d="M148,174.52a2,2,0,0,0-2.13,1.86l-.27,3.79a2,2,0,0,0,1.85,2.14h.15a2,2,0,0,0,2-1.86l.27-3.79A2,2,0,0,0,148,174.52Z" transform="translate(-112.2 -97.82)" fill="#5e4739"/><path d="M170.8,154.76a2,2,0,0,0,2-2V150.7a2,2,0,0,0-4,0v2.06A2,2,0,0,0,170.8,154.76Z" transform="translate(-112.2 -97.82)" fill="#5e4739"/><path d="M179.67,155.94l-3.59-.23a2,2,0,1,0-.25,4l3.59.23h.13a2,2,0,0,0,.12-4Z" transform="translate(-112.2 -97.82)" fill="#5e4739"/><path d="M171.37,160a2,2,0,0,0-2,2v2.84a2,2,0,1,0,4,0V162A2,2,0,0,0,171.37,160Z" transform="translate(-112.2 -97.82)" fill="#5e4739"/></svg>