<svg xmlns="http://www.w3.org/2000/svg" viewBox="0 0 444 466.91"><title>bowlcircle</title><circle cx="222" cy="222" r="216.5" fill="none" stroke="#bfd685" stroke-linecap="round" stroke-linejoin="round" stroke-width="11" stroke-dasharray="20 30"/><path d="M272.61,380.67h8.71a82,82,0,0,1,82,82v5.39a11,11,0,0,1-11,11H201.63a11,11,0,0,1-11-11v-5.39A82,82,0,0,1,272.61,380.67Z" transform="translate(475.31 836.82) rotate(-180)" fill="#e4f3f7" opacity="0.52"/><path d="M274.1,380.67h8.71a82,82,0,0,1,82,82v5.4a11,11,0,0,1-11,11H203.12a11,11,0,0,1-11-11v-5.4a82,82,0,0,1,82-82Z" transform="translate(478.3 836.82) rotate(-180)" fill="none" stroke="#5e4739" stroke-linejoin="round" stroke-width="4.5"/><rect x="73.12" y="375.1" width="46.72" height="89.56" rx="8.55" fill="#fff" stroke="#5e4739" stroke-miterlimit="10" stroke-width="4.5"/><path d="M355.36,400.79s-3.58,28.09-19.1,45.09" transform="translate(-78.62 -22.93)" fill="none" stroke="#fff" stroke-linecap="round" stroke-linejoin="round" stroke-width="6"/><line x1="120.61" y1="364.06" x2="279.02" y2="364.06" fill="none" stroke="#fff" stroke-linecap="round" stroke-linejoin="round" stroke-width="7"/><path d="M198.78,401.37l0-.05a3.88,3.88,0,0,1,1.21-1.14l6.52-4.62c3-2.1,6.06-4.26,9.63-5a9.69,9.69,0,0,1,8.05,1.82,12.58,12.58,0,0,1,4.31,7.67,9.39,9.39,0,0,1,0,2.54c-.47,3.08-2.5,5.62-4.81,7.58-1.83,1.54-3.93,2.73-5.76,4.28a44.41,44.41,0,0,0-4.23,3.88c-1.18,1.28-2.69,3-2.84,4.79-.27,3.4,3.38,5.36,6.12,6.25,16,5.21,31.26,2.23,47.78,5.4,5.24,1,10.61,2.78,14.23,6.71,3.42,3.71,4.81,8.83,5.71,13.8,1.42,7.78,1.92,16-.57,23.47-.83,2.51-2.09,5-4.28,6.49s-4.91,1.65-7.5,1.78c-24.62,1.25-49.28-.09-73.89-1.42V403.31A4,4,0,0,1,198.78,401.37Z" transform="translate(-78.62 -22.93)" fill="#f4dcb1" stroke="#5e4739" stroke-miterlimit="10" stroke-width="4.5"/></svg>