<svg xmlns="http://www.w3.org/2000/svg" viewBox="0 0 736.35 699.23"><title>logo</title><path d="M341.85,178.21A167.25,167.25,0,0,1,460.7,154.59a168.18,168.18,0,0,1,93.14-48,182.86,182.86,0,0,0-316-9.38A158,158,0,0,1,341.85,178.21Z" transform="translate(-23.7 -10.89)" fill="#bfd685"/><path d="M211.16,211.72a181.51,181.51,0,0,1,25,14.73,24.06,24.06,0,0,1,21.16-15.89h.09a24.07,24.07,0,0,1,22.14,25.51v13.47a166.61,166.61,0,0,1,62.27-71.32A157.8,157.8,0,0,0,48.2,214.49a181.09,181.09,0,0,1,163-2.77Z" transform="translate(-23.7 -10.89)" fill="#b3d169"/><path d="M341.85,178.21a166.61,166.61,0,0,0-62.27,71.32v19.9a179.93,179.93,0,0,1,32.94,88.41q.23,2.43.39,4.89c.25,3.94.4,7.91.4,11.92s-.18,8.05-.44,12q6,1.32,11.94,2.92V236.06a22.62,22.62,0,1,1,45.24,0V406.68q11.2,5.54,21.77,12.13a249.82,249.82,0,0,1,23.47-13V236.06a22.62,22.62,0,1,1,45.23,0V389.14q5.09-1.33,10.24-2.46c-.27-4-.42-8-.43-12q0-7.86.67-15.53a180,180,0,0,1,35.24-92.69V236.06a22.62,22.62,0,0,1,42.61-10.59,181,181,0,0,1,189-9.68,167.41,167.41,0,0,0-277.17-61.2A167.25,167.25,0,0,0,341.85,178.21Z" transform="translate(-23.7 -10.89)" fill="#a1c45a"/><path d="M282.54,693.29l.21.83q17.08,5.21,34.59,8.71l0-.48Q299.64,698.65,282.54,693.29Z" transform="translate(-23.7 -10.89)" fill="#84b857"/><path d="M363,709.1q13.77,1,27.6,1h1.27q-14.56,0-28.85-1.21Z" transform="translate(-23.7 -10.89)" fill="#84b857"/><path d="M738.53,216.14l-.66-.35a180.66,180.66,0,0,0-189,9.68,22.48,22.48,0,0,1,2.63,10.59h-1V425.67q.19,5.9,0,11.75a198.27,198.27,0,0,1-50.28,126.72,250.41,250.41,0,0,1,.85,129.15c150.06-47,258.95-187.11,258.95-352.67A368.79,368.79,0,0,0,738.53,216.14Z" transform="translate(-23.7 -10.89)" fill="#8ca549"/><path d="M391.82,418.81a251,251,0,0,1,23.47,16.63V405.83A249.82,249.82,0,0,0,391.82,418.81Z" transform="translate(-23.7 -10.89)" fill="#8ca549"/><path d="M470.33,374.65c0,4,.16,8,.43,12q-5.16,1.13-10.24,2.46v51.45A22.63,22.63,0,0,1,444,462.36a249.65,249.65,0,0,1,36.28,51.54,144.31,144.31,0,0,0,25.92-87.75V266.43A180,180,0,0,0,471,359.12Q470.34,366.8,470.33,374.65Z" transform="translate(-23.7 -10.89)" fill="#8ca549"/><path d="M325.77,598.92a197.53,197.53,0,0,1-90.95-173.25V236.06a23.85,23.85,0,0,1,1.37-9.61,180.93,180.93,0,0,0-188-12c-1,.55-2.08,1.08-3.1,1.65a369,369,0,0,0-21.4,115.2v18.78c4.08,161.4,111.65,297.08,258.84,343.17q17.07,5.36,34.84,9.06C320.54,662.45,323.58,625.24,325.77,598.92Z" transform="translate(-23.7 -10.89)" fill="#6e843c"/><path d="M500.25,564.14A197.87,197.87,0,0,1,461,598c2.52,31.34,5.34,67.36,8.09,103.8,0,.17,0,.33,0,.5q16-3.36,31.76-8.13l.21-.83a250.41,250.41,0,0,0-.85-129.15Z" transform="translate(-23.7 -10.89)" fill="#639635"/><path d="M415.77,585a26,26,0,0,1,14.44-26.47,144.25,144.25,0,0,0,50.11-44.59A249.65,249.65,0,0,0,444,462.36a22.64,22.64,0,0,1-28.75-21.77v-5.15a251,251,0,0,0-23.47-16.63q-10.54-6.58-21.77-12.13v33.91a22.61,22.61,0,0,1-22.62,22.61c-.6,0-1.19,0-1.78-.07a22.62,22.62,0,0,1-20.84-22.54v-51q-5.91-1.59-11.94-2.92c.26-4,.44-8,.44-12s-.15-8-.4-11.92q-.17-2.46-.39-4.89a179.93,179.93,0,0,0-32.94-88.41V425.67A144.42,144.42,0,0,0,358,558.49,26.49,26.49,0,0,1,372.94,585c-3.32,40.09-6.76,82.8-10,123.94q14.28,1.15,28.85,1.21h1.26q16.14,0,32.19-1.39l0-.23C422.48,671.38,419.32,630.07,415.77,585Z" transform="translate(-23.7 -10.89)" fill="#6e843c"/><path d="M461,598a198.26,198.26,0,0,0,89.53-160.53q.16-5.85,0-11.75V236.06h1a22.62,22.62,0,0,0-45.24,0V426.15a144.49,144.49,0,0,1-76,132.34A26,26,0,0,0,415.77,585c3.55,45.11,6.71,86.42,9.48,123.54l0,.23a368.63,368.63,0,0,0,43.86-6.48c0-.17,0-.33,0-.5C466.34,665.31,463.52,629.29,461,598Z" transform="translate(-23.7 -10.89)" fill="#fff"/><path d="M372.94,585A26.49,26.49,0,0,0,358,558.49a144.42,144.42,0,0,1-78.44-132.82V236.06a24.07,24.07,0,0,0-22.14-25.51h-.09a24.07,24.07,0,0,0-22.53,25.5V425.67a197.53,197.53,0,0,0,90.95,173.25c-2.19,26.32-5.23,63.53-8.39,103.43l0,.48A366.89,366.89,0,0,0,363,709.1l0-.2C366.18,667.76,369.62,625.05,372.94,585Z" transform="translate(-23.7 -10.89)" fill="#fff"/><path d="M370.05,236.06a22.62,22.62,0,0,0-45.24,0V440.59a22.59,22.59,0,0,0,20.84,22.54c.59,0,1.18.07,1.78.07a22.61,22.61,0,0,0,22.62-22.61V236.06Z" transform="translate(-23.7 -10.89)" fill="#fff"/><path d="M460.52,440.59V236.06a22.62,22.62,0,1,0-45.23,0V440.59a22.62,22.62,0,1,0,45.23,0Z" transform="translate(-23.7 -10.89)" fill="#fff"/></svg>