<svg xmlns="http://www.w3.org/2000/svg" viewBox="0 0 30.31 44"><title>icon2</title><path d="M16.11,12.26a4.2,4.2,0,1,0-4.2,4.2,4.2,4.2,0,0,0,4.2-4.2Zm7.35,2.1a3.15,3.15,0,1,0-3.15-3.15,3.15,3.15,0,0,0,3.15,3.15ZM34,10.16a3.15,3.15,0,1,0,3.15,3.15A3.16,3.16,0,0,0,34,10.16ZM24.47,52.07a8.09,8.09,0,0,1-6.73-2.92,7.63,7.63,0,0,1-.92-6.87c1-3.34.07-5.33-3.07-6.64A8.1,8.1,0,0,1,9,29.24,9.1,9.1,0,0,1,11.56,21c2.88-2.55,6.68-3.72,11.62-3.68,10.27.15,14.84,5,14.84,15.7,0,12.08-4.94,19-13.55,19ZM22.72,21.18" transform="translate(-7.72 -8.07)" fill="#6e843c"/></svg>