<svg xmlns="http://www.w3.org/2000/svg" viewBox="0 0 35.77 39.57"><title>icon1</title><path d="M32.22,45.25a1.72,1.72,0,0,1-1.69-1.78c0-.27,0-.54,0-.83a9,9,0,0,0-1-5.22,19.54,19.54,0,0,1-1.65-3.8,9.8,9.8,0,0,0-1.11,9.16,1.72,1.72,0,0,1-.24,1.78,1.75,1.75,0,0,1-1.68.64c-6.14-1.11-11.59-5.54-13.23-10.8-2-6.46-.3-13.16,4.42-17.07a1.75,1.75,0,0,1,2.43.19l1.83,2.05c1.37-1.82,2.93-5.52-.19-11.3a1.74,1.74,0,0,1,.21-2,1.78,1.78,0,0,1,1.93-.51A19.82,19.82,0,0,1,34.72,18.1a16.4,16.4,0,0,0,1.15-4,1.74,1.74,0,0,1,1-1.34,1.78,1.78,0,0,1,1.69.15c1.42,1,12.25,12.6,6,23.88a16.13,16.13,0,0,1-11.82,8.37l-.12,0a1.59,1.59,0,0,1-.43.06ZM28.75,27.93" transform="translate(-10.75 -5.68)" fill="#6e843c"/></svg>