<?xml version="1.0" standalone="no"?><!DOCTYPE svg PUBLIC "-//W3C//DTD SVG 1.1//EN" "http://www.w3.org/Graphics/SVG/1.1/DTD/svg11.dtd"><svg t="1613478813864" class="icon" viewBox="0 0 1024 1024" version="1.1" xmlns="http://www.w3.org/2000/svg" p-id="4167" xmlns:xlink="http://www.w3.org/1999/xlink" width="200" height="200"><defs><style type="text/css"></style></defs><path d="M748.16 64l-14.08 6.08a904.704 904.704 0 0 1-128 35.84 1517.472 1517.472 0 0 0-198.08 58.24 501.408 501.408 0 0 0-190.08 117.76A326.08 326.08 0 0 0 128 510.08a285.44 285.44 0 0 0 88 211.84 256.96 256.96 0 0 0 52.16 38.08A1129.6 1129.6 0 0 0 256 960h128a776.32 776.32 0 0 1 22.08-232c21.76-69.44 63.04-137.92 163.84-217.92l-77.76-100.16a620.16 620.16 0 0 0-184 220.16 24.128 24.128 0 0 0-4.16-1.92A148.128 148.128 0 0 1 256 510.08a185.888 185.888 0 0 1 54.08-140.16 400.576 400.576 0 0 1 144-88 1462.4 1462.4 0 0 1 182.08-51.84c35.84-8.64 63.68-16.96 93.76-25.92A1273.6 1273.6 0 0 1 768 537.92c0 122.24-33.28 174.4-62.08 200a118.976 118.976 0 0 1-75.84 30.08c-22.72 0-68.48-24-126.08-48l-48 118.08c44.16 18.56 97.6 57.92 174.08 57.92a242.976 242.976 0 0 0 161.92-62.08c59.84-53.76 104-149.76 104-296a1545.088 1545.088 0 0 0-56-429.76L825.92 64h-77.76z" fill="#79c144" p-id="4168"></path></svg>