<svg xmlns="http://www.w3.org/2000/svg" viewBox="0 0 121.02 120.99"><defs><style>.cls-1{fill:#ebebeb;}.cls-2,.cls-7{fill:#e2e7c4;}.cls-3{fill:#e3b163;}.cls-4{fill:#d0973e;}.cls-5{fill:#5e4739;}.cls-6{fill:#b0701d;}.cls-7{opacity:0.4;}.cls-8{fill:#fff;}.cls-9{fill:#c6d76b;}.cls-10{fill:#f69b77;}</style></defs><title>step2</title><g id="图层_2" data-name="图层 2"><g id="图层_1-2" data-name="图层 1"><path class="cls-1" d="M25,109.44a60.47,60.47,0,0,0,71.09,0L60.51,60.49Z"/><path class="cls-1" d="M96.08,109.45a60.45,60.45,0,0,0,22-67.6L60.51,60.53Z"/><path class="cls-1" d="M118,41.79A60.42,60.42,0,0,0,60.53,0l0,60.49Z"/><path class="cls-1" d="M3,41.79A60.44,60.44,0,0,1,60.5,0V60.49Z"/><path class="cls-1" d="M25,109.45A60.44,60.44,0,0,1,3,41.85L60.51,60.53Z"/><g id="_1" data-name="1"><g id="_1-2" data-name="1"><path class="cls-2" d="M25,109.56A60.46,60.46,0,0,1,3,42L60.51,60.63Z"/><g id="_1-3" data-name="1"><path class="cls-3" d="M13.75,81.11a4.61,4.61,0,0,0,.31,1.1c4.06,2,9.89,1.08,13.62-1.85,2-1.54,2.68-3.44,4.65-5.06s4.48-3.49,5.43-5.34c1.15-2,1.16-5.27.29-7.92a9.93,9.93,0,0,0-5.72-3.25c-3.8-.62-5.1.33-7.48,2.05C24,61.47,23,62.19,21.69,63l-.09,0c-3.58,1.38-5.66,4.16-5.78,7.63,0,.57,0,1.36,0,2.12a9.49,9.49,0,0,1-.15,3.32A8,8,0,0,1,15,77.56C14.46,78.63,13.68,80.09,13.75,81.11ZM34.07,64.45a.91.91,0,1,1-.91.91.9.9,0,0,1,.91-.91ZM24.7,76.93a1.21,1.21,0,1,1-1.21,1.21A1.21,1.21,0,0,1,24.7,76.93Zm-2-7.92a.91.91,0,1,1-.9.91A.91.91,0,0,1,22.72,69Z"/><path class="cls-4" d="M37.74,70c-.94,1.85-3.52,3.7-5.44,5.34s-2.63,3.52-4.64,5.06C23.93,83.29,18.1,84.2,14,82.21a5.82,5.82,0,0,0,2.72,2.9,12,12,0,0,0,10,.37,11.07,11.07,0,0,0,5.38-4.08c.48-.58,1-1.24,1.72-2l0,0c.6-.57,1.26-1.17,2-1.81a31.14,31.14,0,0,0,4-4c1.28-1.83,1.32-5.22.1-8.24A11.87,11.87,0,0,0,38,62C38.9,64.69,38.9,67.93,37.74,70Z"/><path class="cls-5" d="M32.52,57.6h0c-4.31-.71-5.94.48-8.4,2.26-.85.6-1.81,1.3-3,2a9.58,9.58,0,0,0-6.49,8.68c0,.61,0,1.43,0,2.22a12.1,12.1,0,0,1-.05,2.81.58.58,0,0,0,0,.14A8.33,8.33,0,0,1,14,77c-.68,1.28-1.51,2.87-1.41,4.23v0a6.6,6.6,0,0,0,3.62,4.92,12.87,12.87,0,0,0,6.05,1.43,12.42,12.42,0,0,0,5-1,12.23,12.23,0,0,0,5.83-4.42c.47-.57,1-1.21,1.67-2,.57-.54,1.23-1.13,1.93-1.75a31.81,31.81,0,0,0,4.23-4.23c1.53-2.2,1.63-6,.23-9.4A11.59,11.59,0,0,0,32.52,57.6ZM15.71,76.08a9.56,9.56,0,0,0,.15-3.32c0-.76-.07-1.55,0-2.12A8.35,8.35,0,0,1,21.56,63l.09,0c1.29-.77,2.28-1.49,3.16-2.12,2.37-1.71,3.68-2.66,7.48-2A9.87,9.87,0,0,1,38,62a11.64,11.64,0,0,1,2,3.26c1.23,3,1.18,6.41-.09,8.24a31.28,31.28,0,0,1-4,4c-.72.63-1.39,1.23-2,1.81l0,0c-.7.77-1.24,1.43-1.72,2a11,11,0,0,1-5.38,4.08,11.92,11.92,0,0,1-10-.37,5.78,5.78,0,0,1-2.72-2.9,4.17,4.17,0,0,1-.3-1.1A8.18,8.18,0,0,1,15,77.57,8.06,8.06,0,0,0,15.71,76.08Z"/><path class="cls-6" d="M34.07,66.25a.91.91,0,1,0-.91-.91A.9.9,0,0,0,34.07,66.25Z"/><path class="cls-6" d="M22.72,70.85a.91.91,0,1,0,0-1.81.91.91,0,0,0,0,1.81Z"/><path class="cls-6" d="M24.7,79.33a1.21,1.21,0,1,0-1.21-1.21A1.21,1.21,0,0,0,24.7,79.33Z"/></g><path class="cls-7" d="M25,109.94A60.44,60.44,0,0,1,3,42.34L60.51,61Z"/></g><path class="cls-8" d="M15.92,70.94a11.4,11.4,0,1,1,11.4,11.4A11.41,11.41,0,0,1,15.92,70.94Zm21.84,0A10.44,10.44,0,1,0,27.32,81.38,10.45,10.45,0,0,0,37.76,70.94ZM26.08,68.06H23.41V65.78a10.75,10.75,0,0,0,3.6-1.3h2.74v12.7H26.08Z"/></g><g id="_2" data-name="2"><path class="cls-8" d="M3.62,41.47A60,60,0,0,1,60,.5V59.81Z"/><path class="cls-9" d="M59.5,1V59.12l-55.25-18A59.41,59.41,0,0,1,59.5,1m1-1A60.44,60.44,0,0,0,3,41.79l57.52,18.7V0Z"/><g id="_2-2" data-name="2"><path class="cls-8" d="M25,28.86l.76.43C29,31.11,34,31.52,36.22,31.48h.25c.19,0,.34,0,.46,0s.3-.32.32-1.51l-.06,0-.41-.11-.14,0a3.12,3.12,0,0,1-.39-.15l-.16-.06-.37-.17-.18-.08-.32-.18L35,29l0,0-.35-.23-.12-.08-.41-.28L34,28.32,33.55,28h0L33,27.57l0,0a51,51,0,0,1-5.13-5.37,12.31,12.31,0,0,0-3,4.79h0C24.47,28.08,24.75,28.62,25,28.86Z"/><path class="cls-10" d="M27.55,36.34a.65.65,0,0,0,.19,0h.07A2.43,2.43,0,0,0,29,36l.11,0s4.36-1.71,6.14-2.57a.9.9,0,0,0,.36-.28l0,0,0-.07,0,0h0v0a1.24,1.24,0,0,0,0-.27A25.51,25.51,0,0,1,26,30.72a15.81,15.81,0,0,0,.85,4.82C27.05,36,27.26,36.25,27.55,36.34Z"/><path class="cls-8" d="M31.76,40.57a1.52,1.52,0,0,0,1,.21l.08,0a1.44,1.44,0,0,0,.64-.35l3.78-4.68c0-.17,0-.34,0-.51v-.1a2.71,2.71,0,0,0-.26-.85,1.38,1.38,0,0,0-.48-.42l-.09.09,0,0a1.27,1.27,0,0,1-.25.21l0,0-.3.18h0c-1.74.84-5.65,2.38-6.17,2.59l0,0,0,0a3.78,3.78,0,0,1-.85.37A8.14,8.14,0,0,0,31.76,40.57Z"/><path class="cls-10" d="M28.34,20.9c.52.64,4.55,5.55,7.23,7.12l.09,0,.46.25.18.08.36.16.2.07.36.12.18.06.48.11a4.67,4.67,0,0,0,3.84-.86C43,27,43.46,26.14,43.33,24.82s-5-8.74-6.32-9.48c-.74-.41-3.17,1.34-4.61,2.38a25.53,25.53,0,0,1-2.13,1.43C28.63,20.05,28.32,20.7,28.34,20.9Z"/><path class="cls-10" d="M49.79,36.73l-.51-.08c-1-.15-2.9.28-5.39,1.23v.19h0v.43l0,.21v0a1.37,1.37,0,0,1,0,.28l0,.08a2.46,2.46,0,0,1-.07.29v0c0,.12-.06.23-.1.35a.54.54,0,0,1,0,.1l-.12.35v0h.6a13.43,13.43,0,0,0,4.87-1l.21-.08h0a15.16,15.16,0,0,0,3.37-1.91A18.3,18.3,0,0,0,49.79,36.73Z"/><path class="cls-10" d="M48.52,40.62l-.29.1,0,0-.34.11h0a13.44,13.44,0,0,1-3.51.59H44a5.82,5.82,0,0,1-.59,0H43c-.09.22-.18.41-.24.57l-.09.16a1,1,0,0,1,0,.23,13.37,13.37,0,0,0,4.55.83,5.89,5.89,0,0,0,4.1-1.65,7.48,7.48,0,0,0-2.18-1.14l-.21.09-.07,0Z"/><path class="cls-10" d="M40.38,42.64a1.42,1.42,0,0,0,1-.25l0,0,0,0a.61.61,0,0,0,.09-.18h0v-.25l.07-.13s.09-.19.2-.46l0-.06h0l.29-.65,0,0h0l0-.06a1.19,1.19,0,0,1,.08-.2v0A10.66,10.66,0,0,0,42.62,39a.07.07,0,0,1,0-.06,1.06,1.06,0,0,0,0-.14s0-.12,0-.18h0a1.79,1.79,0,0,0,0-.86l0-.06a3,3,0,0,0-.73-.7,12.59,12.59,0,0,0-3.55-1.12v.28l-.59.72-3.47,4.3h0l-.08.08s-.1.09-.15.14a9.61,9.61,0,0,0,5.5,1.25h.35Z"/><path class="cls-5" d="M53.77,36.93c-.26-.75-1.49-1-3.81-1.32l-.51-.08c-1.46-.22-4,.54-6,1.3a7,7,0,0,0-.8-.74,13.87,13.87,0,0,0-4.38-1.42,3,3,0,0,0-.35-1,2.58,2.58,0,0,0-1.06-.93v-.19a.65.65,0,0,0,.2,0c1.08-.14,1.29-1.51,1.32-2.45l.5,0A5.59,5.59,0,0,0,42.43,29a4.51,4.51,0,0,0,2-4.23h0c-.18-1.81-5.28-9.47-6.91-10.37-1.37-.77-3.64.87-5.83,2.45-.64.48-1.31.93-2,1.35-1.45.79-2.28,1.6-2.47,2.4a1.27,1.27,0,0,0,0,.67,13.18,13.18,0,0,0-3.48,5.36h0a3.2,3.2,0,0,0,0,2.5,2.13,2.13,0,0,0,1.1,1h0a16.24,16.24,0,0,0,.9,5.79,2.24,2.24,0,0,0,1.38,1.53l.23.06a9.32,9.32,0,0,0,3.76,4.1,2.55,2.55,0,0,0,1.66.36,10.46,10.46,0,0,0,6.75,1.86h.88a2.54,2.54,0,0,0,1.58-.45,14.17,14.17,0,0,0,5.15,1c2.41,0,4.65-1.38,5.19-2.38a.87.87,0,0,0,.05-.72c-.08-.21-.26-.69-1.9-1.46a12.77,12.77,0,0,0,3-1.91A.9.9,0,0,0,53.77,36.93ZM49.13,40.4a7.32,7.32,0,0,1,2.18,1.14,6,6,0,0,1-4.1,1.65,13.05,13.05,0,0,1-4.55-.84,1.55,1.55,0,0,0,0-.21l.08-.18c.06-.14.15-.33.24-.57l.21,0h.14l.59,0h.36a13.12,13.12,0,0,0,3.52-.6h0l.33-.1.06,0,.28-.1.32-.12.07,0Zm-15,1,.16-.13.08-.08h0l3.47-4.3.59-.73V36h0v-.09A12.73,12.73,0,0,1,41.94,37a2.82,2.82,0,0,1,.72.7l0,.06a1.75,1.75,0,0,1,0,.85h0a.65.65,0,0,1,0,.19.89.89,0,0,1,0,.14s0,0,0,.06a11.34,11.34,0,0,1-.4,1.25v0l-.08.2,0,.06h0l0,0-.28.65h0l0,.05c-.12.29-.21.46-.21.47l-.07.12,0,.16v.09h0a.66.66,0,0,1-.09.19v0l0,0a1.32,1.32,0,0,1-1,.26H39.6A9.4,9.4,0,0,1,34.09,41.38Zm2.92-26c1.33.74,6.18,8,6.33,9.5.13,1.31-.28,2.16-1.61,3.23a4.71,4.71,0,0,1-3.84.85l-.48-.11-.18-.06-.36-.12-.2-.07-.36-.16-.19-.08-.45-.25-.09,0c-2.67-1.57-6.71-6.48-7.23-7.12,0-.2.28-.85,1.92-1.75a23.18,23.18,0,0,0,2.13-1.42C33.84,16.68,36.26,14.93,37,15.34ZM24.85,26.94h0a12.3,12.3,0,0,1,3-4.78A51.88,51.88,0,0,0,33,27.52l0,0,.5.42h0c.14.11.28.23.43.33l.09.07.4.29.12.08L35,29l0,0,.22.12.32.17.18.08.37.18.16.06.39.14.14.05.41.12.06,0c0,1.18-.28,1.5-.32,1.5s-.29,0-.46,0h-.26c-2.18,0-7.19-.37-10.44-2.2L25,28.83c-.27-.21-.55-.75-.17-1.89Zm10.9,5.7a.63.63,0,0,1,0,.27v0h0l0,.05s0,0,0,.07l0,0a.84.84,0,0,1-.36.28c-1.78.86-6.09,2.56-6.14,2.56L29,36a2.42,2.42,0,0,1-1.19.38h-.08a.72.72,0,0,1-.19,0,1.17,1.17,0,0,1-.66-.82,15.23,15.23,0,0,1-.85-4.82,24.9,24.9,0,0,0,9.69,1.93ZM29.53,37l0,0,0,0c.52-.21,4.43-1.75,6.17-2.59h0l.3-.18,0,0a1.64,1.64,0,0,0,.25-.21l0,0,.08-.09a1.33,1.33,0,0,1,.49.42,2.59,2.59,0,0,1,.25.85l0,.11c0,.16,0,.33,0,.5l-3.78,4.68a1.44,1.44,0,0,1-.64.35l-.08,0a1.47,1.47,0,0,1-1-.21,8.21,8.21,0,0,1-3.11-3.16,4,4,0,0,0,.86-.4Zm19.61,2.15h0l-.21.08a13.39,13.39,0,0,1-4.87,1.06h-.59v0l.12-.36a.44.44,0,0,1,0-.1,2.19,2.19,0,0,0,.1-.34v0c0-.1,0-.2.08-.29V39.1c0-.1,0-.2.05-.29v0l0-.21v-.43h0v-.19c2.48-.93,4.43-1.37,5.38-1.23l.51.08a19.09,19.09,0,0,1,2.71.53,14.84,14.84,0,0,1-3.35,1.86Z"/></g></g></g></g></svg>