<svg xmlns="http://www.w3.org/2000/svg" viewBox="0 0 121.02 120.99"><defs><style>.cls-1{fill:#ebebeb;}.cls-2{fill:#fff;}.cls-3{fill:#c6d76b;}.cls-4{fill:#e3b163;}.cls-5{fill:#d0973e;}.cls-6{fill:#5e4739;}.cls-7{fill:#b0701d;}</style></defs><title>step1</title><g id="图层_2" data-name="图层 2"><g id="图层_1-2" data-name="图层 1"><g id="step1"><path class="cls-1" d="M25,109.44a60.47,60.47,0,0,0,71.09,0L60.51,60.49Z"/><path class="cls-1" d="M96.08,109.45a60.45,60.45,0,0,0,22-67.6L60.51,60.53Z"/><path class="cls-1" d="M118,41.79A60.42,60.42,0,0,0,60.53,0l0,60.49Z"/><path class="cls-1" d="M3,41.79A60.44,60.44,0,0,1,60.5,0V60.49Z"/><path class="cls-1" d="M25,109.45A60.44,60.44,0,0,1,3,41.85L60.51,60.53Z"/><g id="_1" data-name="1"><path class="cls-2" d="M24.84,108.75A59.95,59.95,0,0,1,3.3,42.48L59.7,60.79Z"/><path class="cls-3" d="M3.62,43.11,58.89,61.05l-34.16,47A59.45,59.45,0,0,1,3.62,43.11M3,41.85a60.44,60.44,0,0,0,22,67.6L60.51,60.53,3,41.85Z"/><g id="_1-2" data-name="1"><path class="cls-4" d="M13.75,81a4.83,4.83,0,0,0,.31,1.11c4.06,2,9.89,1.07,13.62-1.86,2-1.53,2.68-3.44,4.65-5.06s4.48-3.49,5.43-5.34c1.15-2,1.16-5.26.29-7.91a9.82,9.82,0,0,0-5.72-3.25c-3.8-.62-5.1.32-7.48,2-.87.64-1.87,1.35-3.16,2.12l-.09,0c-3.58,1.39-5.66,4.17-5.78,7.64,0,.56,0,1.35,0,2.11A9.47,9.47,0,0,1,15.71,76,8,8,0,0,1,15,77.45,8.25,8.25,0,0,0,13.75,81ZM34.07,64.35a.91.91,0,0,1,0,1.81.91.91,0,1,1,0-1.81ZM24.7,76.83A1.21,1.21,0,1,1,23.49,78,1.21,1.21,0,0,1,24.7,76.83Zm-2-7.92a.91.91,0,1,1-.9.9A.9.9,0,0,1,22.72,68.91Z"/><path class="cls-5" d="M37.74,69.85c-.94,1.85-3.52,3.7-5.44,5.34s-2.63,3.53-4.64,5.06C23.93,83.18,18.1,84.09,14,82.11A5.86,5.86,0,0,0,16.75,85a12,12,0,0,0,10,.36,11.06,11.06,0,0,0,5.38-4.07c.48-.58,1-1.25,1.72-2l0,0c.6-.56,1.26-1.16,2-1.81a30.51,30.51,0,0,0,4-4c1.28-1.83,1.32-5.23.1-8.24a11.87,11.87,0,0,0-2-3.26C38.9,64.59,38.9,67.82,37.74,69.85Z"/><path class="cls-6" d="M32.52,57.5h0c-4.31-.71-5.94.47-8.4,2.25-.85.61-1.81,1.31-3,2a9.6,9.6,0,0,0-6.49,8.69c0,.6,0,1.43,0,2.22a12.14,12.14,0,0,1-.05,2.81.5.5,0,0,0,0,.13,8.44,8.44,0,0,1-.6,1.25c-.68,1.27-1.51,2.86-1.41,4.22v0a6.63,6.63,0,0,0,3.62,4.93,12.86,12.86,0,0,0,6.05,1.42,12.26,12.26,0,0,0,5-1,12.11,12.11,0,0,0,5.83-4.42c.47-.56,1-1.21,1.67-2,.57-.55,1.23-1.14,1.93-1.76a31.22,31.22,0,0,0,4.23-4.23c1.53-2.19,1.63-6,.23-9.4A11.56,11.56,0,0,0,32.52,57.5ZM15.71,76a9.54,9.54,0,0,0,.15-3.32c0-.76-.07-1.55,0-2.11a8.35,8.35,0,0,1,5.74-7.63l.09,0c1.29-.77,2.28-1.49,3.16-2.11,2.37-1.72,3.68-2.67,7.48-2A9.76,9.76,0,0,1,38,61.94a11.64,11.64,0,0,1,2,3.26c1.23,3,1.18,6.41-.09,8.24a30.64,30.64,0,0,1-4,4c-.72.64-1.39,1.24-2,1.81l0,0c-.7.77-1.24,1.44-1.72,2a11,11,0,0,1-5.38,4.07,12,12,0,0,1-10-.36,5.8,5.8,0,0,1-2.72-2.91,4.17,4.17,0,0,1-.3-1.1A8.22,8.22,0,0,1,15,77.46,8.06,8.06,0,0,0,15.71,76Z"/><path class="cls-7" d="M34.07,66.14a.91.91,0,1,0-.91-.91A.9.9,0,0,0,34.07,66.14Z"/><path class="cls-7" d="M22.72,70.74a.91.91,0,1,0-.9-.9A.9.9,0,0,0,22.72,70.74Z"/><path class="cls-7" d="M24.7,79.22A1.21,1.21,0,1,0,23.49,78,1.21,1.21,0,0,0,24.7,79.22Z"/></g></g></g></g></g></svg>