<svg xmlns="http://www.w3.org/2000/svg" viewBox="0 0 121.02 120.99"><defs><style>.cls-1{fill:#ebebeb;}.cls-2{fill:#fff;}.cls-3{fill:#c6d76b;}.cls-4{fill:none;}.cls-5{fill:#c5dc76;}.cls-6{fill:#acd263;}.cls-7{fill:#5e4739;}.cls-10,.cls-8{fill:#e2e7c4;}.cls-9{fill:#f69b77;}.cls-10{opacity:0.4;}.cls-11{fill:#e3b163;}.cls-12{fill:#d0973e;}.cls-13{fill:#b0701d;}</style></defs><title>step3</title><g id="图层_2" data-name="图层 2"><g id="图层_1-2" data-name="图层 1"><path class="cls-1" d="M25,109.44a60.47,60.47,0,0,0,71.09,0L60.51,60.49Z"/><path class="cls-1" d="M96.08,109.45a60.45,60.45,0,0,0,22-67.6L60.51,60.53Z"/><path class="cls-1" d="M118,41.79A60.42,60.42,0,0,0,60.53,0l0,60.49Z"/><path class="cls-1" d="M3,41.79A60.44,60.44,0,0,1,60.5,0V60.49Z"/><path class="cls-1" d="M25,109.45A60.44,60.44,0,0,1,3,41.85L60.51,60.53Z"/><g id="_3" data-name="3"><path class="cls-2" d="M61,.5a60,60,0,0,1,56.38,41L61,59.81Z"/><path class="cls-3" d="M61.52,1a59.44,59.44,0,0,1,55.25,40.14l-55.26,18V1m-1-1h0l0,60.49L118,41.79A60.42,60.42,0,0,0,60.56,0Z"/><g id="_3-2" data-name="3"><path class="cls-4" d="M92.76,36.56a7.45,7.45,0,0,1-1.11,2.83,6.35,6.35,0,0,0,1.12-2.77.68.68,0,0,1,.12-.26A.34.34,0,0,0,92.76,36.56Z"/><path class="cls-4" d="M91.6,39.45l-.06.07Z"/><path class="cls-4" d="M98.13,36.72a3.11,3.11,0,0,1-.56,1.79A2.75,2.75,0,0,0,98.13,36.72Z"/><path class="cls-4" d="M98.5,32.67a1.36,1.36,0,0,0,.24-.38,1,1,0,0,0,0-.34,1.2,1.2,0,0,1-.06.32A1.56,1.56,0,0,1,98.5,32.67Z"/><path class="cls-4" d="M97.78,20.64a1.89,1.89,0,0,1-.34,1A1.48,1.48,0,0,0,97.78,20.64Z"/><path class="cls-4" d="M91.88,28.15a.06.06,0,0,1,0-.06.5.5,0,0,1,.09-.23.27.27,0,0,0-.1.17A.25.25,0,0,0,91.88,28.15Z"/><path class="cls-4" d="M99.23,26a1.79,1.79,0,0,0,.42-1.11,2.26,2.26,0,0,1-.47,1.19A.35.35,0,0,0,99.23,26Z"/><path class="cls-4" d="M96.29,34.2a.72.72,0,0,1,.11-.31.38.38,0,0,0-.11.3Z"/><path class="cls-4" d="M82.34,23.94a.32.32,0,0,0-.06.27.63.63,0,0,1,.1-.3Z"/><path class="cls-4" d="M71.1,36.5v.06a.64.64,0,0,1,.11-.3A.32.32,0,0,0,71.1,36.5Z"/><path class="cls-4" d="M92.45,19.45a.33.33,0,0,0,0,.14.5.5,0,0,1,0-.12,2.76,2.76,0,0,0,.13-1A3.17,3.17,0,0,1,92.45,19.45Z"/><path class="cls-4" d="M96.45,22.68a.71.71,0,0,1,.1-.3A.34.34,0,0,0,96.45,22.68Z"/><path class="cls-5" d="M71.11,36.61a0,0,0,0,1,0,0,.06.06,0,0,1,0-.06.32.32,0,0,1,.11-.24A.69.69,0,0,1,71.8,36,15.7,15.7,0,0,1,78,37.6c-.68-2.11-2.12-5.35-3.34-6.46A1.7,1.7,0,0,0,73,30.63a2.18,2.18,0,0,0-1.11,1.95.69.69,0,0,1-.73.63.71.71,0,0,1-.34-.13,4.14,4.14,0,0,0-3.63-.34,1.45,1.45,0,0,0-.84,1.34c0,1.37,1.21,2.64,2.12,3.56.74.75,1.23,1.25,1.15,1.87a1.78,1.78,0,0,1-1.24,1.31c-.64.28-.91.4-.65,1.43s2.19,1.37,2.84,1.22A7.34,7.34,0,0,0,73.23,42a9.61,9.61,0,0,1,2.52-1.5,10.78,10.78,0,0,1,2.49-1.2,14.88,14.88,0,0,0-6.48-2A.67.67,0,0,1,71.11,36.61Z"/><path class="cls-6" d="M89.21,33.46A11.65,11.65,0,0,1,89,36.1c-.17,1.36-.46,3.6.19,3.86A1.93,1.93,0,0,0,91,40a2.22,2.22,0,0,0,.56-.45l.06-.07.05-.06a7.45,7.45,0,0,0,1.11-2.83.34.34,0,0,1,.13-.2.69.69,0,0,1,1-.18,1,1,0,0,1,.17.18c1.2,1.82,2.39,2.73,3.14,2.45a1,1,0,0,0,.42-.32,3.06,3.06,0,0,0,.56-1.78,2.06,2.06,0,0,0,0-.35c-.07-.5-.31-1.36-1.21-1.43a.68.68,0,0,1-.61-.6v-.15h0a.35.35,0,0,1,.12-.3.68.68,0,0,1,.34-.26,4.57,4.57,0,0,0,1.75-1,1.3,1.3,0,0,0,.22-.38.87.87,0,0,0,.06-.32,1.87,1.87,0,0,0-.34-.9c-.45-.74-1.76-.93-3-1.11s-2.74-.4-3.42-1.33a.66.66,0,0,1-.12-.47.24.24,0,0,1,0-.12.26.26,0,0,1,.09-.17.7.7,0,0,1,.2-.22,7.44,7.44,0,0,1,3.53-.74c1.36-.08,2.87-.14,3.48-.82a2.22,2.22,0,0,0,.47-1.18v-.15a1.37,1.37,0,0,0-.25-.68,1.8,1.8,0,0,0-2.08-.62.68.68,0,0,1-.85-.45.62.62,0,0,1,0-.27.33.33,0,0,1,.1-.3.69.69,0,0,1,.3-.26,1.5,1.5,0,0,0,.61-.44,1.92,1.92,0,0,0,.34-1v-.12a2.47,2.47,0,0,0-1.64-2.14c-.82-.19-1.68.39-2.43,1.64a.69.69,0,0,1-.94.23.68.68,0,0,1-.32-.66.33.33,0,0,1,0-.14,3.55,3.55,0,0,0,.14-1,.94.94,0,0,0-.49-.76,2.14,2.14,0,0,0-2.41.68c-1,1.23-2.29,4.44-2,5.8h0a.17.17,0,0,1,0,.1v.12a.53.53,0,0,1,0,.17h0a1.09,1.09,0,0,1-.08.15l0,.06,0,0-.07.06h0l0,0-.07,0-.08,0h-.11a.68.68,0,0,1-.44-.1h0l-.1-.07s0,0,0,0l-.07-.07h0a7.13,7.13,0,0,1-1-2.84,4.92,4.92,0,0,0-1-2.69c-.53-.51-1-.74-1.27-.64s-.82,1-1,2.44a.7.7,0,0,1-.94.58,5.42,5.42,0,0,1-1.17-.78c-1.29-1-1.8-1.23-2.42-.48-.87,1,.46,3.08,1.42,3.87a.68.68,0,0,1,.21.72c-.16.55-.71.87-1.29,1.21-.31.19-1,.58-1,.79,0,0,0,.38,1.14,1.13a5.91,5.91,0,0,0,1.06-.4,5.14,5.14,0,0,1,1.57-.5,5.89,5.89,0,0,1,3.6.81.69.69,0,0,1,.24.24,5.5,5.5,0,0,1,1.33,1.12c.28-.34.56-.68.86-1-1.52-1.27-3.1-2.52-4.37-3.48a.71.71,0,0,1-.26-.61.37.37,0,0,1,.06-.27l.05,0s0,0,0-.05a.67.67,0,0,1,1-.13c.42.34,2.39,1.82,4.47,3.56a21.11,21.11,0,0,1,6-4.32.67.67,0,0,1,.9.34.69.69,0,0,1-.3.89,19.48,19.48,0,0,0-5.49,4c2,1.77,4,3.62,4.43,4.67a.67.67,0,0,1-.34.9.82.82,0,0,1-.27.06.71.71,0,0,1-.63-.41A15.48,15.48,0,0,0,89,30.05c0,.68-.14,1.53-.24,2.53,0,.1,0,.2,0,.31A.67.67,0,0,1,89.21,33.46Z"/><path class="cls-7" d="M92.07,33.4a.69.69,0,0,0,.63.41.63.63,0,0,0,.27-.06.68.68,0,0,0,.35-.9c-.46-1-2.39-2.89-4.44-4.66a19.52,19.52,0,0,1,5.49-4,.69.69,0,0,0,.29-.92.7.7,0,0,0-.89-.31,21.34,21.34,0,0,0-6,4.33c-2.08-1.74-4-3.24-4.47-3.56a.67.67,0,0,0-.95.13l0,.05a.64.64,0,0,0-.11.3.67.67,0,0,0,.27.6c1.26,1,2.85,2.22,4.36,3.49-.3.34-.58.68-.86,1A34.42,34.42,0,0,0,80.72,39.4c-.35-.29-.71-.57-1.09-.83a1.22,1.22,0,0,0,0-.27c-.45-1.73-2.25-6.54-4.08-8.19a3,3,0,0,0-3.1-.76,3.15,3.15,0,0,0-1.78,2.13,5.38,5.38,0,0,0-4.13,0A2.81,2.81,0,0,0,65,34c-.07,2,1.48,3.52,2.5,4.56a7.56,7.56,0,0,1,.72.78,3.54,3.54,0,0,1-.39.19c-.68.3-2,.87-1.41,3,.41,1.6,2.58,2.27,3.89,2.27a3.41,3.41,0,0,0,.55-.05A8.41,8.41,0,0,0,74,43.09c1.1-.8,2.14-1.56,3.39-1.5a.68.68,0,0,0,.72-.65h0a.67.67,0,0,0-.65-.71,4.49,4.49,0,0,0-1.74.26A10.43,10.43,0,0,0,73.22,42a7.19,7.19,0,0,1-2.69,1.48c-.65.13-2.61-.34-2.84-1.22s0-1.15.64-1.44a1.74,1.74,0,0,0,1.25-1.31c.08-.61-.41-1.11-1.16-1.86-.91-.92-2.16-2.19-2.11-3.56a1.4,1.4,0,0,1,.84-1.34,4.08,4.08,0,0,1,3.63.34.69.69,0,0,0,1-.16.73.73,0,0,0,.12-.35A2.19,2.19,0,0,1,73,30.63a1.71,1.71,0,0,1,1.68.51c1.23,1.11,2.65,4.35,3.35,6.46A15.56,15.56,0,0,0,71.8,36a.66.66,0,0,0-.58.31.64.64,0,0,0-.11.3v0a.69.69,0,0,0,.69.69,14.74,14.74,0,0,1,6.48,2,12.28,12.28,0,0,1,1.94,1.43l.11.08a33.21,33.21,0,0,0-1.15,4.7.68.68,0,0,0,.57.78h.1a.69.69,0,0,0,.68-.59C80.53,45.58,82,36,88,29.18c.33.28.65.56,1,.84A16.07,16.07,0,0,1,92.07,33.4Z"/><path class="cls-7" d="M100.32,26.81a2.94,2.94,0,0,0,.2-3.57,3,3,0,0,0-1.68-1.17,3,3,0,0,0,.3-1.67,3.82,3.82,0,0,0-2.7-3.35,3,3,0,0,0-2.62.72,2.21,2.21,0,0,0-1.09-1.27,3.45,3.45,0,0,0-4.1,1.08,13.35,13.35,0,0,0-1.82,3.64,5.34,5.34,0,0,0-1.34-3c-1-.93-1.87-1.25-2.69-.94a3.25,3.25,0,0,0-1.68,2.49L81,19.74c-1-.76-2.73-2.18-4.32-.28-1.42,1.71-.09,4,1.06,5.28l-.34.21c-.76.42-1.68,1-1.68,1.94,0,.78.57,1.54,1.84,2.39a1.06,1.06,0,0,0,.6.16,4.7,4.7,0,0,0,1.67-.51A5.25,5.25,0,0,1,81,28.54a4.46,4.46,0,0,1,2.83.61.69.69,0,0,0,.94-.24.71.71,0,0,0,0-.69A.76.76,0,0,0,84.5,28a5.91,5.91,0,0,0-3.62-.83,4.82,4.82,0,0,0-1.57.51,8,8,0,0,1-1.06.4c-1.12-.76-1.12-1.12-1.12-1.14,0-.21.68-.6,1-.79.58-.34,1.12-.66,1.29-1.21a.68.68,0,0,0-.22-.72c-1-.79-2.28-2.82-1.42-3.86.63-.76,1.13-.56,2.42.47a5.08,5.08,0,0,0,1.17.78.69.69,0,0,0,.61-.05A.68.68,0,0,0,82.3,21c.13-1.49.59-2.31,1-2.44s.74.13,1.27.64a4.71,4.71,0,0,1,1,2.69,7.1,7.1,0,0,0,1,2.83h0l.06.07,0,0a.31.31,0,0,0,.09.07h0a.63.63,0,0,0,.44.1h.12l.07,0,.08,0,0,0h0l.07-.06,0,0,0-.07a.53.53,0,0,0,.08-.15h0a.33.33,0,0,0,0-.17.11.11,0,0,0,0-.08,0,0,0,0,0,0,0,.21.21,0,0,0,0-.11h0c-.3-1.34,1-4.55,2-5.8a2.11,2.11,0,0,1,2.41-.68.91.91,0,0,1,.49.76,2.75,2.75,0,0,1-.12,1,.53.53,0,0,0,0,.12.69.69,0,0,0,.61.76.68.68,0,0,0,.65-.33c.76-1.24,1.62-1.82,2.43-1.64a2.49,2.49,0,0,1,1.65,2.15v.11a1.58,1.58,0,0,1-.34,1,1.79,1.79,0,0,1-.61.45.69.69,0,0,0-.31.25.76.76,0,0,0-.1.3.68.68,0,0,0,.61.75.82.82,0,0,0,.27,0,1.79,1.79,0,0,1,2.07.61,1.33,1.33,0,0,1,.26.68v.15A1.79,1.79,0,0,1,99.2,26l-.06.07c-.61.68-2.07.76-3.48.85a7.36,7.36,0,0,0-3.52.74.6.6,0,0,0-.2.22.5.5,0,0,0-.09.23.06.06,0,0,0,0,.06.66.66,0,0,0,.12.47c.68.93,2.07,1.13,3.41,1.33s2.57.37,3,1.11a1.87,1.87,0,0,1,.34.9.78.78,0,0,1,0,.34,1,1,0,0,1-.24.38,4.63,4.63,0,0,1-1.75,1,.71.71,0,0,0-.35.27.67.67,0,0,0-.1.31.38.38,0,0,0,0,.15.68.68,0,0,0,.61.6,1.45,1.45,0,0,1,1.2,1.43c0,.11,0,.22,0,.34a2.78,2.78,0,0,1-.55,1.79,1,1,0,0,1-.42.31c-.77.29-1.95-.62-3.14-2.44a.69.69,0,0,0-.95-.2.67.67,0,0,0-.29.44,6.49,6.49,0,0,1-1.13,2.77l-.05.07,0,.06A2.1,2.1,0,0,1,91,40a2,2,0,0,1-1.75,0c-.65-.26-.34-2.52-.18-3.86a12.29,12.29,0,0,0,.16-2.64.68.68,0,0,0-.58-.59h-.18a.68.68,0,0,0-.59.76h0a11.82,11.82,0,0,1-.17,2.3c-.28,2.17-.6,4.64,1,5.3a3.82,3.82,0,0,0,1.49.31,2.87,2.87,0,0,0,1.43-.36,5.06,5.06,0,0,0,2.11-2.88c1.67,2,3,2.12,3.89,1.8,1.45-.54,2-2.39,1.83-3.89a3.2,3.2,0,0,0-.88-1.91A3.06,3.06,0,0,0,100,32.78a2.73,2.73,0,0,0-.43-2.39c-.79-1.27-2.49-1.52-4-1.74-.44-.06-.89-.13-1.28-.22.45-.05,1-.08,1.45-.11C97.54,28.16,99.37,28.05,100.32,26.81Z"/></g></g><g id="_2" data-name="2"><path class="cls-8" d="M3,41.9A60.44,60.44,0,0,1,60.5.11V60.6Z"/><g id="_2-2" data-name="2"><path class="cls-2" d="M25,29l.76.42C29,31.22,34,31.62,36.22,31.59h.25c.19,0,.34,0,.46,0s.3-.33.32-1.51l-.06,0a3.17,3.17,0,0,1-.41-.12l-.14-.05-.39-.14-.16-.06-.37-.17-.18-.09-.32-.17L35,29.11l0,0-.35-.22-.12-.08-.41-.29L34,28.42l-.43-.33h0L33,27.67h0a52,52,0,0,1-5.13-5.37,12.24,12.24,0,0,0-3,4.79h0C24.47,28.19,24.75,28.72,25,29Z"/><path class="cls-9" d="M27.55,36.45l.19,0h.07a2.43,2.43,0,0,0,1.2-.38l.11-.06s4.36-1.71,6.14-2.56a.9.9,0,0,0,.36-.28l0,0,0-.06,0,0h0v0a1.18,1.18,0,0,0,0-.27A25.48,25.48,0,0,1,26,30.83a15.81,15.81,0,0,0,.85,4.82A1.31,1.31,0,0,0,27.55,36.45Z"/><path class="cls-2" d="M31.76,40.67a1.47,1.47,0,0,0,1,.22l.08,0a1.44,1.44,0,0,0,.64-.35l3.78-4.68c0-.17,0-.33,0-.5v-.1a2.86,2.86,0,0,0-.26-.86,1.49,1.49,0,0,0-.48-.42l-.09.09,0,0a1.27,1.27,0,0,1-.25.21l0,0-.3.18h0c-1.74.84-5.65,2.39-6.17,2.59l0,0,0,0a3.81,3.81,0,0,1-.85.38A8.19,8.19,0,0,0,31.76,40.67Z"/><path class="cls-9" d="M28.34,21c.52.64,4.55,5.54,7.23,7.11l.09.05c.15.08.3.17.46.24l.18.09.36.16.2.07.36.12.18,0a4.15,4.15,0,0,0,.48.11,4.66,4.66,0,0,0,3.84-.85c1.32-1.07,1.74-1.92,1.61-3.23-.14-1.47-5-8.74-6.32-9.48-.74-.41-3.17,1.33-4.61,2.38a23.18,23.18,0,0,1-2.13,1.42C28.63,20.15,28.32,20.81,28.34,21Z"/><path class="cls-9" d="M49.79,36.83l-.51-.08c-1-.14-2.9.29-5.39,1.23v.2h0v.42l0,.21v0a1.51,1.51,0,0,1,0,.28l0,.08a2.86,2.86,0,0,1-.07.28v0c0,.11-.06.23-.1.35a.32.32,0,0,1,0,.09l-.12.36v0h.6a13.43,13.43,0,0,0,4.87-1l.21-.09h0a14.78,14.78,0,0,0,3.37-1.91A19.67,19.67,0,0,0,49.79,36.83Z"/><path class="cls-9" d="M48.52,40.73l-.29.1,0,0-.34.1h0a13,13,0,0,1-3.51.6H44a5.82,5.82,0,0,1-.59,0h-.14l-.21,0c-.09.23-.18.41-.24.57l-.09.16a.85.85,0,0,1,0,.23,13.14,13.14,0,0,0,4.55.84,5.93,5.93,0,0,0,4.1-1.65,7.22,7.22,0,0,0-2.18-1.14l-.21.08-.07,0Z"/><path class="cls-9" d="M40.38,42.75a1.46,1.46,0,0,0,1-.26l0,0,0,0a.66.66,0,0,0,.09-.19h0V42l.07-.12s.09-.19.2-.47l0,0h0l.29-.65,0-.05h0l0-.06.08-.2v0a11.28,11.28,0,0,0,.39-1.25.07.07,0,0,1,0-.06s0-.1,0-.14,0-.13,0-.19h0a1.75,1.75,0,0,0,0-.85l0-.07a3,3,0,0,0-.73-.69A12.23,12.23,0,0,0,38.37,36v.09h0v.17l-.59.73-3.47,4.3h0l-.08.08-.15.13a9.55,9.55,0,0,0,5.5,1.26h.35Z"/><path class="cls-7" d="M53.77,37c-.26-.76-1.49-1-3.81-1.33l-.51-.07c-1.46-.23-4,.54-6,1.29a7.86,7.86,0,0,0-.8-.73,13.61,13.61,0,0,0-4.38-1.42,3,3,0,0,0-.35-1,2.45,2.45,0,0,0-1.06-.93V32.7a.65.65,0,0,0,.2,0c1.08-.14,1.29-1.51,1.32-2.45l.5,0a5.59,5.59,0,0,0,3.54-1.2,4.49,4.49,0,0,0,2-4.23h0c-.18-1.81-5.28-9.47-6.91-10.37-1.37-.76-3.64.87-5.83,2.45-.64.49-1.31.94-2,1.36-1.45.79-2.28,1.6-2.47,2.39a1.27,1.27,0,0,0,0,.67,13.22,13.22,0,0,0-3.48,5.37h0a3.2,3.2,0,0,0,0,2.5,2.15,2.15,0,0,0,1.1,1h0a16.2,16.2,0,0,0,.9,5.79,2.21,2.21,0,0,0,1.38,1.53l.23.07a9.35,9.35,0,0,0,3.76,4.09,2.56,2.56,0,0,0,1.66.37A10.46,10.46,0,0,0,39.6,43.9h.88a2.54,2.54,0,0,0,1.58-.45,14.38,14.38,0,0,0,5.15,1c2.41,0,4.65-1.39,5.19-2.38a.89.89,0,0,0,.05-.73c-.08-.2-.26-.69-1.9-1.45a12.36,12.36,0,0,0,3-1.92A.87.87,0,0,0,53.77,37Zm-4.64,3.47a7.42,7.42,0,0,1,2.18,1.13,5.91,5.91,0,0,1-4.1,1.66,13.29,13.29,0,0,1-4.55-.84,1.43,1.43,0,0,0,0-.22l.08-.17c.06-.15.15-.33.24-.57l.21,0h.14l.59,0h.36a14,14,0,0,0,3.52-.6h0l.33-.11h.06l.28-.1.32-.12.07,0Zm-15,1,.16-.13.08-.09h0L37.8,37l.59-.73V36a12,12,0,0,1,3.55,1.12,3,3,0,0,1,.72.69l0,.07a1.75,1.75,0,0,1,0,.85h0a.72.72,0,0,1,0,.19.61.61,0,0,1,0,.13s0,0,0,.06a10.12,10.12,0,0,1-.4,1.25v0a1.67,1.67,0,0,1-.08.2l0,.06h0l0,0-.28.65h0l0,.05c-.12.28-.21.46-.21.46l-.07.13,0,.15v.1h0a.51.51,0,0,1-.09.18v0l0,0a1.4,1.4,0,0,1-1,.26H39.6A9.48,9.48,0,0,1,34.09,41.49Zm2.92-26c1.33.74,6.18,8,6.33,9.49.13,1.32-.28,2.16-1.61,3.23a4.68,4.68,0,0,1-3.84.86l-.48-.12-.18-.05-.36-.12-.2-.07-.36-.16-.19-.09a4.92,4.92,0,0,1-.45-.24l-.09-.05c-2.67-1.56-6.71-6.47-7.23-7.11,0-.2.28-.85,1.92-1.75a25.42,25.42,0,0,0,2.13-1.42C33.84,16.78,36.26,15,37,15.45ZM24.85,27.05h0a12.34,12.34,0,0,1,3-4.79A52,52,0,0,0,33,27.63l0,0,.5.41h0l.43.34.09.07.4.28.12.08.36.23,0,0,.22.11.32.18.18.08.37.17.16.06.39.15.14.05.41.11.06,0c0,1.19-.28,1.5-.32,1.51s-.29,0-.46,0h-.26c-2.18,0-7.19-.37-10.44-2.19L25,28.94c-.27-.22-.55-.75-.17-1.89Zm10.9,5.69a.63.63,0,0,1,0,.27v0h0l0,.06s0,0,0,.06l0,0a.79.79,0,0,1-.36.29C33.5,34.33,29.19,36,29.14,36L29,36.1a2.42,2.42,0,0,1-1.19.38h-.08l-.19,0a1.22,1.22,0,0,1-.66-.82,15.29,15.29,0,0,1-.85-4.83,25.12,25.12,0,0,0,9.69,1.94Zm-6.22,4.4,0,0h0c.52-.21,4.43-1.76,6.17-2.59h0l.3-.18,0,0,.25-.21,0,0a.39.39,0,0,0,.08-.1,1.35,1.35,0,0,1,.49.43,2.46,2.46,0,0,1,.25.85l0,.1c0,.17,0,.34,0,.51l-3.78,4.67a1.46,1.46,0,0,1-.64.36l-.08,0a1.52,1.52,0,0,1-1-.21,8.17,8.17,0,0,1-3.11-3.17,3.54,3.54,0,0,0,.86-.4ZM49.14,39.3h0l-.21.08a13.38,13.38,0,0,1-4.87,1h-.59v0l.12-.36a.29.29,0,0,1,0-.09,2.3,2.3,0,0,0,.1-.35v0c0-.1,0-.2.08-.28V39.2c0-.1,0-.19.05-.28v0l0-.22v-.42h0V38c2.48-.92,4.43-1.37,5.38-1.22l.51.08a19.09,19.09,0,0,1,2.71.53,15.24,15.24,0,0,1-3.35,1.86Z"/></g><path class="cls-10" d="M3,42.28A60.44,60.44,0,0,1,60.5.49V61Z"/><path class="cls-2" d="M25.45,29A11.41,11.41,0,1,1,36.86,40.4,11.42,11.42,0,0,1,25.45,29ZM47.3,29A10.45,10.45,0,1,0,36.86,39.44,10.45,10.45,0,0,0,47.3,29Zm-15,4.15C35.58,30.51,38,28.4,38,26.72a1.4,1.4,0,0,0-1.56-1.61A3.89,3.89,0,0,0,34,26.28l-2-2a6.55,6.55,0,0,1,4.83-2.07c2.8,0,4.65,1.68,4.65,4.11,0,2.13-2.13,4.36-4,6,.7-.07,1.71-.12,2.35-.12h2v3.05h-9.6Z"/></g><g id="_1" data-name="1"><g id="_1-2" data-name="1"><path class="cls-8" d="M25,109.56A60.46,60.46,0,0,1,3,42L60.51,60.63Z"/><g id="_1-3" data-name="1"><path class="cls-11" d="M13.75,81.11a4.61,4.61,0,0,0,.31,1.1c4.06,2,9.89,1.08,13.62-1.85,2-1.54,2.68-3.44,4.65-5.06s4.48-3.49,5.43-5.34c1.15-2,1.16-5.27.29-7.92a9.93,9.93,0,0,0-5.72-3.25c-3.8-.62-5.1.33-7.48,2.05C24,61.47,23,62.19,21.69,63l-.09,0c-3.58,1.38-5.66,4.16-5.78,7.63,0,.57,0,1.36,0,2.12a9.49,9.49,0,0,1-.15,3.32A8,8,0,0,1,15,77.56C14.46,78.63,13.68,80.09,13.75,81.11ZM34.07,64.45a.91.91,0,1,1-.91.91.9.9,0,0,1,.91-.91ZM24.7,76.93a1.21,1.21,0,1,1-1.21,1.21A1.21,1.21,0,0,1,24.7,76.93Zm-2-7.92a.91.91,0,1,1-.9.91A.91.91,0,0,1,22.72,69Z"/><path class="cls-12" d="M37.74,70c-.94,1.85-3.52,3.7-5.44,5.34s-2.63,3.52-4.64,5.06C23.93,83.29,18.1,84.2,14,82.21a5.82,5.82,0,0,0,2.72,2.9,12,12,0,0,0,10,.37,11.07,11.07,0,0,0,5.38-4.08c.48-.58,1-1.24,1.72-2l0,0c.6-.57,1.26-1.17,2-1.81a31.14,31.14,0,0,0,4-4c1.28-1.83,1.32-5.22.1-8.24A11.87,11.87,0,0,0,38,62C38.9,64.69,38.9,67.93,37.74,70Z"/><path class="cls-7" d="M32.52,57.6h0c-4.31-.71-5.94.48-8.4,2.26-.85.6-1.81,1.3-3,2a9.58,9.58,0,0,0-6.49,8.68c0,.61,0,1.43,0,2.22a12.1,12.1,0,0,1-.05,2.81.58.58,0,0,0,0,.14A8.33,8.33,0,0,1,14,77c-.68,1.28-1.51,2.87-1.41,4.23v0a6.6,6.6,0,0,0,3.62,4.92,12.87,12.87,0,0,0,6.05,1.43,12.42,12.42,0,0,0,5-1,12.23,12.23,0,0,0,5.83-4.42c.47-.57,1-1.21,1.67-2,.57-.54,1.23-1.13,1.93-1.75a31.81,31.81,0,0,0,4.23-4.23c1.53-2.2,1.63-6,.23-9.4A11.59,11.59,0,0,0,32.52,57.6ZM15.71,76.08a9.56,9.56,0,0,0,.15-3.32c0-.76-.07-1.55,0-2.12A8.35,8.35,0,0,1,21.56,63l.09,0c1.29-.77,2.28-1.49,3.16-2.12,2.37-1.71,3.68-2.66,7.48-2A9.87,9.87,0,0,1,38,62a11.64,11.64,0,0,1,2,3.26c1.23,3,1.18,6.41-.09,8.24a31.28,31.28,0,0,1-4,4c-.72.63-1.39,1.23-2,1.81l0,0c-.7.77-1.24,1.43-1.72,2a11,11,0,0,1-5.38,4.08,11.92,11.92,0,0,1-10-.37,5.78,5.78,0,0,1-2.72-2.9,4.17,4.17,0,0,1-.3-1.1A8.18,8.18,0,0,1,15,77.57,8.06,8.06,0,0,0,15.71,76.08Z"/><path class="cls-13" d="M34.07,66.25a.91.91,0,1,0-.91-.91A.9.9,0,0,0,34.07,66.25Z"/><path class="cls-13" d="M22.72,70.85a.91.91,0,1,0,0-1.81.91.91,0,0,0,0,1.81Z"/><path class="cls-13" d="M24.7,79.33a1.21,1.21,0,1,0-1.21-1.21A1.21,1.21,0,0,0,24.7,79.33Z"/></g><path class="cls-10" d="M25,109.94A60.44,60.44,0,0,1,3,42.34L60.51,61Z"/></g><path class="cls-2" d="M15.92,70.94a11.4,11.4,0,1,1,11.4,11.4A11.41,11.41,0,0,1,15.92,70.94Zm21.84,0A10.44,10.44,0,1,0,27.32,81.38,10.45,10.45,0,0,0,37.76,70.94ZM26.08,68.06H23.41V65.78a10.75,10.75,0,0,0,3.6-1.3h2.74v12.7H26.08Z"/></g></g></g></svg>