<svg width="35" height="36" viewBox="0 0 35 36" fill="none" xmlns="http://www.w3.org/2000/svg">
<path d="M12.2146 12.2224C13.8484 9.8747 12.4042 5.48853 10.9584 2.54372C10.6171 1.84844 11.1109 1.01252 11.8794 1.10967C17.4758 1.81719 21.487 5.8115 23.6758 9.09259C24.2034 9.88344 25.5653 9.72631 25.7961 8.80408L26.0026 7.97903C26.147 7.40217 26.7601 7.08058 27.2771 7.37445C29.9595 8.89922 34.1043 13.1443 34.9359 21.4494C35.7742 29.8217 28.2053 33.6555 23.0035 34.8721C22.2227 35.0547 21.5064 34.1849 21.5422 33.384C21.6776 30.3522 20.2239 25.6988 18.0039 25.382C16.0797 25.1075 16.2145 30.6025 16.6289 34.4458C16.7073 35.1723 16.014 35.7548 15.3229 35.5175C-2.07465 29.543 2.54498 17.2344 7.59619 11.0962C7.91257 10.7117 8.46783 10.6432 8.88228 10.9192L11.0621 12.3706C11.4402 12.6223 11.9552 12.5953 12.2146 12.2224Z" fill="#A1C45A"/>
<path d="M9.66695 11.5396C11.1379 9.33952 9.8359 5.30068 8.50345 2.54284C8.16697 1.84642 8.6617 1.01323 9.42815 1.11703C14.5333 1.80837 18.2194 5.4321 20.2793 8.47449C20.8133 9.26314 22.1855 9.10478 22.4155 8.18056L22.5487 7.64579C22.6926 7.06749 23.308 6.74622 23.8227 7.04655C26.3389 8.51458 30.1668 12.5154 30.9399 20.2809C31.7198 28.1147 24.7375 31.7341 19.865 32.9099C19.0863 33.0978 18.362 32.2299 18.3872 31.4293C18.4773 28.5695 17.1223 24.2838 15.0662 23.9888C13.277 23.732 13.3866 28.8261 13.7676 32.4448C13.8441 33.1719 13.1523 33.7541 12.4619 33.5136C-3.70116 27.8829 0.560887 16.3533 5.27374 10.5624C5.58933 10.1746 6.14706 10.1062 6.5625 10.3844L8.51566 11.6923C8.89479 11.9462 9.41335 11.9189 9.66695 11.5396Z" stroke="#8CA549" stroke-width="2"/>
</svg>
