<svg width="36" height="40" viewBox="0 0 36 40" fill="none" xmlns="http://www.w3.org/2000/svg">
<path d="M31.3483 26.3761C32.6118 14.5535 23.9778 11.5979 19.5029 11.5979C9.63154 11.1985 7.2627 17.1896 7.2627 21.9826C7.2627 24.5634 9.29001 26.324 11.2978 27.3616C12.7235 28.0984 13.705 29.6192 13.5901 31.2199C13.0558 38.6601 17.1452 40.1946 19.5029 39.9561C22.9249 40.3555 30.0848 38.1987 31.3483 26.3761Z" fill="#A1C45A"/>
<circle cx="7.26316" cy="5.26316" r="5.26316" fill="#A1C45A"/>
<circle cx="19.8951" cy="4.21053" r="4.21053" fill="#A1C45A"/>
<circle cx="31.9996" cy="6.84211" r="3.68421" fill="#A1C45A"/>
<path d="M27.8813 25.0573C29.0817 13.8259 20.8794 11.018 16.6282 11.018C7.2504 10.6386 5 16.3302 5 20.8835C5 23.2807 6.84116 24.9329 8.70596 25.9267C10.1222 26.6815 11.1039 28.201 11.0013 29.8026C10.5563 36.7469 14.4036 38.1833 16.6282 37.9583C19.8791 38.3378 26.681 36.2888 27.8813 25.0573Z" stroke="#8CA549" stroke-width="2"/>
<circle cx="5" cy="5" r="4" stroke="#8CA549" stroke-width="2"/>
<circle cx="17" cy="4" r="3" stroke="#8CA549" stroke-width="2"/>
<circle cx="28.5" cy="6.5" r="2.5" stroke="#8CA549" stroke-width="2"/>
</svg>
