<svg xmlns="http://www.w3.org/2000/svg" viewBox="0 0 72.05 90.97"><title>Beans</title><path d="M186.32,128.51a2.71,2.71,0,0,0-1.34.27,2,2,0,0,0-.72.71,5.65,5.65,0,0,0-.66,1.86,2,2,0,0,1-2,1.63,2.31,2.31,0,0,1-.37,0,2,2,0,0,1-1.59-2.34,9.17,9.17,0,0,1,1.2-3.25l.16-.23a4.48,4.48,0,0,0-.5.11c-2.19.69-3.95,2.72-4.95,5.72a11.2,11.2,0,0,1-3.17,4.27c-2.9,2.25-4.55,5.11-4.53,7.85a5.73,5.73,0,0,0,2.4,4.68,8.32,8.32,0,0,0,7.46,1,16,16,0,0,0,8.14-5.94C190.24,139,190.42,131.7,186.32,128.51Zm-.58,10.72a9.06,9.06,0,0,0,.9-6.32.68.68,0,0,1,1.35-.22,10.44,10.44,0,0,1-1.08,7.25.68.68,0,0,1-.94.23l-.06,0A.69.69,0,0,1,185.74,139.23Z" transform="translate(-121.19 -95.45)" fill="#c97332"/><path d="M188.6,125.21c-.11-.09-.24-.16-.36-.24a2,2,0,0,0-.3-.2,10.15,10.15,0,0,0-8.6-1.34c-3.45,1.08-6.13,4-7.55,8.26a7.76,7.76,0,0,1-1.82,2.38c-3.9,3-6.12,7.05-6.08,11.05a9.74,9.74,0,0,0,4,7.85,11.35,11.35,0,0,0,6.87,2.21,14.68,14.68,0,0,0,4.11-.61,20,20,0,0,0,10.22-7.39C194.81,139.53,194.59,129.68,188.6,125.21Zm-10.85,25.52a8.32,8.32,0,0,1-7.46-1,5.73,5.73,0,0,1-2.4-4.68c0-2.74,1.63-5.6,4.53-7.85a11.2,11.2,0,0,0,3.17-4.27c1-3,2.76-5,4.95-5.72a4.48,4.48,0,0,1,.5-.11l-.16.23a9.17,9.17,0,0,0-1.2,3.25,2,2,0,0,0,1.59,2.34,2.31,2.31,0,0,0,.37,0,2,2,0,0,0,2-1.63,5.65,5.65,0,0,1,.66-1.86,2,2,0,0,1,.72-.71,2.71,2.71,0,0,1,1.34-.27c4.1,3.19,3.92,10.45-.43,16.28A16,16,0,0,1,177.75,150.73Z" transform="translate(-121.19 -95.45)" fill="#5e4739"/><path d="M186,140.17a.68.68,0,0,0,.94-.23,10.44,10.44,0,0,0,1.08-7.25.68.68,0,0,0-1.35.22,9.06,9.06,0,0,1-.9,6.32.69.69,0,0,0,.17.9Z" transform="translate(-121.19 -95.45)" fill="#fff"/><path d="M173.05,163.47a18.13,18.13,0,0,0-4.46-.57A14.54,14.54,0,0,0,163,164a10.72,10.72,0,0,0-2.33,1.33c.18.13.37.24.54.38a.67.67,0,0,1,.32-.62,10.36,10.36,0,0,1,7.11-1.76.69.69,0,0,1,.57.78.17.17,0,0,1,0,.07.69.69,0,0,1-.77.51,9,9,0,0,0-6.19,1.57.62.62,0,0,1-.26.09,11.57,11.57,0,0,1,4.09,7.45,9.84,9.84,0,0,1-.33,3.8c.36.06.72.11,1.11.15a9.37,9.37,0,0,1,3.84,1.23c3.17,1.82,6.66,2.24,9.33,1.11a5.93,5.93,0,0,0,3.56-4,8.32,8.32,0,0,0-1.94-7.28A16,16,0,0,0,173.05,163.47Z" transform="translate(-121.19 -95.45)" fill="#c97332"/><path d="M174.05,159.6a20,20,0,0,0-12.59.67,14,14,0,0,0-4.61,3,20,20,0,0,0-2.76-.8,9.67,9.67,0,0,0,1.22-3.06c1.57-7.29-4.74-14.87-14.07-16.88a20.08,20.08,0,0,0-12.56,1.17,12.22,12.22,0,0,0-7.22,8.43,9.47,9.47,0,0,0,1.52,8c2.15,2.84,6.14,4.5,11.53,4.81a5.63,5.63,0,0,1,2.27.63c.25.13.49.25.74.36-4,2.93-6.37,7.18-5.88,11.63a9.46,9.46,0,0,0,4,7.08,11.37,11.37,0,0,0,6.54,1.78,23.13,23.13,0,0,0,5.92-.86,5.52,5.52,0,0,1,2.36-.12c4.91.79,9.46-.42,12.51-3.31a10.87,10.87,0,0,0,.81-.86c.86.17,1.75.32,2.71.42a5.46,5.46,0,0,1,2.24.72,16.25,16.25,0,0,0,8,2.28,12.49,12.49,0,0,0,4.83-.95,9.87,9.87,0,0,0,5.89-6.72,12.2,12.2,0,0,0-2.69-10.76A20.06,20.06,0,0,0,174.05,159.6ZM183.57,176a5.93,5.93,0,0,1-3.56,4c-2.67,1.13-6.16.71-9.33-1.11a9.37,9.37,0,0,0-3.84-1.23c-.39,0-.75-.09-1.11-.15a9.84,9.84,0,0,0,.33-3.8,11.57,11.57,0,0,0-4.09-7.45c-.25-.22-.5-.44-.77-.64s-.36-.25-.54-.38A10.72,10.72,0,0,1,163,164a14.54,14.54,0,0,1,5.6-1.06,18.13,18.13,0,0,1,4.46.57,16,16,0,0,1,8.58,5.28A8.32,8.32,0,0,1,183.57,176Zm-32.52,5.46a9.61,9.61,0,0,0-4,.2,17.06,17.06,0,0,1-5.92.69,2.3,2.3,0,0,1,.28-.06,2,2,0,0,0-1-3.87,5.57,5.57,0,0,1-2.13.22,2.54,2.54,0,0,1-1.15-.44,4.9,4.9,0,0,1-1.35-2,2.25,2.25,0,0,0-.12-.21c.24-4.8,5.43-9.09,12.21-9.84,7.3-.8,13.71,2.8,14.28,8a5.92,5.92,0,0,1-1.91,5C158.07,181.23,154.66,182.07,151.05,181.49ZM134.75,161a17.1,17.1,0,0,1-5.82-1.22l.27,0h.12a2,2,0,0,0,.12-4,5.67,5.67,0,0,1-2.1-.47,2.53,2.53,0,0,1-1-.78,5.08,5.08,0,0,1-.65-2.34,1.55,1.55,0,0,0,0-.21,8.71,8.71,0,0,1,4.66-4.59,14.83,14.83,0,0,1,6.22-1.3,18.67,18.67,0,0,1,3.82.41c7.17,1.55,12.11,7,11,12.13a5.78,5.78,0,0,1-2.25,3.47c-.59,0-1.19.06-1.79.13a21.2,21.2,0,0,0-4.94,1.14,13.32,13.32,0,0,1-3.78-1.32A9.52,9.52,0,0,0,134.75,161Z" transform="translate(-121.19 -95.45)" fill="#5e4739"/><path d="M162.23,166.22a9,9,0,0,1,6.19-1.57.69.69,0,0,0,.77-.51.17.17,0,0,0,0-.07.69.69,0,0,0-.57-.78,10.36,10.36,0,0,0-7.11,1.76.67.67,0,0,0-.32.62c.27.2.52.42.77.64A.62.62,0,0,0,162.23,166.22Z" transform="translate(-121.19 -95.45)" fill="#fff"/><path d="M147.36,162.21c.6-.07,1.2-.11,1.79-.13a5.78,5.78,0,0,0,2.25-3.47c1.11-5.14-3.83-10.58-11-12.13a18.67,18.67,0,0,0-3.82-.41,14.83,14.83,0,0,0-6.22,1.3A8.71,8.71,0,0,0,125.7,152a1.55,1.55,0,0,1,0,.21,5.08,5.08,0,0,0,.65,2.34,2.53,2.53,0,0,0,1,.78,5.67,5.67,0,0,0,2.1.47,2,2,0,0,1-.12,4h-.12l-.27,0a17.1,17.1,0,0,0,5.82,1.22,9.52,9.52,0,0,1,3.89,1.08,13.32,13.32,0,0,0,3.78,1.32A21.2,21.2,0,0,1,147.36,162.21Zm-10.8-14.91a.68.68,0,0,1-.74.54,9.08,9.08,0,0,0-6.13,1.81.68.68,0,0,1-.95-.19.69.69,0,0,1,.19-1,10.39,10.39,0,0,1,7-2,.68.68,0,0,1,.6.75A.15.15,0,0,1,136.56,147.3Z" transform="translate(-121.19 -95.45)" fill="#c97332"/><path d="M136,146.48a10.39,10.39,0,0,0-7,2,.69.69,0,0,0-.19,1,.68.68,0,0,0,.95.19,9.08,9.08,0,0,1,6.13-1.81.68.68,0,0,0,.74-.54.15.15,0,0,0,0-.07A.68.68,0,0,0,136,146.48Z" transform="translate(-121.19 -95.45)" fill="#fff"/><path d="M162.08,174.2c-.57-5.22-7-8.82-14.28-8-6.78.75-12,5-12.21,9.84a2.25,2.25,0,0,1,.12.21,4.9,4.9,0,0,0,1.35,2,2.54,2.54,0,0,0,1.15.44,5.57,5.57,0,0,0,2.13-.22,2,2,0,0,1,1,3.87,2.3,2.3,0,0,0-.28.06,17.06,17.06,0,0,0,5.92-.69,9.61,9.61,0,0,1,4-.2c3.61.58,7-.26,9.12-2.26A5.92,5.92,0,0,0,162.08,174.2Zm-18.19-5.28a9,9,0,0,0-5.24,3.66.69.69,0,0,1-1,.12.69.69,0,0,1-.12-1,10.4,10.4,0,0,1,6-4.16.68.68,0,0,1,.81.52.2.2,0,0,1,0,.07A.69.69,0,0,1,143.89,168.92Z" transform="translate(-121.19 -95.45)" fill="#c97332"/><path d="M143.6,167.58a10.4,10.4,0,0,0-6,4.16.69.69,0,0,0,.12,1,.69.69,0,0,0,1-.12,9,9,0,0,1,5.24-3.66.69.69,0,0,0,.53-.75.2.2,0,0,0,0-.07A.68.68,0,0,0,143.6,167.58Z" transform="translate(-121.19 -95.45)" fill="#fff"/><path d="M149.23,123.83a5.94,5.94,0,0,0,5.37,0c2.63-1.22,4.66-4.09,5.44-7.66a9.59,9.59,0,0,1,1.66-3.68,17.16,17.16,0,0,0,2.79-5.24l-.15.22a2,2,0,0,1-1.61.81,2,2,0,0,1-1.19-.39,2,2,0,0,1-.42-2.8,5.75,5.75,0,0,0,1-1.9,2.48,2.48,0,0,0,0-1.24,4.83,4.83,0,0,0-1.32-1.94c-.07-.07-.12-.15-.18-.22a8.71,8.71,0,0,0-6.52.63A16,16,0,0,0,147,107.6C143.56,114.1,144.57,121.38,149.23,123.83Zm1.58-18.63a10.3,10.3,0,0,1,6.07-4.09.68.68,0,0,1,.39,1.31A9,9,0,0,0,152,106a.69.69,0,0,1-.89.23l-.06,0A.68.68,0,0,1,150.81,105.2Z" transform="translate(-121.19 -95.45)" fill="#c97332"/><path d="M147.37,127.37a9.71,9.71,0,0,0,4.55,1.14,10.43,10.43,0,0,0,4.38-1c3.8-1.78,6.59-5.58,7.64-10.44a5.6,5.6,0,0,1,1-2.15c3.22-4.33,4.5-8.46,3.71-11.94a9.52,9.52,0,0,0-5.15-6.27,12.22,12.22,0,0,0-11.09.14,20.07,20.07,0,0,0-8.95,8.89C139,114.2,140.76,123.89,147.37,127.37Zm6.72-26.9a8.71,8.71,0,0,1,6.52-.63c.06.07.11.15.18.22a4.83,4.83,0,0,1,1.32,1.94,2.48,2.48,0,0,1,0,1.24,5.75,5.75,0,0,1-1,1.9,2,2,0,0,0,.42,2.8,2,2,0,0,0,1.19.39,2,2,0,0,0,1.61-.81l.15-.22a17.16,17.16,0,0,1-2.79,5.24,9.59,9.59,0,0,0-1.66,3.68c-.78,3.57-2.81,6.44-5.44,7.66a5.94,5.94,0,0,1-5.37,0c-4.66-2.45-5.67-9.73-2.25-16.23A16,16,0,0,1,154.09,100.47Z" transform="translate(-121.19 -95.45)" fill="#5e4739"/><path d="M151,106.15l.06,0A.69.69,0,0,0,152,106a9,9,0,0,1,5.32-3.54.68.68,0,0,0-.39-1.31,10.3,10.3,0,0,0-6.07,4.09A.68.68,0,0,0,151,106.15Z" transform="translate(-121.19 -95.45)" fill="#fff"/></svg>