<svg xmlns="http://www.w3.org/2000/svg" viewBox="0 0 106.85 86.08"><title>Cheese</title><path d="M117.49,132l-6.25,7.2,56-6.15a12.21,12.21,0,0,1,23.21-2.56l16.22-1.78c-9.78-30.66-53-26.41-58.45-25.75l-20.33,17.51A7.94,7.94,0,0,1,117.49,132Zm40.32-23.9a7.94,7.94,0,1,1-7.94,7.94A7.95,7.95,0,0,1,157.81,108.05Z" transform="translate(-104.38 -98.29)" fill="#ffeb8a"/><path d="M191.4,134.36c0,.31,0,.61,0,.92a12.21,12.21,0,0,1-24.3,1.75l-58.76,6.45V151a11.52,11.52,0,0,1,0,23v6.15l43.16-4.74v-.28a11.52,11.52,0,0,1,22.82-2.22l32.87-3.62V132.62Zm-50,25a7.94,7.94,0,1,1,7.94-7.93A7.94,7.94,0,0,1,141.42,159.38Z" transform="translate(-104.38 -98.29)" fill="#ffeb8a"/><path d="M179.22,127.07a8.25,8.25,0,1,0,7.95,6.16s0,0,0-.08A8.22,8.22,0,0,0,179.22,127.07Z" transform="translate(-104.38 -98.29)" fill="#dabe92"/><path d="M141.42,147.51a3.94,3.94,0,1,0,3.94,3.94A3.94,3.94,0,0,0,141.42,147.51Z" transform="translate(-104.38 -98.29)" fill="#dabe92"/><path d="M141.42,143.51a7.94,7.94,0,1,0,7.94,7.94A7.95,7.95,0,0,0,141.42,143.51Zm0,11.87a3.94,3.94,0,1,1,3.94-3.93A3.94,3.94,0,0,1,141.42,155.38Z" transform="translate(-104.38 -98.29)" fill="#5e4739"/><path d="M157.81,119.93a3.94,3.94,0,1,0-3.94-3.94A3.95,3.95,0,0,0,157.81,119.93Z" transform="translate(-104.38 -98.29)" fill="#dabe92"/><path d="M157.81,123.93a7.94,7.94,0,1,0-7.94-7.94A8,8,0,0,0,157.81,123.93Zm0-11.88a3.94,3.94,0,1,1-3.94,3.94A3.94,3.94,0,0,1,157.81,112.05Z" transform="translate(-104.38 -98.29)" fill="#5e4739"/><path d="M211.23,130.34s0-.06,0-.09a1.88,1.88,0,0,0-.05-.33v0c-4.06-16.06-16.52-26.49-36-30.16A93,93,0,0,0,147.06,99a2,2,0,0,0-1,.46l-22.39,19.29a2,2,0,0,0,.12,3.13,3.87,3.87,0,0,1,1.62,3.16,4,4,0,0,1-4,3.94,3.9,3.9,0,0,1-2.81-1.19,2,2,0,0,0-1.48-.6,2,2,0,0,0-1.46.69l-10.83,12.47a.25.25,0,0,0,0,.07,2,2,0,0,0-.25.39l0,.07a1.88,1.88,0,0,0-.12.48.88.88,0,0,0,0,.17s0,.09,0,.13V153.1a2,2,0,0,0,.68,1.49,2,2,0,0,0,1.56.5l.32-.05a3.56,3.56,0,0,1,.47,0,7.52,7.52,0,1,1,0,15,3.87,3.87,0,0,1-.49-.05l-.3,0a2,2,0,0,0-1.56.49,2,2,0,0,0-.68,1.5v10.44a2,2,0,0,0,.67,1.49,2,2,0,0,0,1.33.51h.22l47.39-5.2a2,2,0,0,0,1.73-2.41,8,8,0,0,1-.18-1.63,7.52,7.52,0,0,1,15,0,2,2,0,0,0,2.21,2l36.66-4a2,2,0,0,0,1.78-2V130.34ZM174.36,172.9a11.52,11.52,0,0,0-22.82,2.22v.28l-43.16,4.74V174a11.52,11.52,0,0,0,0-23v-7.55L167.14,137a12.21,12.21,0,0,0,24.3-1.75c0-.31,0-.61,0-.92l15.83-1.74v36.66Zm-45-47.83a8,8,0,0,0-1.52-4.65l20.33-17.51c5.43-.66,48.67-4.91,58.45,25.75l-16.22,1.78A12.21,12.21,0,0,0,167.23,133l-56,6.15,6.25-7.2a7.95,7.95,0,0,0,11.91-6.88Zm58,10.21a8.25,8.25,0,1,1-.29-2.13s0,.06,0,.08A8.17,8.17,0,0,1,187.44,135.28Z" transform="translate(-104.38 -98.29)" fill="#5e4739"/></svg>