<svg xmlns="http://www.w3.org/2000/svg" viewBox="0 0 101.53 93.38"><title>Chicken</title><path d="M151,103.29c-7.45-9.61-19.7-26.69-18-33.05h0c.59-2.16,2.39-4.81,5.5-8.08,1.36-1.46,3-3.06,4.88-4.72,2-1.84,4.25-3.71,6.45-5.5a7.85,7.85,0,0,0-7.76.74c-.46.32-3.87,2.9-5.32,4.06-3.29,2.52-6.8,5.44-9.93,8.25-1.78,1.59-3.33,3.09-4.63,4.48-3.42,3.6-4.32,5.54-4.55,6.38-.69,2.6,4.43,13,17.3,29.57,10.38,13.38,21.47,25.08,25.25,26.63.1,0,2.36.81,11.53-5.39C165.65,121.12,157.54,111.73,151,103.29Z" transform="translate(-113.62 -42.66)" fill="#efa167"/><path d="M196.49,81.2c-2.34-2.77-4.55-5.38-6.51-7.9-1.55-2-3.8-5.29-6.17-8.8-1.42-2.09-2.85-4.22-4.15-6a74,74,0,0,0-7.35-8.92c-3.23-3.18-7.87-3.77-11-1.42-.46.3-3.86,2.89-5.32,4-3.29,2.52-6.8,5.44-9.93,8.25-1.78,1.59-3.33,3.1-4.63,4.48-3.43,3.61-4.32,5.54-4.55,6.38-.69,2.61,4.43,13,17.3,29.57,10.38,13.38,21.47,25.08,25.25,26.63.11,0,3.13,1.09,16.53-9a169.86,169.86,0,0,0,14.59-12.2c.72-1.08.81-2.52.27-4.4C209.21,96.24,202.45,88.25,196.49,81.2ZM165.31,52.09c1-.13,2.95.59,6.4,4.71a106,106,0,0,1,8,11.63,1.49,1.49,0,0,1-.52,2,1.41,1.41,0,0,1-.76.21,1.49,1.49,0,0,1-1.29-.73,109,109,0,0,0-7.72-11.24c-2.54-3-3.79-3.56-4-3.64a1.5,1.5,0,0,1-.1-3Z" transform="translate(-113.62 -42.66)" fill="#edb27e"/><path d="M214.65,100.81c-1.83-6.49-8.58-14.47-15.11-22.19-2.31-2.74-4.49-5.32-6.42-7.78-1.46-1.86-3.77-5.28-6-8.58-1.43-2.12-2.88-4.26-4.2-6.14a76.15,76.15,0,0,0-7.82-9.45c-4.63-4.56-11.45-5.31-16.12-1.83-.6.4-4.17,3.13-5.48,4.17l-.24.19a12,12,0,0,0-13.5.21c-.6.4-4.21,3.16-5.48,4.17-3.33,2.55-6.93,5.55-10.12,8.42-1.87,1.66-3.52,3.26-4.88,4.72-3.11,3.27-4.91,5.91-5.5,8.08h0c-1.7,6.37,10.55,23.45,18,33.06,9.23,11.9,21.58,25.7,26.9,27.88a4.52,4.52,0,0,0,1.73.3c3.55,0,9-2.95,14.46-6.73a14.79,14.79,0,0,0,3,1.87,4.72,4.72,0,0,0,1.73.3c9.83,0,34-22.55,34.14-22.83C215.24,106.54,215.54,103.89,214.65,100.81Zm-4.12,5.49a169.86,169.86,0,0,1-14.59,12.2c-13.4,10.06-16.42,9-16.53,9-3.78-1.55-14.87-13.25-25.25-26.63-12.87-16.6-18-27-17.3-29.57.23-.84,1.12-2.77,4.55-6.38,1.3-1.38,2.85-2.89,4.63-4.48,3.13-2.81,6.64-5.73,9.93-8.25,1.46-1.16,4.86-3.75,5.32-4,3.15-2.35,7.79-1.76,11,1.42a74,74,0,0,1,7.35,8.92c1.3,1.83,2.73,4,4.15,6,2.37,3.51,4.62,6.83,6.17,8.8,2,2.52,4.17,5.13,6.51,7.9,6,7,12.72,15,14.31,20.7C211.34,103.78,211.25,105.22,210.53,106.3ZM160.19,132c-3.78-1.55-14.87-13.25-25.25-26.63-12.87-16.6-18-27-17.3-29.57.23-.84,1.13-2.78,4.55-6.38,1.3-1.39,2.85-2.89,4.63-4.48,3.13-2.81,6.64-5.73,9.93-8.25,1.45-1.16,4.86-3.74,5.32-4.06a7.85,7.85,0,0,1,7.76-.74c-2.2,1.79-4.41,3.66-6.45,5.5-1.87,1.66-3.52,3.26-4.88,4.72-3.11,3.27-4.91,5.92-5.5,8.08h0c-1.7,6.36,10.55,23.44,18,33.05,6.54,8.44,14.65,17.83,20.72,23.36C162.55,132.85,160.29,132.08,160.19,132Z" transform="translate(-113.62 -42.66)" fill="#5e4739"/><path d="M165.41,55.08c.22.08,1.47.62,4,3.64A109,109,0,0,1,177.14,70a1.49,1.49,0,0,0,1.29.73,1.41,1.41,0,0,0,.76-.21,1.49,1.49,0,0,0,.52-2,106,106,0,0,0-8-11.63c-3.45-4.12-5.38-4.84-6.4-4.71a1.5,1.5,0,0,0,.1,3Z" transform="translate(-113.62 -42.66)" fill="#fff"/></svg>