<svg xmlns="http://www.w3.org/2000/svg" viewBox="0 0 108.49 84.01"><title>Salmon steak</title><path d="M169.15,148.55,178.4,175c2.17-.78,4.31-1.67,6.41-2.64l-6.38-18.25a29.34,29.34,0,0,1-3.57-2.56,21.88,21.88,0,0,1-4.21-4.74A10.23,10.23,0,0,1,169.15,148.55Z" transform="translate(-103.55 -98.73)" fill="none"/><path d="M189.52,158.41l-.68-.14.13.49A2.24,2.24,0,0,1,189.52,158.41Z" transform="translate(-103.55 -98.73)" fill="none"/><path d="M151.38,138.73a10.64,10.64,0,0,1,1.23-3.31L140.9,105.25a63.6,63.6,0,0,0-6.54,2.23l8.87,23.86a2,2,0,0,1-1.18,2.57,1.93,1.93,0,0,1-.7.13h0l1.82,4.7Z" transform="translate(-103.55 -98.73)" fill="none"/><path d="M160.65,130.12a2,2,0,0,1-.59-.79l.23.84Z" transform="translate(-103.55 -98.73)" fill="none"/><path d="M147.65,149a2,2,0,0,1,2.57,1.18l10.62,28.57a48.72,48.72,0,0,0,7.07-.79l-9.71-27.16a10.7,10.7,0,0,1-6.82-8h-6.71l2.36,6.6A2.13,2.13,0,0,1,147.65,149Z" transform="translate(-103.55 -98.73)" fill="none"/><path d="M161.88,147.43a6.7,6.7,0,1,0-6.7-6.7A6.7,6.7,0,0,0,161.88,147.43Z" transform="translate(-103.55 -98.73)" fill="none"/><path d="M163.79,128a2,2,0,0,1-.67,2.16,10.67,10.67,0,0,1,7.3,4.2,4.93,4.93,0,0,0,.41-3.67l-7.68-27.76c-1.25-.1-2.48-.16-3.69-.16s-2.34,0-3.5.1Z" transform="translate(-103.55 -98.73)" fill="none"/><path d="M127.17,150.59a2,2,0,0,1,2.58,1.18l8.71,23.46a1.38,1.38,0,0,1,.08.27,63.75,63.75,0,0,0,7,1.83,5,5,0,0,0-.08-3.2l-8.72-23.46a.31.31,0,0,0-.05-.1s0-.07,0-.1l-3.26-7.74h-9.9a2,2,0,0,1-1.12-.35l3.81,9.08A2,2,0,0,1,127.17,150.59Z" transform="translate(-103.55 -98.73)" fill="none"/><path d="M121,132.05a2,2,0,0,1-1.14,2.58,2,2,0,0,1-.71.14l2.36,5.62a2,2,0,0,1,2-1.66h8.22l-9-21.41a4.92,4.92,0,0,0-1.68-2.09,42.47,42.47,0,0,0-4.77,4.48Z" transform="translate(-103.55 -98.73)" fill="none"/><path d="M199.51,159.43a48.88,48.88,0,0,1-7.81-.62,2.05,2.05,0,0,1,.54.91l2,7.55c2.19-1.37,4.26-2.8,6.17-4.27Z" transform="translate(-103.55 -98.73)" fill="none"/><path d="M178.9,106.49,183.59,125a36.73,36.73,0,0,1,6.72-2.1L187,110A75.71,75.71,0,0,0,178.9,106.49Z" transform="translate(-103.55 -98.73)" fill="none"/><path d="M160.29,130.17l-.23-.84a1.51,1.51,0,0,1-.09-.18l-8.1-26a67.18,67.18,0,0,0-11,2.11l11.71,30.17A10.68,10.68,0,0,1,160.29,130.17Z" transform="translate(-103.55 -98.73)" fill="#f69b77"/><path d="M119.13,134.77a2,2,0,0,1-1.87-1.28l-3.92-10.17a30,30,0,0,0-5.79,17.41c0,14.07,10.5,26.38,26.07,32.94L126,153.16a2,2,0,0,1,.15-1.7l-3.81-9.08a1.89,1.89,0,0,1-.84-2l-2.36-5.62Z" transform="translate(-103.55 -98.73)" fill="#f69b77"/><path d="M122.69,117.32l9,21.41h11.45l-1.82-4.7a2,2,0,0,1-1.83-1.29l-8.78-23.63a51.63,51.63,0,0,0-9.69,6.12A4.92,4.92,0,0,1,122.69,117.32Z" transform="translate(-103.55 -98.73)" fill="#f69b77"/><path d="M136.64,150.57a.31.31,0,0,1,.05.1l8.72,23.46a5,5,0,0,1,.08,3.2,69.37,69.37,0,0,0,11.07,1.35l-10.09-27.15a2,2,0,0,1,.56-2.2l-2.36-6.6H133.36l3.26,7.74S136.63,150.54,136.64,150.57Z" transform="translate(-103.55 -98.73)" fill="#f69b77"/><path d="M187,110l3.27,12.89a40.46,40.46,0,0,1,14.16-.39A66.82,66.82,0,0,0,187,110Z" transform="translate(-103.55 -98.73)" fill="#f69b77"/><path d="M190.69,169.38l-2.32-8.62a2,2,0,0,1,.6-2l-.13-.49a35.33,35.33,0,0,1-10.41-4.14l6.38,18.25C186.82,171.45,188.79,170.44,190.69,169.38Z" transform="translate(-103.55 -98.73)" fill="#f69b77"/><path d="M204.93,159.19c-1.85.17-3.62.24-5.29.24h-.13l.92,3.57C202.05,161.75,203.56,160.48,204.93,159.19Z" transform="translate(-103.55 -98.73)" fill="#f69b77"/><path d="M170.42,134.32l.36.49a24.94,24.94,0,0,1,5.51-5.64,33.3,33.3,0,0,1,3.63-2.38L174.4,105a57.48,57.48,0,0,0-11.25-2.13l7.68,27.76A4.93,4.93,0,0,1,170.42,134.32Z" transform="translate(-103.55 -98.73)" fill="#f69b77"/><path d="M174.6,176.28l-8.93-25.56a10.59,10.59,0,0,1-3.79.71,10.45,10.45,0,0,1-3.68-.67l9.71,27.16A63.27,63.27,0,0,0,174.6,176.28Z" transform="translate(-103.55 -98.73)" fill="#f69b77"/><path d="M212,156.2a2,2,0,0,0-2.3-1.64c-18.29,3-28.06-2.48-32.26-6-3.6-3.05-4.88-6.1-4.88-7.79,0-1.84,2.11-5.31,6.14-8.38,3.77-2.87,14.17-9,30-4.9a2,2,0,0,0,2.49.08,2,2,0,0,0,.8-1.71,2,2,0,0,0-.93-1.79c-11-14.24-33.52-25.3-51.64-25.3-1.82,0-3.62.07-5.4.2a2,2,0,0,0-1.44-.11,2.19,2.19,0,0,0-.57.29,68.83,68.83,0,0,0-20.74,5.35l-.18.05a1.66,1.66,0,0,0-.4.2,52.7,52.7,0,0,0-18,13.06,1.93,1.93,0,0,0-.46.53c-5.48,6.5-8.67,14.19-8.67,22.43,0,23.16,25.08,42,55.9,42h0c11,0,23.61-4.42,34.18-10.49a1.93,1.93,0,0,0,.72-.42c7.09-4.16,13.2-9,17.21-13.79a2,2,0,0,0,.46-1.38A1.79,1.79,0,0,0,212,156.2Zm-17.75,11.07-2-7.55a2.05,2.05,0,0,0-.54-.91,48.88,48.88,0,0,0,7.81.62h.13c1.67,0,3.44-.07,5.29-.24-1.37,1.29-2.88,2.56-4.5,3.81C198.52,164.47,196.45,165.9,194.26,167.27Zm-19.4-15.7a29.34,29.34,0,0,0,3.57,2.56,35.33,35.33,0,0,0,10.41,4.14l.68.14a2.24,2.24,0,0,0-.55.35,2,2,0,0,0-.6,2l2.32,8.62c-1.9,1.06-3.87,2.07-5.88,3s-4.24,1.86-6.41,2.64l-9.25-26.47a10.23,10.23,0,0,0,1.5-1.72A21.88,21.88,0,0,0,174.86,151.57Zm-13-17.53a6.7,6.7,0,1,1-6.7,6.69A6.7,6.7,0,0,1,161.88,134Zm28.43-11.14a36.73,36.73,0,0,0-6.72,2.1l-4.69-18.51A75.71,75.71,0,0,1,187,110a66.82,66.82,0,0,1,17.43,12.5A40.46,40.46,0,0,0,190.31,122.9Zm-27.16-20A57.48,57.48,0,0,1,174.4,105l5.52,21.77a33.3,33.3,0,0,0-3.63,2.38,24.94,24.94,0,0,0-5.51,5.64l-.36-.49a10.67,10.67,0,0,0-7.3-4.2,2,2,0,0,0,.67-2.16L156,102.83c1.16-.06,2.32-.1,3.5-.1S161.9,102.79,163.15,102.89ZM121,115.23a51.63,51.63,0,0,1,9.69-6.12l8.78,23.63a2,2,0,0,0,1.83,1.29h0a1.93,1.93,0,0,0,.7-.13,2,2,0,0,0,1.18-2.57l-8.87-23.86a63.6,63.6,0,0,1,6.54-2.23,67.18,67.18,0,0,1,11-2.11l8.1,26a1.51,1.51,0,0,0,.09.18,2,2,0,0,0,.59.79l-.36,0a10.7,10.7,0,0,0-8.91,8.56H123.46a2,2,0,0,0-2,1.66,2,2,0,0,0,2,2.34h27.92a10.7,10.7,0,0,0,6.82,8,10.45,10.45,0,0,0,3.68.67,10.59,10.59,0,0,0,3.79-.71l8.93,25.56a63.27,63.27,0,0,1-6.69,1.64,48.72,48.72,0,0,1-7.07.79l-10.62-28.57a2,2,0,0,0-2.57-1.18,2.13,2.13,0,0,0-.62.37,2,2,0,0,0-.56,2.2l10.09,27.15a69.37,69.37,0,0,1-11.07-1.35,63.75,63.75,0,0,1-7-1.83,1.38,1.38,0,0,0-.08-.27l-8.71-23.46a2,2,0,0,0-2.58-1.18,2,2,0,0,0-1,.87,2,2,0,0,0-.15,1.7l7.62,20.51c-15.57-6.56-26.07-18.87-26.07-32.94a30,30,0,0,1,5.79-17.41l3.92,10.17a2,2,0,0,0,1.87,1.28h0a2,2,0,0,0,.71-.14,2,2,0,0,0,1.14-2.58l-4.75-12.34A42.47,42.47,0,0,1,121,115.23Z" transform="translate(-103.55 -98.73)" fill="#5e4739"/></svg>