<svg xmlns="http://www.w3.org/2000/svg" viewBox="0 0 83.27 103.82"><title>Radish</title><path d="M119.48,81.67c10-.65,16.74-4.71,20.19-12A25.63,25.63,0,0,0,142,60.08c-10.18-.9-17.88,1.09-22.92,5.93-6.65,6.39-6.67,16-6.61,17.86a50.65,50.65,0,0,0,5.2-.31A2,2,0,0,1,119.48,81.67Z" transform="translate(-63.22 -55.51)" fill="#c5dc76"/><path d="M108.12,64.06a48.81,48.81,0,0,0-12.44-4.3c-.58,3.13-1.3,10,2.12,15.34,2.18,3.4,5.76,5.69,10.64,6.83a29.7,29.7,0,0,1,4.31-14.47,19,19,0,0,0-2.91-3.34A2,2,0,0,1,108.12,64.06Z" transform="translate(-63.22 -55.51)" fill="#85986f"/><path d="M97.59,96.94l-2,.08c-7.92.26-21.17.69-27.12,13.84-5.82,12.88,10.15,25.49,15.19,29l.09.07c.88.62,2,1.3,3.19,2,3.5,2.11,8.19,4.94,10.2,9,3.39-2.25,8.85-2.47,13.52-2.65,1.52-.06,2.95-.12,4.12-.24h.11c6.13-.63,26.24-3.78,27.48-17.87,1.26-14.39-10.08-21.26-16.86-25.36l-1.69-1a27.44,27.44,0,0,1-8.75-9.14c-2.84,1.44-7,1.57-9.26,1.51a2,2,0,0,1-1.11.4Zm28.23,25.5a2,2,0,0,1,2.29-1.66c3.71.59,6,3.85,6.94,6.71a2,2,0,0,1-1.29,2.51,1.86,1.86,0,0,1-.61.1,2,2,0,0,1-1.91-1.39c-.53-1.64-1.83-3.68-3.76-4A2,2,0,0,1,125.82,122.44Zm-43.28-8.6a2,2,0,0,1-1.78-3.58,11.5,11.5,0,0,1,10.51,0,2,2,0,0,1-1.84,3.55A7.54,7.54,0,0,0,82.54,113.84Zm31.55,25.31a2,2,0,0,1-1.21.41,2,2,0,0,1-1.59-.79c-8.41-11-19.52-4.2-20-3.9a2,2,0,0,1-2.13-3.39c.15-.09,14.7-9,25.3,4.86A2,2,0,0,1,114.09,139.15Zm-7.66-31.45a2,2,0,0,1,2.31-1.63,32.15,32.15,0,0,1,7.24,2.18,2,2,0,0,1-.89,3.79,2,2,0,0,1-.89-.2,28.56,28.56,0,0,0-6.13-1.83A2,2,0,0,1,106.43,107.7Z" transform="translate(-63.22 -55.51)" fill="#baa1b6"/><path d="M110.16,86.33l.29,0a2,2,0,0,0,2-2.16s0-.12,0-.32C112.37,82,112.39,72.4,119,66c5-4.84,12.74-6.83,22.92-5.93a25.63,25.63,0,0,1-2.29,9.54c-3.45,7.34-10.24,11.4-20.19,12a2,2,0,0,0-1.85,1.89,1.93,1.93,0,0,0,0,.24,2,2,0,0,0,2.13,1.86c8.65-.57,15.35-3.51,19.92-8.75,7-8,6.32-18.34,6.29-18.77a2,2,0,0,0-1.76-1.85c-12.32-1.45-21.73.86-28,6.87a23,23,0,0,0-3.49,4.3,29.7,29.7,0,0,0-4.31,14.47C103.56,80.79,100,78.5,97.8,75.1c-3.42-5.34-2.7-12.21-2.12-15.34a48.81,48.81,0,0,1,12.44,4.3,2,2,0,0,0,1.72.06,2,2,0,0,0,1-.89,2,2,0,0,0-.83-2.71,50.51,50.51,0,0,0-15.63-5A2,2,0,0,0,92.21,57c-.14.47-3.32,11.62,2.21,20.28C97.58,82.18,102.88,85.24,110.16,86.33Z" transform="translate(-63.22 -55.51)" fill="#5e4739"/><path d="M89.17,131.48a2,2,0,0,0,2.13,3.39c.47-.3,11.58-7.11,20,3.9a2,2,0,0,0,1.59.79,2,2,0,0,0,1.21-.41,2,2,0,0,0,.38-2.81C103.87,122.47,89.32,131.39,89.17,131.48Z" transform="translate(-63.22 -55.51)" fill="#5e4739"/><path d="M127.6,101.43l-1.63-1a23.5,23.5,0,0,1-8-8.86,2,2,0,0,0-2.65-1,2,2,0,0,0-1,2.65,13.47,13.47,0,0,0,.76,1.43,27.44,27.44,0,0,0,8.75,9.14l1.69,1c6.78,4.1,18.12,11,16.86,25.36-1.24,14.09-21.35,17.24-27.48,17.87h-.11c-1.17.12-2.6.18-4.12.24-4.67.18-10.13.4-13.52,2.65-2-4.06-6.7-6.89-10.2-9-1.19-.71-2.31-1.39-3.19-2l-.09-.07c-5-3.55-21-16.16-15.19-29,6-13.15,19.2-13.58,27.12-13.84l2-.08,7.13-.36a2,2,0,0,0,1.9-2.1,2,2,0,0,0-2.1-1.89L97.39,93,95.48,93c-8.27.27-23.66.77-30.63,16.2-7.08,15.67,10.85,29.95,16.52,33.95l.09.06c1,.71,2.19,1.43,3.44,2.18,5.91,3.56,10.33,6.65,9,11.37a2,2,0,0,0,1.37,2.47,2.15,2.15,0,0,0,.55.08,2,2,0,0,0,1.92-1.45,10.84,10.84,0,0,0,.36-1.84c.91-3.26,7.74-3.52,12.75-3.72,1.58-.06,3.08-.11,4.48-.26,6.9-.71,29.55-4.36,31.06-21.5C147.85,113.69,134.68,105.71,127.6,101.43Z" transform="translate(-63.22 -55.51)" fill="#5e4739"/><path d="M92.12,113a2,2,0,0,0-.85-2.69,11.5,11.5,0,0,0-10.51,0,2,2,0,1,0,1.78,3.58,7.54,7.54,0,0,1,6.89,0A2,2,0,0,0,92.12,113Z" transform="translate(-63.22 -55.51)" fill="#5e4739"/><path d="M108.07,110a28.56,28.56,0,0,1,6.13,1.83,2,2,0,0,0,.89.2,2,2,0,0,0,.89-3.79,32.15,32.15,0,0,0-7.24-2.18,2,2,0,0,0-2.31,1.63A2,2,0,0,0,108.07,110Z" transform="translate(-63.22 -55.51)" fill="#5e4739"/><path d="M127.48,124.73c1.93.3,3.23,2.34,3.76,4a2,2,0,0,0,1.91,1.39,1.86,1.86,0,0,0,.61-.1,2,2,0,0,0,1.29-2.51c-.92-2.86-3.23-6.12-6.94-6.71a2,2,0,0,0-.63,4Z" transform="translate(-63.22 -55.51)" fill="#5e4739"/></svg>