<svg xmlns="http://www.w3.org/2000/svg" viewBox="0 0 101.1 107.77"><title>Tomato</title><path d="M132.71,128.16a2,2,0,0,1,0,4,19.57,19.57,0,0,1-3.23-.26c-.32,1.15-1.22,5.36.37,11.8a18,18,0,0,1,.33,6.85,37.3,37.3,0,0,1,10.69-1.1,19,19,0,0,0,8-1.34,11.4,11.4,0,0,0,6.93-10.57v-2.91a2,2,0,0,1,4,0v2.91a11.4,11.4,0,0,0,6.93,10.57,19,19,0,0,0,8,1.34,37.45,37.45,0,0,1,10.71,1.1,17.87,17.87,0,0,1,.33-6.9c1.59-6.42.68-10.62.37-11.75a19.6,19.6,0,0,1-3.24.26,2,2,0,0,1,0-4c3.83,0,6.56-1.09,8.34-3.35,2.48-3.13,2.64-7.86,2.39-11.1-2.62,1.64-5.87,2-8.57,2.09-2.39.08-4.8,0-7.12,0a92.35,92.35,0,0,0-10.12.22,11.94,11.94,0,0,0-3.55.74,10.07,10.07,0,0,0-4.58,4.59s0,.08,0,.12l-.09.18a1,1,0,0,1-.1.17,1.67,1.67,0,0,1-.12.16l-.06.08a33.66,33.66,0,0,0,.13,4.24,19.55,19.55,0,0,0,9.24-2.79,2,2,0,1,1,2.34,3.25c-2.31,1.66-7.15,3.6-13.18,3.6h-.21c-5.94,0-10.69-2-13-3.6a2,2,0,0,1,2.34-3.24,19,19,0,0,0,8.42,2.71,40.59,40.59,0,0,1,0-5.93,10.64,10.64,0,0,0-4-3.53,12.07,12.07,0,0,0-3.56-.74,92.29,92.29,0,0,0-10.12-.22c-2.33,0-4.73.06-7.12,0-2.7-.1-6-.45-8.57-2.09-.25,3.24-.09,8,2.39,11.1C126.15,127.07,128.88,128.16,132.71,128.16Z" transform="translate(-107.26 -105.33)" fill="#acd263"/><path d="M190.66,135.57a32.56,32.56,0,0,1-1,9.09c0,.1-1.24,4.74.7,8.11a2,2,0,0,1-1.73,3,2,2,0,0,1-.91-.22s-4.86-2.38-12.83-2.1a22.85,22.85,0,0,1-9.69-1.65,15.27,15.27,0,0,1-7.38-6.59,15.27,15.27,0,0,1-7.38,6.59,22.84,22.84,0,0,1-9.7,1.65c-7.94-.29-12.78,2.08-12.82,2.1a2,2,0,0,1-.9.21,2,2,0,0,1-1.74-3c1.94-3.37.72-8,.71-8.06a32.89,32.89,0,0,1-1-9.12,40.32,40.32,0,0,0-13.7,30.86c0,24.32,20,42.65,46.55,42.65s46.55-18.33,46.55-42.65A40.26,40.26,0,0,0,190.66,135.57Zm-27.87,61.76-2,.34a1.73,1.73,0,0,1-.32,0,1.93,1.93,0,0,1-.31-3.83l2-.33a1.92,1.92,0,1,1,.64,3.79Zm10-2.57a2.18,2.18,0,0,1-.43.05,1.92,1.92,0,0,1-.44-3.8c15.26-3.52,16.69-20,16.74-20.68a1.9,1.9,0,0,1,2.06-1.77,1.93,1.93,0,0,1,1.78,2.06C192.45,170.81,190.82,190.6,172.76,194.76Z" transform="translate(-107.26 -105.33)" fill="#e24b4b"/><path d="M190.65,130.41a11.91,11.91,0,0,0,3.75-3.13c5.27-6.67,2.73-17.63,2.62-18.09a2,2,0,0,0-1.42-1.47,2,2,0,0,0-2,.55c-.22.22-.42.46-.62.69s-.3.36-.46.52c-1.79,1.86-4.86,2.22-7.62,2.32-2.29.08-4.65,0-6.93,0a98.15,98.15,0,0,0-10.54.23,15.87,15.87,0,0,0-4.74,1,11.78,11.78,0,0,0-2.54,1.57,43.36,43.36,0,0,1,1.86-6.58,2,2,0,0,0-3.72-1.49,47.94,47.94,0,0,0-2.32,8.52,12.37,12.37,0,0,0-3.1-2,15.88,15.88,0,0,0-4.73-1,98.33,98.33,0,0,0-10.55-.23c-2.28,0-4.64.06-6.93,0-2.76-.1-5.83-.46-7.62-2.31-.16-.16-.3-.34-.45-.51s-.41-.48-.63-.71a2,2,0,0,0-2-.55,2,2,0,0,0-1.42,1.47c-.11.46-2.65,11.42,2.62,18.09a11.78,11.78,0,0,0,3.75,3.13,44.27,44.27,0,0,0-17.71,36c0,26.6,21.73,46.65,50.55,46.65s50.55-20,50.55-46.65A44.82,44.82,0,0,0,190.65,130.41ZM157.81,209.1c-26.54,0-46.55-18.33-46.55-42.65A40.32,40.32,0,0,1,125,135.59a32.89,32.89,0,0,0,1,9.12s1.23,4.69-.71,8.06a2,2,0,0,0,1.74,3,2,2,0,0,0,.9-.21s4.88-2.39,12.82-2.1a22.84,22.84,0,0,0,9.7-1.65,15.27,15.27,0,0,0,7.38-6.59,15.27,15.27,0,0,0,7.38,6.59,22.85,22.85,0,0,0,9.69,1.65c8-.28,12.79,2.08,12.83,2.1a2,2,0,0,0,.91.22,2,2,0,0,0,1.73-3c-1.94-3.37-.72-8-.7-8.11a32.56,32.56,0,0,0,1-9.09,40.26,40.26,0,0,1,13.7,30.88C204.36,190.77,184.34,209.1,157.81,209.1ZM122,113.71c2.62,1.64,5.87,2,8.57,2.09,2.39.08,4.79,0,7.12,0a92.29,92.29,0,0,1,10.12.22,12.07,12.07,0,0,1,3.56.74,10.64,10.64,0,0,1,4,3.53,40.59,40.59,0,0,0,0,5.93,19,19,0,0,1-8.42-2.71,2,2,0,0,0-2.34,3.24c2.28,1.65,7,3.56,13,3.6h.21c6,0,10.87-1.94,13.18-3.6a2,2,0,1,0-2.34-3.25,19.55,19.55,0,0,1-9.24,2.79,33.66,33.66,0,0,1-.13-4.24l.06-.08a1.67,1.67,0,0,0,.12-.16,1,1,0,0,0,.1-.17l.09-.18s0-.08,0-.12a10.07,10.07,0,0,1,4.58-4.59,11.94,11.94,0,0,1,3.55-.74,92.35,92.35,0,0,1,10.12-.22c2.32,0,4.73.06,7.12,0,2.7-.1,6-.45,8.57-2.09.25,3.24.09,8-2.39,11.1-1.78,2.26-4.51,3.35-8.34,3.35a2,2,0,0,0,0,4,19.6,19.6,0,0,0,3.24-.26c.31,1.13,1.22,5.33-.37,11.75a17.87,17.87,0,0,0-.33,6.9,37.45,37.45,0,0,0-10.71-1.1,19,19,0,0,1-8-1.34,11.4,11.4,0,0,1-6.93-10.57v-2.91a2,2,0,0,0-4,0v2.91a11.4,11.4,0,0,1-6.93,10.57,19,19,0,0,1-8,1.34,37.3,37.3,0,0,0-10.69,1.1,18,18,0,0,0-.33-6.85c-1.59-6.44-.69-10.65-.37-11.8a19.57,19.57,0,0,0,3.23.26,2,2,0,0,0,0-4c-3.83,0-6.56-1.09-8.34-3.35C121.89,121.68,121.73,117,122,113.71Z" transform="translate(-107.26 -105.33)" fill="#5e4739"/><path d="M190.69,168.56a1.9,1.9,0,0,0-2.06,1.77c0,.7-1.48,17.16-16.74,20.68a1.92,1.92,0,0,0,.44,3.8,2.18,2.18,0,0,0,.43-.05c18.06-4.16,19.69-23.95,19.71-24.14A1.93,1.93,0,0,0,190.69,168.56Z" transform="translate(-107.26 -105.33)" fill="#fff"/><path d="M162.15,193.54l-2,.33a1.93,1.93,0,0,0,.31,3.83,1.73,1.73,0,0,0,.32,0l2-.34a1.92,1.92,0,1,0-.64-3.79Z" transform="translate(-107.26 -105.33)" fill="#fff"/></svg>