<svg xmlns="http://www.w3.org/2000/svg" viewBox="0 0 109.31 107.37"><title>Broccoli</title><path d="M176.79,124.06a1.27,1.27,0,0,0-.18.06A1.27,1.27,0,0,1,176.79,124.06Z" transform="translate(-103.15 -87.02)" fill="none"/><path d="M173.86,142.44l0,0A29.76,29.76,0,0,1,161.36,148,28.88,28.88,0,0,0,173.86,142.44Z" transform="translate(-103.15 -87.02)" fill="none"/><path d="M137.94,151.06a17.65,17.65,0,0,1-5.75,2.79A17,17,0,0,0,137.94,151.06Z" transform="translate(-103.15 -87.02)" fill="none"/><path d="M201.55,148.67a16.88,16.88,0,0,1-5.82,2.49A15.86,15.86,0,0,0,201.55,148.67Z" transform="translate(-103.15 -87.02)" fill="none"/><path d="M179.26,102.44h0l-.06,0Z" transform="translate(-103.15 -87.02)" fill="none"/><path d="M175.64,146.1a32.5,32.5,0,0,1-10.37,5v17.72a75,75,0,0,1,12.2-20.28A18.57,18.57,0,0,1,175.64,146.1Z" transform="translate(-103.15 -87.02)" fill="none"/><path d="M139.77,132.8a1.93,1.93,0,0,1,.49-.26A1,1,0,0,0,139.77,132.8Z" transform="translate(-103.15 -87.02)" fill="none"/><path d="M144,150.85l-.26.3a53,53,0,0,1,8.39,9.29v-8.15A29.08,29.08,0,0,1,144,150.85Z" transform="translate(-103.15 -87.02)" fill="none"/><path d="M176.34,124.26a2.53,2.53,0,0,1,.23-.12A1,1,0,0,0,176.34,124.26Z" transform="translate(-103.15 -87.02)" fill="none"/><path d="M170.59,191.83a63,63,0,0,1,12.94-38.52,20.63,20.63,0,0,1-3.15-2,71.33,71.33,0,0,0-11.75,19.91,3.76,3.76,0,0,1-3.52,2.41,3.61,3.61,0,0,1-.73-.07,3.78,3.78,0,0,1-3.11-3.75V152a33.4,33.4,0,0,1-4.91.38h-.28v15.39a2,2,0,0,1-1.54,1.95,2.4,2.4,0,0,1-.46.05,2,2,0,0,1-1.79-1.11,45.83,45.83,0,0,0-11.5-14.75c-.53.42-1.07.81-1.63,1.18,5.25,7.17,10.86,19,10.86,36.73a2,2,0,0,1-.82,1.6c0,.32,0,.64.05,1h22.59c0-.24,0-.47,0-.71A2,2,0,0,1,170.59,191.83Z" transform="translate(-103.15 -87.02)" fill="#acd263"/><path d="M198.31,120.71a2,2,0,0,1-1.17-2.51,10.37,10.37,0,0,0,.57-3.4,10.67,10.67,0,0,0-10.65-10.65A10.54,10.54,0,0,0,183,105h0c-4.85,1.89-4.91,8.81-4.91,8.88a2,2,0,1,1-4,0c0-.35.08-7.7,5.2-11.37l.06,0a28.66,28.66,0,0,0-40.48-5.39,19.12,19.12,0,0,1,10.14,10.19,2,2,0,0,1-1.07,2.62,2,2,0,0,1-2.62-1.07,15.1,15.1,0,0,0-10.87-9,15.39,15.39,0,0,0-3.1-.32,15.15,15.15,0,0,0-15.14,15.14,14.53,14.53,0,0,0,.18,2.29v0A15.18,15.18,0,0,0,122.54,127a2,2,0,0,1-1.16,3.63,2,2,0,0,1-1.15-.36,19.26,19.26,0,0,1-7.07-9.48,19.6,19.6,0,0,0,13.62,33.73,20.87,20.87,0,0,0,5.41-.69,17.65,17.65,0,0,0,5.75-2.79,18.51,18.51,0,0,0,3.57-3.56c2.89-8.74-1.36-11.2-1.54-11.3a2,2,0,0,1-.83-2.69,2,2,0,0,1,.63-.71,1,1,0,0,1,.49-.26,2,2,0,0,1,1.52.1c.3.15,6.95,3.6,4,14.59,3,1,6.25,1.17,10.59,1.17a28.69,28.69,0,0,0,5-.44,29.76,29.76,0,0,0,12.48-5.56,19.84,19.84,0,0,1,1.86-17.51,2,2,0,0,1,.64-.63,1,1,0,0,1,.23-.12l0,0a1.27,1.27,0,0,1,.18-.06,2,2,0,0,1,2.29,3,16,16,0,0,0-1.08,15s0,.05,0,.07l.06.09a15.95,15.95,0,0,0,17.65,8.93,16.88,16.88,0,0,0,5.82-2.49,15.92,15.92,0,0,0-3.24-28Z" transform="translate(-103.15 -87.02)" fill="#63824a"/><path d="M201.41,117.71a14.23,14.23,0,0,0,.3-2.91A14.69,14.69,0,0,0,183,100.72a32.68,32.68,0,0,0-48.82-5,18.56,18.56,0,0,0-2.89-.22,19.16,19.16,0,0,0-19.14,19.14c0,.56,0,1.13.08,1.68A23.71,23.71,0,0,0,135.57,157C139.85,162.67,146,174,146,191.83a2,2,0,0,0,2,2,2,2,0,0,0,2-2c0-17.76-5.61-29.56-10.86-36.73.56-.37,1.1-.76,1.63-1.18a45.83,45.83,0,0,1,11.5,14.75,2,2,0,0,0,1.79,1.11,2.4,2.4,0,0,0,.46-.05,2,2,0,0,0,1.54-1.95V152.39h.28a33.4,33.4,0,0,0,4.91-.38v17.8a3.78,3.78,0,0,0,3.11,3.75,3.61,3.61,0,0,0,.73.07,3.76,3.76,0,0,0,3.52-2.41,71.33,71.33,0,0,1,11.75-19.91,20.63,20.63,0,0,0,3.15,2,63,63,0,0,0-12.94,38.52,2,2,0,0,0,1.25,1.85,1.9,1.9,0,0,0,.75.15,2,2,0,0,0,2-2,59.53,59.53,0,0,1,12.88-37,19.93,19.93,0,0,0,13.94-37.11Zm.14,31a15.9,15.9,0,0,1-23.47-6.44l-.06-.09s0,0,0-.07a16,16,0,0,1,1.08-15,2,2,0,0,0-2.29-3,1.27,1.27,0,0,0-.18.06l0,0a2.53,2.53,0,0,0-.23.12,2,2,0,0,0-.64.63,19.84,19.84,0,0,0-1.86,17.51l0,0a28.69,28.69,0,0,1-17.5,6c-4.34,0-7.62-.22-10.59-1.17,3-11-3.69-14.44-4-14.59a2,2,0,0,0-1.52-.1,1.93,1.93,0,0,0-.49.26,2,2,0,0,0-.63.71,2,2,0,0,0,.83,2.69c.18.1,4.43,2.56,1.54,11.3a18.51,18.51,0,0,1-3.57,3.56,17,17,0,0,1-5.75,2.79,20.87,20.87,0,0,1-5.41.69,19.6,19.6,0,0,1-13.62-33.73,19.26,19.26,0,0,0,7.07,9.48,2,2,0,0,0,1.15.36,2,2,0,0,0,1.16-3.63A15.18,15.18,0,0,1,116.3,117v0a14.53,14.53,0,0,1-.18-2.29,15.15,15.15,0,0,1,15.14-15.14,15.39,15.39,0,0,1,3.1.32,15.1,15.1,0,0,1,10.87,9,2,2,0,0,0,2.62,1.07,2,2,0,0,0,1.07-2.62,19.12,19.12,0,0,0-10.14-10.19,28.66,28.66,0,0,1,40.48,5.39h0l-.06,0c-5.12,3.67-5.2,11-5.2,11.37a2,2,0,1,0,4,0c0-.07.06-7,4.91-8.88h0a10.54,10.54,0,0,1,4.11-.82,10.67,10.67,0,0,1,10.65,10.65,10.37,10.37,0,0,1-.57,3.4,2,2,0,0,0,1.17,2.51,15.92,15.92,0,0,1,3.24,28Zm-57.86,2.48.26-.3a29.08,29.08,0,0,0,8.13,1.44v8.15A53,53,0,0,0,143.69,151.15Zm21.58,0a32.5,32.5,0,0,0,10.37-5,18.57,18.57,0,0,0,1.83,2.47,75,75,0,0,0-12.2,20.28Z" transform="translate(-103.15 -87.02)" fill="#5e4739"/></svg>