<svg xmlns="http://www.w3.org/2000/svg" viewBox="0 0 104 110.22"><title>Carrot</title><path d="M168.76,132.06c1.39-2.21,2.82-4.41,4.31-6.44-2.51-2.61-6.64-6.88-10.28-6.9h0a4.76,4.76,0,0,0-3.46,1.64c-3.18,3.25-6.18,6.51-9.06,9.79a2,2,0,0,1,1.1,1.17c.5,1.44,3.11,3.73,5.73,4.52a2,2,0,0,1-.57,3.92,2,2,0,0,1-.58-.09c-3.46-1-7-3.94-8.19-6.61-2.85,3.35-5.59,6.72-8.27,10.13a1.93,1.93,0,0,1,.77.87,37.71,37.71,0,0,0,2.75,3.43c.43.5.78.91,1,1.15a2,2,0,0,1-.32,2.8,2,2,0,0,1-2.81-.32c-.17-.21-.49-.58-.87-1a41.86,41.86,0,0,1-3-3.72c-3,3.88-6,7.81-8.94,11.8a2,2,0,0,1,.79.8,7.05,7.05,0,0,0,3,3.26,2,2,0,0,1-1,3.74,2,2,0,0,1-1-.27,10.82,10.82,0,0,1-4.23-4.29c-4.3,5.75-8.75,11.67-13.51,17.69-1.38,1.75-2.13,4.13-1.94,4.87,3.47.68,10.48-1.86,18.85-6.81,2.15-1.27,4-2.33,5.68-3.28,7-4,10.52-6,17.8-13.47l.82-1.44C159.22,148.59,167.31,134.37,168.76,132.06Z" transform="translate(-106.15 -104.11)" fill="#f9ba8f"/><path d="M196.6,124.56c-5.19-3.35-9.71-4.76-11.33-4.37-3.19.75-6.41,4.22-9.52,8.57a21.55,21.55,0,0,0,7.81,6.18,2,2,0,0,1-.89,3.79,2,2,0,0,1-.88-.21,25,25,0,0,1-8.36-6.34c-.43.66-.86,1.33-1.28,2-1,1.58-5.47,9.39-10,17.28a2,2,0,0,1,1.24.52l.43.38a5.24,5.24,0,0,1,1.45,1.06,2,2,0,0,1-1.36,3.48,2,2,0,0,1-1.35-.53l-.42-.37a5.29,5.29,0,0,1-1.46-1.08,2,2,0,0,1-.3-.35L156.79,161c-.31.54-.61,1.06-.9,1.58l-.11.2-2.92,5.13a2,2,0,0,1,.38.28l2.5,2.3a2,2,0,0,1-2.72,2.94l-2.2-2c-2.51,4.23-5.28,8.55-8,12.77-6.38,10-13,20.24-13.72,25.76,8.88,2.49,19.29-5.17,27.7-13.48a15.13,15.13,0,0,1-4.75-3.58,2,2,0,1,1,3-2.61,13.09,13.09,0,0,0,4.31,3l.18.09.14.09c3.63-3.84,6.76-7.58,9-10.29l1.61-1.92,4.26-5h-.05a20.81,20.81,0,0,1-6.51-3.71,2,2,0,0,1,2.75-2.91,18,18,0,0,0,4.76,2.75,2,2,0,0,1,1.34,1.18l10.19-12-.33-.12a36.63,36.63,0,0,1-8.87-6.2,2,2,0,0,1,0-2.83,2,2,0,0,1,2.82,0,32.48,32.48,0,0,0,7.81,5.45,2,2,0,0,1,.92.94l3.75-4.41c6-7.12,11.64-18.71,10.9-22.55C203.84,130.42,201.18,127.52,196.6,124.56ZM143,198.78a2,2,0,0,1-1.58.77,2,2,0,0,1-1.23-.43l-2.9-2.27a2,2,0,0,1,2.47-3.15l2.9,2.27A2,2,0,0,1,143,198.78Z" transform="translate(-106.15 -104.11)" fill="#f97830"/><path d="M142.67,196l-2.9-2.27a2,2,0,0,0-2.47,3.15l2.9,2.27a2,2,0,0,0,1.23.43,2,2,0,0,0,1.24-3.58Z" transform="translate(-106.15 -104.11)" fill="#5e4739"/><path d="M208,113a25.24,25.24,0,0,0-9.74,2.91c2.69-5.1,8.63-7.92,8.71-8a2,2,0,1,0-1.67-3.63c-.45.2-10.28,4.83-12.06,13.85-2.93-1.35-6.35-2.46-8.91-1.86h0c-3.22.76-6.1,3.1-8.77,6.17-3-3.08-7.67-7.71-12.77-7.74h0a8.69,8.69,0,0,0-6.32,2.84c-12.85,13.13-22.68,26.27-33.08,40.18-4.59,6.13-9.32,12.46-14.4,18.89-1.58,2-3.56,6-2.54,8.8a3.78,3.78,0,0,0,2.9,2.47,9.67,9.67,0,0,0,2.06.2c5.7,0,13.66-3.94,19.66-7.48,2.12-1.26,4-2.31,5.63-3.26a93.66,93.66,0,0,0,9.35-5.81c-2.11,3.45-4.35,7-6.56,10.41-7.93,12.37-14.78,23-14.41,29.44a2,2,0,0,0,1.25,1.74,16.68,16.68,0,0,0,6.26,1.19c15.34,0,31.73-19.63,39.25-28.63l1.59-1.9,22.84-26.92C202,150.15,209.2,137.05,208,131c-.77-3.93-6.73-8.16-9.26-9.79l-.82-.52A23.65,23.65,0,0,1,208.27,117a2,2,0,0,0-.25-4ZM193.2,154.3l-3.75,4.41a2,2,0,0,0-.92-.94,32.48,32.48,0,0,1-7.81-5.45,2,2,0,0,0-2.82,0,2,2,0,0,0,0,2.83,36.63,36.63,0,0,0,8.87,6.2l.33.12-10.19,12a2,2,0,0,0-1.34-1.18,18,18,0,0,1-4.76-2.75,2,2,0,0,0-2.75,2.91,20.81,20.81,0,0,0,6.51,3.71h.05l-4.26,5-1.61,1.92c-2.26,2.71-5.39,6.45-9,10.29l-.14-.09-.18-.09a13.09,13.09,0,0,1-4.31-3,2,2,0,1,0-3,2.61,15.13,15.13,0,0,0,4.75,3.58c-8.41,8.31-18.82,16-27.7,13.48.75-5.52,7.34-15.8,13.72-25.76,2.7-4.22,5.47-8.54,8-12.77l2.2,2a2,2,0,0,0,2.72-2.94l-2.5-2.3a2,2,0,0,0-.38-.28l2.92-5.13.11-.2c.29-.52.59-1,.9-1.58l3.62-6.37a2,2,0,0,0,.3.35,5.29,5.29,0,0,0,1.46,1.08l.42.37a2,2,0,0,0,1.35.53,2,2,0,0,0,1.36-3.48,5.24,5.24,0,0,0-1.45-1.06l-.43-.38a2,2,0,0,0-1.24-.52c4.5-7.89,9-15.7,10-17.28.42-.68.85-1.35,1.28-2a25,25,0,0,0,8.36,6.34,2,2,0,0,0,.88.21,2,2,0,0,0,.89-3.79,21.55,21.55,0,0,1-7.81-6.18c3.11-4.35,6.33-7.82,9.52-8.57,1.62-.39,6.14,1,11.33,4.37,4.58,3,7.24,5.86,7.5,7.19C204.84,135.59,199.23,147.18,193.2,154.3Zm-58.51,19.59c-1.67,1-3.53,2-5.68,3.28-8.37,5-15.38,7.49-18.85,6.81-.19-.74.56-3.12,1.94-4.87,4.76-6,9.21-11.94,13.51-17.69a10.82,10.82,0,0,0,4.23,4.29,2,2,0,0,0,1,.27,2,2,0,0,0,1-3.74,7.05,7.05,0,0,1-3-3.26,2,2,0,0,0-.79-.8c3-4,5.94-7.92,8.94-11.8a41.86,41.86,0,0,0,3,3.72c.38.44.7.81.87,1a2,2,0,0,0,2.81.32,2,2,0,0,0,.32-2.8c-.19-.24-.54-.65-1-1.15a37.71,37.71,0,0,1-2.75-3.43,1.93,1.93,0,0,0-.77-.87c2.68-3.41,5.42-6.78,8.27-10.13,1.18,2.67,4.73,5.57,8.19,6.61a2,2,0,0,0,.58.09,2,2,0,0,0,.57-3.92c-2.62-.79-5.23-3.08-5.73-4.52a2,2,0,0,0-1.1-1.17c2.88-3.28,5.88-6.54,9.06-9.79a4.76,4.76,0,0,1,3.46-1.64h0c3.64,0,7.77,4.29,10.28,6.9-1.49,2-2.92,4.23-4.31,6.44s-9.54,16.53-15.45,26.92l-.82,1.44C145.21,167.88,141.67,169.9,134.69,173.89Z" transform="translate(-106.15 -104.11)" fill="#5e4739"/></svg>