<svg xmlns="http://www.w3.org/2000/svg" viewBox="0 0 112.04 95.92"><title>Cucumber</title><path d="M201.71,118.51a4.12,4.12,0,0,0-2.7-1.12,1.68,1.68,0,0,0-.7.13c-.14.06-.55.25-.47,1.42a2.62,2.62,0,0,0,1.26,1.68,9.52,9.52,0,0,0,3.8,1.47A6.23,6.23,0,0,0,201.71,118.51Z" transform="translate(-101.62 -111.17)" fill="none"/><path d="M169.21,137.05c-7.8,5.68-15.86,11.53-40.88,10.18,3.45,3.5,7.11,9.11,6.3,16.76s-3.91,12.25-7.24,14.86c8.87-.39,28.75-2.39,48.13-12h0a18.29,18.29,0,0,1,18.26-18c.44,0,.87,0,1.3.06,6.84-8.14,2.57-14.41,2.38-14.68l-.08-.12c-.21-.33-5.44-8.28-18.36-3A45.75,45.75,0,0,0,169.21,137.05Zm-29.46,19.79a1.93,1.93,0,0,1,1.79-2.05,52.9,52.9,0,0,0,18.83-5.65,1.93,1.93,0,0,1,1.81,3.4,55.85,55.85,0,0,1-20.39,6.09h-.13A1.92,1.92,0,0,1,139.75,156.84Zm28.17,7c-14.64,6.32-24.4,6.73-24.81,6.74H143a1.93,1.93,0,0,1-.06-3.85c.09,0,9.51-.42,23.42-6.42a1.92,1.92,0,1,1,1.52,3.53Z" transform="translate(-101.62 -111.17)" fill="#acd263"/><path d="M109.92,174.54a16.25,16.25,0,0,0,7.88,3.91c1.32,0,11.36-.76,12.85-14.88,1-9.88-7.37-15.68-9.34-16.89-2.86-.1-7.41.28-10.82,3.09-3.23,2.65-4.87,7-4.87,13C105.61,167.84,107.06,171.81,109.92,174.54Zm12.24-13H125a1.93,1.93,0,0,1,0,3.85h-2.79a1.93,1.93,0,0,1,0-3.85Zm-6.46-7.41a1.93,1.93,0,0,1,3.85,0V159a1.93,1.93,0,0,1-3.85,0Zm0,13.88a1.93,1.93,0,1,1,3.85,0v4.79a1.93,1.93,0,1,1-3.85,0Zm-5.4-6.47h2.78a1.93,1.93,0,1,1,0,3.85H110.3a1.93,1.93,0,1,1,0-3.85Z" transform="translate(-101.62 -111.17)" fill="#fff"/><path d="M208.1,167.11a14.28,14.28,0,0,0-28.55,0,14.15,14.15,0,0,0,.42,3.44h.13a18.11,18.11,0,0,1,6.31,1.15l2.84-2.84a1.92,1.92,0,1,1,2.72,2.72L190,173.5a18.42,18.42,0,0,1,6.6,7.6A14.23,14.23,0,0,0,208.1,167.11Zm-16.13-2a1.91,1.91,0,0,1-2.72,0l-3.39-3.39a1.92,1.92,0,0,1,2.72-2.72l3.39,3.39A1.91,1.91,0,0,1,192,165.14Zm3.7-2.72,3.39-3.39a1.92,1.92,0,1,1,2.72,2.72l-3.39,3.39a1.88,1.88,0,0,1-1.36.57,1.93,1.93,0,0,1-1.36-3.29ZM201.78,175a1.93,1.93,0,0,1-2.72,0l-3.39-3.39a1.92,1.92,0,1,1,2.72-2.72l3.39,3.38A1.92,1.92,0,0,1,201.78,175Z" transform="translate(-101.62 -111.17)" fill="#fff"/><path d="M180.1,174.54a14.28,14.28,0,1,0,14.27,14.28A14.29,14.29,0,0,0,180.1,174.54Zm-4.54,16.2h-4.8a1.93,1.93,0,0,1,0-3.85h4.8a1.93,1.93,0,0,1,0,3.85Zm6.47,7.41a1.93,1.93,0,0,1-3.85,0v-4.79a1.93,1.93,0,1,1,3.85,0Zm0-13.87a1.93,1.93,0,0,1-3.85,0v-4.8a1.93,1.93,0,0,1,3.85,0Zm7.4,6.46h-4.79a1.93,1.93,0,1,1,0-3.85h4.79a1.93,1.93,0,1,1,0,3.85Z" transform="translate(-101.62 -111.17)" fill="#fff"/><path d="M141.79,158.63a55.85,55.85,0,0,0,20.39-6.09,1.93,1.93,0,0,0-1.81-3.4,52.9,52.9,0,0,1-18.83,5.65,1.92,1.92,0,0,0,.12,3.84Z" transform="translate(-101.62 -111.17)" fill="#85986f"/><path d="M166.4,160.32c-13.91,6-23.33,6.42-23.42,6.42a1.93,1.93,0,0,0,.06,3.85h.07c.41,0,10.17-.42,24.81-6.74a1.92,1.92,0,1,0-1.52-3.53Z" transform="translate(-101.62 -111.17)" fill="#85986f"/><path d="M199.51,149.76c5.06-7.2,3.41-13.39,2.13-16.23a7.5,7.5,0,0,0,4-4,13.8,13.8,0,0,0,1.09-3.57h0c5.7-1.62,7.28-7.74,6.87-12.93a2,2,0,0,0-4,.31c.09,1.12.32,6.23-2.71,8.2a9.63,9.63,0,0,0-2.31-5.79c-1.78-1.85-5.23-3-7.9-1.86-2,.87-3,2.82-2.83,5.34a6.28,6.28,0,0,0,3,4.69,13.81,13.81,0,0,0,5.81,2.19,9.18,9.18,0,0,1-.6,1.72c-1.06,2.28-2.35,2.17-2.78,2.14h-.16c-3-2.89-9.9-7.3-21.52-2.53a49,49,0,0,0-10.7,6.4c-7.61,5.54-15.48,11.26-42.15,9.17-1.24-.22-10.25-1.63-16.72,3.67-4.21,3.44-6.35,8.86-6.36,16.1,0,6.23,1.86,11.18,5.56,14.7,5.9,5.61,14.35,5.51,15.37,5.47.2,0,.69,0,1.42,0a128.24,128.24,0,0,0,45.68-9.1,18.27,18.27,0,1,0,28.29,11.05,18.25,18.25,0,0,0,1.57-35.14Zm-.41-29.14a2.62,2.62,0,0,1-1.26-1.68c-.08-1.17.33-1.36.47-1.42a1.68,1.68,0,0,1,.7-.13,4.12,4.12,0,0,1,2.7,1.12,6.23,6.23,0,0,1,1.19,3.58A9.52,9.52,0,0,1,199.1,120.62Zm-19,82.47a14.28,14.28,0,1,1,14.27-14.27A14.28,14.28,0,0,1,180.1,203.09Zm-69.61-53.32c3.41-2.81,8-3.19,10.82-3.09,2,1.21,10.38,7,9.34,16.89-1.49,14.12-11.53,14.85-12.85,14.88a16.25,16.25,0,0,1-7.88-3.91c-2.86-2.73-4.31-6.7-4.3-11.78C105.62,156.79,107.26,152.42,110.49,149.77Zm86.93-15.67.08.12c.19.27,4.46,6.54-2.38,14.68-.43,0-.86-.06-1.3-.06a18.29,18.29,0,0,0-18.26,18h0c-19.38,9.63-39.26,11.63-48.13,12,3.33-2.61,6.42-7.1,7.24-14.86s-2.85-13.26-6.3-16.76c25,1.35,33.08-4.5,40.88-10.18a45.75,45.75,0,0,1,9.85-5.93C192,125.82,197.21,133.77,197.42,134.1ZM190,173.5a18.36,18.36,0,0,0-3.63-1.81,18.11,18.11,0,0,0-6.31-1.15H180a14.27,14.27,0,0,1,13.85-17.71,14.27,14.27,0,0,1,2.82,28.26A18.42,18.42,0,0,0,190,173.5Z" transform="translate(-101.62 -111.17)" fill="#5e4739"/><path d="M180.1,177.56a1.92,1.92,0,0,0-1.92,1.92v4.8a1.93,1.93,0,0,0,3.85,0v-4.8A1.92,1.92,0,0,0,180.1,177.56Z" transform="translate(-101.62 -111.17)" fill="#acd263"/><path d="M180.1,191.43a1.92,1.92,0,0,0-1.92,1.93v4.79a1.93,1.93,0,0,0,3.85,0v-4.79A1.92,1.92,0,0,0,180.1,191.43Z" transform="translate(-101.62 -111.17)" fill="#acd263"/><path d="M189.43,186.89h-4.79a1.93,1.93,0,1,0,0,3.85h4.79a1.93,1.93,0,1,0,0-3.85Z" transform="translate(-101.62 -111.17)" fill="#acd263"/><path d="M175.56,186.89h-4.8a1.93,1.93,0,0,0,0,3.85h4.8a1.93,1.93,0,0,0,0-3.85Z" transform="translate(-101.62 -111.17)" fill="#acd263"/><path d="M117.62,160.87a1.92,1.92,0,0,0,1.93-1.92v-4.8a1.93,1.93,0,0,0-3.85,0V159A1.92,1.92,0,0,0,117.62,160.87Z" transform="translate(-101.62 -111.17)" fill="#acd263"/><path d="M117.62,174.75a1.92,1.92,0,0,0,1.93-1.93V168a1.93,1.93,0,1,0-3.85,0v4.79A1.92,1.92,0,0,0,117.62,174.75Z" transform="translate(-101.62 -111.17)" fill="#acd263"/><path d="M122.16,165.41H125a1.93,1.93,0,0,0,0-3.85h-2.79a1.93,1.93,0,0,0,0,3.85Z" transform="translate(-101.62 -111.17)" fill="#acd263"/><path d="M110.3,165.41h2.78a1.93,1.93,0,1,0,0-3.85H110.3a1.93,1.93,0,1,0,0,3.85Z" transform="translate(-101.62 -111.17)" fill="#acd263"/><path d="M197,165.71a1.88,1.88,0,0,0,1.36-.57l3.39-3.39a1.92,1.92,0,1,0-2.72-2.72l-3.39,3.39a1.93,1.93,0,0,0,1.36,3.29Z" transform="translate(-101.62 -111.17)" fill="#acd263"/><path d="M192,168.85a1.91,1.91,0,0,0-2.72,0l-2.84,2.84A18.36,18.36,0,0,1,190,173.5l1.93-1.93A1.92,1.92,0,0,0,192,168.85Z" transform="translate(-101.62 -111.17)" fill="#acd263"/><path d="M198.39,168.85a1.92,1.92,0,1,0-2.72,2.72l3.39,3.39a1.93,1.93,0,0,0,2.72,0,1.92,1.92,0,0,0,0-2.73Z" transform="translate(-101.62 -111.17)" fill="#acd263"/><path d="M188.58,159a1.92,1.92,0,0,0-2.72,2.72l3.39,3.39a1.92,1.92,0,0,0,2.72-2.72Z" transform="translate(-101.62 -111.17)" fill="#acd263"/></svg>