<svg xmlns="http://www.w3.org/2000/svg" viewBox="0 0 108.07 105.72"><title>Lettuce</title><path d="M100.43,43.06a4.53,4.53,0,0,0-2.18.48c3.32.4,6.21,2.3,7.3,4.73a5.59,5.59,0,0,0-.3-1.42A5.73,5.73,0,0,0,100.43,43.06Z" transform="translate(-35.58 -39.06)" fill="none"/><path d="M85.36,93c.5,0,1,0,1.57,0h.79a18.59,18.59,0,0,0,2.34-7.93A26.31,26.31,0,0,1,87.29,89,16.52,16.52,0,0,1,85.36,93Z" transform="translate(-35.58 -39.06)" fill="none"/><path d="M139.48,82.14a5.21,5.21,0,0,0,.1-2.15,6.68,6.68,0,0,0-.82-2.19,8.89,8.89,0,0,1,.76,2.85A7.41,7.41,0,0,1,139.48,82.14Z" transform="translate(-35.58 -39.06)" fill="none"/><path d="M134.56,88c2.78-1.93,4.42-3.9,4.92-5.88a7.41,7.41,0,0,0,0-1.49,8.89,8.89,0,0,0-.76-2.85,10.9,10.9,0,0,0-4.53-4.22c-1.95-.54-5.44-1.49-9.44,2.4a2,2,0,0,1-3.19-.55c-2.32-4.75-5.95-4.25-7.4-3.81-2.73.82-5.39,3.58-4.93,7.09a2,2,0,0,1-4,.52,10.14,10.14,0,0,1,1.34-6.39,11.43,11.43,0,0,0-1.38,1l0,0a.76.76,0,0,1-.14.11,5.84,5.84,0,0,0-2.35,5.11,1,1,0,0,1-2,.26c-.32-2.5.86-5,3.06-6.91a12.78,12.78,0,0,0,2.27-4.31,1.94,1.94,0,0,1-2.2-.31,2,2,0,0,1-.14-2.83c2.37-2.62,3.19-5.63,2.62-7-.1-.26-.38-.93-1.89-1a2,2,0,0,1-1.25-3.46,6.22,6.22,0,0,0,2.33-5.19c-1.09-2.43-4-4.33-7.3-4.73a8.36,8.36,0,0,0-3.6,4.06,2,2,0,1,1-3.6-1.74c.16-.35.34-.67.52-1a14.07,14.07,0,0,0-4.23,3.76,3.59,3.59,0,0,1-.07,1.3c-.17.72-.43,1.51-.71,2.34-.56,1.67-1.41,4.19-.87,5.14a1.48,1.48,0,0,0,1,.56c2.49.55,8.35,2.22,9.13,5.65a3.83,3.83,0,0,1-1.67,3.95c-.68.53-1.33,1-1.91,1.37-2.17,1.48-2.82,1.92-2.47,4.29a11.26,11.26,0,0,0,.8,2.59c1.09,2.74,1.71,5.3-.52,9.26A18.59,18.59,0,0,1,87.72,93c2.25,0,2.34-.34,2.76-2.08a13.59,13.59,0,0,1,2.25-5.2c2-2.72,4.19-3.13,5.7-3,3,.27,5.66,3,6.92,5.57a24.55,24.55,0,0,0,2.28-1.53c1.15-.84,2.59-1.88,4.33-2.91,2.6-1.53,5.41-1.76,7.51-.62a5.78,5.78,0,0,1,2.93,5.11c0,.56,0,1,0,1.44,0,.14,0,.31,0,.45.65.2,2,.45,3.6.73.9.16,2,.35,3.19.59a11.94,11.94,0,0,1,1.34.33A31.08,31.08,0,0,0,133.74,90,2,2,0,0,1,134.56,88Z" transform="translate(-35.58 -39.06)" fill="#85986f"/><path d="M87.25,89a2,2,0,0,1-3.07-2.57c4.3-5.11,3.65-6.73,2.68-9.17a15.11,15.11,0,0,1-1-3.48C85.11,69,87.71,67.2,90,65.63c.55-.37,1.12-.76,1.69-1.21l.09-.07c-.59-.61-2.58-1.73-6-2.48a5.26,5.26,0,0,1-3.63-2.49c-1.41-2.51-.31-5.76.57-8.38.2-.6.39-1.17.53-1.66a2.31,2.31,0,0,0-.84.23c-.9.4-4,2.35-6.13,10.49-4,15.14-23.71,34.07-24.54,34.87l-.1.08c-5.25,4.41-7.95,8.84-8,13.18a12.35,12.35,0,0,0,3.73,8.62l3.93,3.58,0,0,15.54,14.16c2.91,2.33,5.67,3.3,8.41,2.95,6.09-.76,11.39-7.76,16.06-13.94a53.68,53.68,0,0,1,6.72-7.88c7.68-6.56,25.92-13.39,28.44-14.32,2.51-1.84,4.45-4.22,4.29-5,0-.09-.5-.59-2.33-.94l-3.16-.58c-5.31-1-6.91-1.25-6.9-5.14,0-.34,0-.75,0-1.24a2,2,0,0,0-.84-1.78,4,4,0,0,0-3.57.56c-1.58.93-2.87,1.87-4,2.7-2.24,1.62-3.87,2.79-5.72,2.32a3.81,3.81,0,0,1-2.48-2.25c-.76-1.56-2.34-3.24-3.69-3.36-.26,0-1.06-.1-2.12,1.35a9.77,9.77,0,0,0-1.59,3.8c-.72,3-1.74,5.22-7.51,5.12-6.44-.14-8.49,2.32-11.62,6.63-3.9,5.35-7.4,5.81-11.47,4.84a2,2,0,0,1,.92-3.89c2.53.6,4.4.69,7.31-3.3,3.35-4.61,6.34-7.92,13.36-8.25a16.52,16.52,0,0,0,1.93-4Z" transform="translate(-35.58 -39.06)" fill="#c5dc76"/><path d="M126,91c-1.56-.28-3-.53-3.6-.73,0-.14,0-.31,0-.45,0-.41,0-.88,0-1.44a5.78,5.78,0,0,0-2.93-5.11c-2.1-1.14-4.91-.91-7.51.62-1.74,1-3.18,2.07-4.33,2.91a24.55,24.55,0,0,1-2.28,1.53c-1.26-2.58-3.88-5.3-6.92-5.57-1.51-.14-3.73.27-5.7,3a13.59,13.59,0,0,0-2.25,5.2C90.06,92.67,90,93,87.72,93h-.79c-.55,0-1.07,0-1.57,0-7,.33-10,3.64-13.36,8.25-2.91,4-4.78,3.9-7.31,3.3a2,2,0,0,0-.92,3.89c4.07,1,7.57.51,11.47-4.84,3.13-4.31,5.18-6.77,11.62-6.63,5.77.1,6.79-2.16,7.51-5.12A9.77,9.77,0,0,1,96,88.08c1.06-1.45,1.86-1.37,2.12-1.35,1.35.12,2.93,1.8,3.69,3.36a3.81,3.81,0,0,0,2.48,2.25c1.85.47,3.48-.7,5.72-2.32,1.15-.83,2.44-1.77,4-2.7a4,4,0,0,1,3.57-.56,2,2,0,0,1,.84,1.78c0,.49,0,.9,0,1.24,0,3.89,1.59,4.18,6.9,5.14l3.16.58c1.83.35,2.31.85,2.33.94.16.73-1.78,3.11-4.29,5-2.52.93-20.76,7.76-28.44,14.32a53.68,53.68,0,0,0-6.72,7.88c-4.67,6.18-10,13.18-16.06,13.94-2.74.35-5.5-.62-8.41-2.95L51.35,120.42l0,0-3.93-3.58a12.35,12.35,0,0,1-3.73-8.62c.07-4.34,2.77-8.77,8-13.18l.1-.08c.83-.8,20.56-19.73,24.54-34.87,2.13-8.14,5.23-10.09,6.13-10.49a2.31,2.31,0,0,1,.84-.23c-.14.49-.33,1.06-.53,1.66-.88,2.62-2,5.87-.57,8.38a5.26,5.26,0,0,0,3.63,2.49c3.37.75,5.36,1.87,6,2.48l-.09.07c-.57.45-1.14.84-1.69,1.21-2.29,1.57-4.89,3.34-4.18,8.19a15.11,15.11,0,0,0,1,3.48c1,2.44,1.62,4.06-2.68,9.17A2,2,0,0,0,87.25,89l0-.05a26.31,26.31,0,0,0,2.77-3.91c2.23-4,1.61-6.52.52-9.26a11.26,11.26,0,0,1-.8-2.59c-.35-2.37.3-2.81,2.47-4.29.58-.4,1.23-.84,1.91-1.37a3.83,3.83,0,0,0,1.67-3.95c-.78-3.43-6.64-5.1-9.13-5.65a1.48,1.48,0,0,1-1-.56c-.54-.95.31-3.47.87-5.14.28-.83.54-1.62.71-2.34a3.59,3.59,0,0,0,.07-1.3,3.68,3.68,0,0,0-2.86-3.15c-2.93-.73-8.8,1.29-12,13.56C68.85,72.76,50.1,91,49.07,92c-6.18,5.19-9.34,10.65-9.4,16.21a16.17,16.17,0,0,0,5,11.58l1,1A56.09,56.09,0,0,1,37.58,122a2,2,0,1,0,0,4h0c2.53,0,8.11-1.14,11.8-2l7.81,7.13c.64,1.77,0,8.34-1,10.91a2,2,0,0,0,1.18,2.57,2.09,2.09,0,0,0,.69.12A2,2,0,0,0,60,143.46,35.33,35.33,0,0,0,61.41,135l2.83,2.58.1.09c3.26,2.61,6.58,3.93,9.9,3.93a11.67,11.67,0,0,0,1.56-.1c7.76-1,13.6-8.69,18.75-15.5a51.54,51.54,0,0,1,6.13-7.25c7.53-6.43,27.27-13.62,27.46-13.69a2.19,2.19,0,0,0,.48-.25c1.65-1.16,6.95-5.27,6.1-9.22-.38-1.75-1.79-3-4.16-3.69a11.94,11.94,0,0,0-1.34-.33C128,91.33,126.93,91.14,126,91Z" transform="translate(-35.58 -39.06)" fill="#5e4739"/><path d="M143.52,79.29c-.93-5.39-6.27-9-8.3-9.59a12.45,12.45,0,0,0-11.32,1.81,9.61,9.61,0,0,0-10.85-3.72,11.06,11.06,0,0,0-6.41,5,10.14,10.14,0,0,0-1.34,6.39,2,2,0,0,0,4-.52c-.46-3.51,2.2-6.27,4.93-7.09,1.45-.44,5.08-.94,7.4,3.81a2,2,0,0,0,3.19.55c4-3.89,7.49-2.94,9.44-2.4a10.9,10.9,0,0,1,4.53,4.22,6.68,6.68,0,0,1,.82,2.19,5.21,5.21,0,0,1-.1,2.15c-.5,2-2.14,4-4.92,5.88a2,2,0,0,0-.82,2,2.07,2.07,0,0,0,.32.82,2,2,0,0,0,2.79.5C143.3,86.81,144,82.29,143.52,79.29Z" transform="translate(-35.58 -39.06)" fill="#5e4739"/><path d="M92,48.53a2,2,0,0,0,2.68-.93,8.36,8.36,0,0,1,3.6-4.06,4.53,4.53,0,0,1,2.18-.48,5.73,5.73,0,0,1,4.82,3.79,5.59,5.59,0,0,1,.3,1.42,6.22,6.22,0,0,1-2.33,5.19,2,2,0,0,0,1.25,3.46c1.51.09,1.79.76,1.89,1,.57,1.4-.25,4.41-2.62,7a2,2,0,0,0,.14,2.83,1.94,1.94,0,0,0,2.2.31,1.83,1.83,0,0,0,.63-.45c3.27-3.62,4.62-8.14,3.35-11.24a5.32,5.32,0,0,0-2-2.5,9.47,9.47,0,0,0,1-8.43,9.65,9.65,0,0,0-8.36-6.42c-3.6-.19-6.86,1.92-9.07,5.8-.18.32-.36.64-.52,1A2,2,0,0,0,92,48.53Z" transform="translate(-35.58 -39.06)" fill="#5e4739"/><path d="M48.49,128.72c-2.27,2.53-3,7.49-2.28,9.39a2,2,0,0,0,1.89,1.31,1.93,1.93,0,0,0,.7-.13A2,2,0,0,0,50,136.73a8.57,8.57,0,0,1,1.51-5.34,2,2,0,0,0-3-2.67Z" transform="translate(-35.58 -39.06)" fill="#5e4739"/></svg>