<svg xmlns="http://www.w3.org/2000/svg" viewBox="0 0 106.7 106.79"><title>Mushroom slide</title><path d="M179.08,121.14A5,5,0,0,0,184,116.2a5.46,5.46,0,0,0,0-.57,55.18,55.18,0,0,0-8-3.26,4.94,4.94,0,0,0,3.13,8.77Z" transform="translate(-104.46 -105.69)" fill="#f3dbd2"/><path d="M173.33,203.26c3.13-4.13,1.72-9.39,1.7-9.44l0-.21-4.8-29a19.44,19.44,0,0,1-1.31-4.46c-2.48-14.45,9-17.77,10.33-18.11.11,0,.41-.11.83-.2-2.45-3.29-9-9.78-22.52-9.78S138,138.79,135.93,142l.48.13c1.35.34,12.8,3.67,10.33,18.1a20.2,20.2,0,0,1-1.32,4.47l-4.84,29.16s-1.4,5.38,1.73,9.47c2.64,3.44,7.76,5.19,15.21,5.19h.58C165.57,208.48,170.69,206.72,173.33,203.26Z" transform="translate(-104.46 -105.69)" fill="#eacfbe"/><path d="M201.26,129.66a46.58,46.58,0,0,0-13.38-11.87,8.94,8.94,0,1,1-16.21-6.58,60.24,60.24,0,0,0-13.57-1.52h-.58c-29.4,0-43,19.78-43.16,20s-8.23,11.39-5.21,25.57c3.55,16.67,19,15.8,19.64,15.76H129c.47,0,11.82.12,13.81-11.48,1.92-11.19-6.37-13.34-7.33-13.55l-.17-.05s-4.54-1.33-7.88.6a7.64,7.64,0,0,0-3.49,5.29,4.81,4.81,0,0,0,.53,4c1.65,2.37,5.56,2.91,5.6,2.92a2,2,0,0,1,1.74,2.23,2,2,0,0,1-2.23,1.74c-.23,0-5.7-.75-8.39-4.6A8.69,8.69,0,0,1,120,150.9a11.62,11.62,0,0,1,5.41-7.86,12.65,12.65,0,0,1,6.18-1.56c1.36-2.78,7.75-13.38,25.91-13.38s25.49,10.69,27,13.32a12.34,12.34,0,0,1,6.59,1.8c2.54,1.65,4.06,4.3,4.52,7.88a9.3,9.3,0,0,1-1.83,7.24c-3,3.76-8.39,4.35-8.61,4.38a2,2,0,0,1-2.2-1.79,2,2,0,0,1,1.79-2.19s4-.46,5.9-2.9a5.41,5.41,0,0,0,1-4.23,6.54,6.54,0,0,0-2.72-5c-3.32-2.17-8.58-.66-8.64-.65l-.16,0c-.94.21-9.24,2.36-7.32,13.55,2,11.6,13.35,11.48,13.82,11.48h.2c.66,0,16.07.91,19.63-15.76,3-14.25-5.07-25.38-5.15-25.49Zm-73,.51a4.71,4.71,0,1,1,4.71-4.7A4.71,4.71,0,0,1,128.28,130.17Z" transform="translate(-104.46 -105.69)" fill="#f3dbd2"/><path d="M128.28,124.76a.71.71,0,1,0,.71.71A.7.7,0,0,0,128.28,124.76Z" transform="translate(-104.46 -105.69)" fill="#f3dbd2"/><path d="M204.56,127.4c-.91-1.34-15.22-21.71-46.46-21.71h-.58c-31.24,0-45.55,20.36-46.46,21.71-.68.94-9.17,13-5.82,28.68,4.1,19.26,22,19,23.71,18.92a18.68,18.68,0,0,0,11.32-3.69l-3.57,21.56c-.25,1-1.66,7.46,2.41,12.81,3.43,4.51,9.62,6.8,18.41,6.8h.58c8.78,0,15-2.29,18.41-6.8,4.07-5.35,2.66-11.82,2.41-12.81l-3.57-21.57a18.9,18.9,0,0,0,11.32,3.7h.6c3.56,0,19.29-1,23.11-18.93C213.73,140.38,205.24,128.34,204.56,127.4Zm1.91,27.84c-3.56,16.67-19,15.8-19.63,15.76h-.2c-.47,0-11.83.12-13.82-11.48-1.92-11.19,6.38-13.34,7.32-13.55l.16,0c.06,0,5.32-1.52,8.64.65a6.54,6.54,0,0,1,2.72,5,5.41,5.41,0,0,1-1,4.23c-1.92,2.44-5.86,2.89-5.9,2.9a2,2,0,0,0-1.79,2.19,2,2,0,0,0,2.2,1.79c.22,0,5.62-.62,8.61-4.38a9.3,9.3,0,0,0,1.83-7.24c-.46-3.58-2-6.23-4.52-7.88a12.34,12.34,0,0,0-6.59-1.8c-1.51-2.63-8.76-13.32-27-13.32S133,138.7,131.61,141.48a12.65,12.65,0,0,0-6.18,1.56A11.62,11.62,0,0,0,120,150.9a8.69,8.69,0,0,0,1.15,7.21c2.69,3.85,8.16,4.57,8.39,4.6a2,2,0,0,0,2.23-1.74,2,2,0,0,0-1.74-2.23s-4-.55-5.6-2.92a4.81,4.81,0,0,1-.53-4,7.64,7.64,0,0,1,3.49-5.29c3.34-1.93,7.84-.61,7.88-.6l.17.05c1,.21,9.25,2.36,7.33,13.55C140.8,171.12,129.45,171,129,171h-.19c-.66,0-16.09.91-19.64-15.76-3-14.18,5.07-25.39,5.21-25.57s13.76-20,43.16-20h.58a60.24,60.24,0,0,1,13.57,1.52,8.94,8.94,0,1,0,16.21,6.58,46.58,46.58,0,0,1,13.38,11.87l.06.09C201.4,129.86,209.51,141,206.47,155.24Zm-64.16,48c-3.13-4.09-1.74-9.43-1.73-9.47l4.84-29.16a20.2,20.2,0,0,0,1.32-4.47c2.47-14.43-9-17.76-10.33-18.1l-.48-.13c2-3.17,8-9.86,21.59-9.86s20.07,6.49,22.52,9.78c-.42.09-.72.17-.83.2-1.32.34-12.81,3.66-10.33,18.11a19.44,19.44,0,0,0,1.31,4.46l4.8,29,0,.21c0,.05,1.43,5.31-1.7,9.44-2.64,3.46-7.76,5.22-15.23,5.22h-.58C150.07,208.48,145,206.73,142.31,203.29ZM176,112.37a55.18,55.18,0,0,1,8,3.26,5.46,5.46,0,0,1,0,.57,5,5,0,1,1-8.08-3.83Z" transform="translate(-104.46 -105.69)" fill="#5e4739"/><path d="M128.28,120.76a4.71,4.71,0,1,0,4.71,4.71A4.71,4.71,0,0,0,128.28,120.76Zm0,5.41a.71.71,0,1,1,.71-.7A.7.7,0,0,1,128.28,126.17Z" transform="translate(-104.46 -105.69)" fill="#5e4739"/></svg>