<svg xmlns="http://www.w3.org/2000/svg" viewBox="0 0 107.54 109.52"><title>Blueberry</title><path d="M133.59,164.47a16.22,16.22,0,1,0-13.93,7.92,16.57,16.57,0,0,0,1.7-.09,1.61,1.61,0,0,1,.22,0A20.22,20.22,0,0,1,133.59,164.47ZM115.5,162a7.59,7.59,0,1,1,7.59-7.59A7.61,7.61,0,0,1,115.5,162Z" transform="translate(-99.44 -99.74)" fill="#baa1b6"/><path d="M160.56,155.27a3.59,3.59,0,1,0,3.59,3.59A3.59,3.59,0,0,0,160.56,155.27Z" transform="translate(-99.44 -99.74)" fill="#baa1b6"/><path d="M154.1,184.22a16.22,16.22,0,1,0-16.22,16.22A16.24,16.24,0,0,0,154.1,184.22Zm-19.31,2a7.59,7.59,0,1,1,7.59-7.59A7.6,7.6,0,0,1,134.79,186.24Z" transform="translate(-99.44 -99.74)" fill="#baa1b6"/><path d="M134.79,175.06a3.59,3.59,0,1,0,3.59,3.59A3.6,3.6,0,0,0,134.79,175.06Z" transform="translate(-99.44 -99.74)" fill="#baa1b6"/><path d="M115.5,150.85a3.59,3.59,0,1,0,3.59,3.59A3.59,3.59,0,0,0,115.5,150.85Z" transform="translate(-99.44 -99.74)" fill="#baa1b6"/><path d="M173,163.52a16.22,16.22,0,1,0-32.43,0,2.08,2.08,0,0,1-.12.66,20.23,20.23,0,0,1,17.13,15.52A16.23,16.23,0,0,0,173,163.52Zm-12.43,2.93a7.59,7.59,0,1,1,7.59-7.59A7.59,7.59,0,0,1,160.56,166.45Z" transform="translate(-99.44 -99.74)" fill="#baa1b6"/><path d="M189.17,177.63A13.82,13.82,0,1,0,203,191.45,13.84,13.84,0,0,0,189.17,177.63Zm3.34,25.52a6.85,6.85,0,1,1,6.86-6.85A6.86,6.86,0,0,1,192.51,203.15Z" transform="translate(-99.44 -99.74)" fill="#baa1b6"/><path d="M192.51,193.45a2.85,2.85,0,1,0,2.86,2.85A2.86,2.86,0,0,0,192.51,193.45Z" transform="translate(-99.44 -99.74)" fill="#baa1b6"/><path d="M189.17,173.63A17.82,17.82,0,1,0,207,191.45,17.84,17.84,0,0,0,189.17,173.63Zm0,31.63A13.82,13.82,0,1,1,203,191.45,13.83,13.83,0,0,1,189.17,205.26Z" transform="translate(-99.44 -99.74)" fill="#5e4739"/><path d="M177,163.52a20.2,20.2,0,0,0-37.4-10.61,20.21,20.21,0,1,0-20.34,23.46,20.22,20.22,0,1,0,38.85,7.85c0-.19,0-.37,0-.55A20.22,20.22,0,0,0,177,163.52Zm-55.33,20.7a16.22,16.22,0,1,1,16.22,16.22A16.24,16.24,0,0,1,121.66,184.22Zm-.3-11.92a16.57,16.57,0,0,1-1.7.09,16.23,16.23,0,1,1,13.93-7.92,20.22,20.22,0,0,0-12,7.83A1.61,1.61,0,0,0,121.36,172.3Zm19.08-8.12a2.08,2.08,0,0,0,.12-.66,16.22,16.22,0,1,1,17,16.18A20.23,20.23,0,0,0,140.44,164.18Z" transform="translate(-99.44 -99.74)" fill="#5e4739"/><path d="M192.51,189.45a6.85,6.85,0,1,0,6.86,6.85A6.86,6.86,0,0,0,192.51,189.45Zm0,9.7a2.85,2.85,0,1,1,2.86-2.85A2.86,2.86,0,0,1,192.51,199.15Z" transform="translate(-99.44 -99.74)" fill="#5e4739"/><path d="M134.79,171.06a7.59,7.59,0,1,0,7.59,7.59A7.61,7.61,0,0,0,134.79,171.06Zm0,11.18a3.59,3.59,0,1,1,3.59-3.59A3.6,3.6,0,0,1,134.79,182.24Z" transform="translate(-99.44 -99.74)" fill="#5e4739"/><path d="M160.56,151.27a7.59,7.59,0,1,0,7.59,7.59A7.59,7.59,0,0,0,160.56,151.27Zm0,11.18a3.59,3.59,0,1,1,3.59-3.59A3.59,3.59,0,0,1,160.56,162.45Z" transform="translate(-99.44 -99.74)" fill="#5e4739"/><path d="M115.5,146.85a7.59,7.59,0,1,0,7.59,7.59A7.6,7.6,0,0,0,115.5,146.85Zm0,11.18a3.59,3.59,0,1,1,3.59-3.59A3.59,3.59,0,0,1,115.5,158Z" transform="translate(-99.44 -99.74)" fill="#5e4739"/><path d="M158.52,136.17c7.95,0,13.5-2.26,16.51-6.72,4.77-7.08,2.39-18.17.76-23.66a34.34,34.34,0,0,1-7.06,4.69l-.2.08c-16.05,5.88-17.48,16.34-17.16,21.34,7.75-11.22,15.45-13.88,15.85-14a2,2,0,0,1,1.26,3.8c-.13,0-7.84,2.83-15.26,14.69l3.41,1.16A2,2,0,0,1,158.52,136.17Z" transform="translate(-99.44 -99.74)" fill="#c5dc76"/><path d="M140.32,131.61c.13-.5,3.09-12-12.38-17.7l-.19-.08a26.41,26.41,0,0,1-4.88-3.11c-1.19,4.26-2.58,11.87.73,16.77,2.18,3.23,6.25,4.87,12.1,4.87a2,2,0,0,1,1.88,1.36l2.77-.93A1.9,1.9,0,0,1,140.32,131.61Z" transform="translate(-99.44 -99.74)" fill="#85986f"/><path d="M135.7,136.36a2,2,0,0,0,1.88-2.64,2,2,0,0,0-1.88-1.36c-5.85,0-9.92-1.64-12.1-4.87-3.31-4.9-1.92-12.51-.73-16.77a26.41,26.41,0,0,0,4.88,3.11l.19.08c15.47,5.68,12.51,17.2,12.38,17.7a1.9,1.9,0,0,0,0,1.18,2,2,0,0,0,3.82-.1c0-.15,4.18-15.49-14.74-22.49-2-1-4.92-2.93-5.57-4.28a1.94,1.94,0,0,0-1.86-1.14,2,2,0,0,0-1.8,1.25c-.24.6-5.9,14.82.07,23.69C123.24,134.13,128.43,136.36,135.7,136.36Z" transform="translate(-99.44 -99.74)" fill="#5e4739"/><path d="M146.59,144.78a2,2,0,0,0,.83.18,2,2,0,0,0,1.82-1.17,66.41,66.41,0,0,1,4-7.42c7.42-11.86,15.13-14.64,15.26-14.69a2,2,0,0,0-1.26-3.8c-.4.14-8.1,2.8-15.85,14-.32-5,1.11-15.46,17.16-21.34l.2-.08a34.34,34.34,0,0,0,7.06-4.69c1.63,5.49,4,16.58-.76,23.66-3,4.46-8.56,6.72-16.51,6.72a2,2,0,0,0-1.89,1.36,1.91,1.91,0,0,0-.11.64,2,2,0,0,0,2,2c9.36,0,16-2.86,19.83-8.49,7.7-11.43.35-29.91,0-30.69a2,2,0,0,0-3.66-.11c-1,2-5.18,4.72-7.67,6-24.48,9-19.16,28.75-19.1,28.95a1.85,1.85,0,0,0,.48.81c-1,1.7-1.91,3.53-2.82,5.53A2,2,0,0,0,146.59,144.78Z" transform="translate(-99.44 -99.74)" fill="#5e4739"/></svg>