<svg xmlns="http://www.w3.org/2000/svg" viewBox="0 0 100.03 100.03"><title>Kiwi slide</title><path d="M203.82,159.08a46,46,0,1,0-46,46A46.06,46.06,0,0,0,203.82,159.08Zm-48-32.22a2,2,0,0,1,4,0v8.28a2,2,0,0,1-4,0Zm-27.92,17.91a2,2,0,0,1,2.7-.86l7.53,3.91a2,2,0,0,1-.93,3.77,2,2,0,0,1-.92-.22l-7.52-3.9A2,2,0,0,1,127.89,144.77Zm18.6,35.76-4.39,5.72a2,2,0,0,1-1.59.78,2,2,0,0,1-1.59-3.21l4.39-5.73a2,2,0,0,1,3.18,2.44Zm29.17,6.85a2,2,0,0,1-.93.23,2,2,0,0,1-1.77-1.07l-3.13-5.94a2,2,0,1,1,3.54-1.87l3.13,6A2,2,0,0,1,175.66,187.38Zm8.45-19.92a2,2,0,0,1-1.92,1.46,2.09,2.09,0,0,1-.55-.08L175,167a19,19,0,0,1-15.18,10.94v5.42a2,2,0,0,1-4,0V177.9a18.94,18.94,0,0,1-14.3-9.26l-7,3.65a2.05,2.05,0,0,1-.92.23,2,2,0,0,1-.93-3.78l7.2-3.75a18.63,18.63,0,0,1-1-5.91,18.88,18.88,0,0,1,7.44-15,2,2,0,0,1-.43-.63l-2.29-5.55a2,2,0,1,1,3.7-1.52l2.29,5.55,0,.12a18.81,18.81,0,0,1,18.6,1.26l5.06-5.27a2,2,0,1,1,2.88,2.77l-4.85,5.05a18.74,18.74,0,0,1,5,17.3l6.46,1.83A2,2,0,0,1,184.11,167.46Zm4.57-18-6.4,2.48a1.84,1.84,0,0,1-.72.14,2,2,0,0,1-.73-3.87l6.41-2.48a2,2,0,0,1,1.44,3.73Z" transform="translate(-107.79 -109.07)" fill="#c5dc76"/><path d="M157.81,109.07a50,50,0,1,0,50,50A50.08,50.08,0,0,0,157.81,109.07Zm-46,50a46,46,0,1,1,46,46A46.07,46.07,0,0,1,111.79,159.08Z" transform="translate(-107.79 -109.07)" fill="#5e4739"/><path d="M157.81,144.17a14.92,14.92,0,1,0,14.92,14.91A14.93,14.93,0,0,0,157.81,144.17Z" transform="translate(-107.79 -109.07)" fill="#ffeb8a"/><path d="M157.81,137.14a2,2,0,0,0,2-2v-8.28a2,2,0,0,0-4,0v8.28A2,2,0,0,0,157.81,137.14Z" transform="translate(-107.79 -109.07)" fill="#5e4739"/><path d="M137.19,151.59a2,2,0,0,0,.93-3.77l-7.53-3.91a2,2,0,1,0-1.84,3.56l7.52,3.9A2,2,0,0,0,137.19,151.59Z" transform="translate(-107.79 -109.07)" fill="#5e4739"/><path d="M187.24,145.78l-6.41,2.48a2,2,0,0,0,.73,3.87,1.84,1.84,0,0,0,.72-.14l6.4-2.48a2,2,0,0,0-1.44-3.73Z" transform="translate(-107.79 -109.07)" fill="#5e4739"/><path d="M182.73,165l-6.46-1.83a18.74,18.74,0,0,0-5-17.3l4.85-5.05a2,2,0,1,0-2.88-2.77l-5.06,5.27a18.81,18.81,0,0,0-18.6-1.26l0-.12-2.29-5.55a2,2,0,1,0-3.7,1.52l2.29,5.55a2,2,0,0,0,.43.63,18.88,18.88,0,0,0-7.44,15,18.63,18.63,0,0,0,1,5.91l-7.2,3.75a2,2,0,0,0,.93,3.78,2.05,2.05,0,0,0,.92-.23l7-3.65a18.94,18.94,0,0,0,14.3,9.26v5.42a2,2,0,0,0,4,0V177.9A19,19,0,0,0,175,167l6.65,1.88a2.09,2.09,0,0,0,.55.08,2,2,0,0,0,.54-3.93Zm-24.92,9a14.92,14.92,0,1,1,14.92-14.92A14.93,14.93,0,0,1,157.81,174Z" transform="translate(-107.79 -109.07)" fill="#5e4739"/><path d="M173.37,178.73a2,2,0,1,0-3.54,1.87l3.13,5.94a2,2,0,0,0,1.77,1.07,2,2,0,0,0,.93-.23,2,2,0,0,0,.84-2.7Z" transform="translate(-107.79 -109.07)" fill="#5e4739"/><path d="M146.12,177.73a2,2,0,0,0-2.81.36l-4.39,5.73a2,2,0,0,0,3.18,2.43l4.39-5.72A2,2,0,0,0,146.12,177.73Z" transform="translate(-107.79 -109.07)" fill="#5e4739"/></svg>