<svg xmlns="http://www.w3.org/2000/svg" viewBox="0 0 101.9 85.85"><title>Olive</title><path d="M199.84,184.2c2.17-3.26,3-7.75,2.54-13-.91-9.35-5.85-15.15-12.74-15.15-.41,0-.82,0-1.24.06-7.53.73-11.77,7.6-10.81,17.5s6.62,16.29,14,15.58A10.91,10.91,0,0,0,199.84,184.2ZM189.3,165.43a1.93,1.93,0,0,1,1.37-3.6C191,162,198.58,165,196,179a1.93,1.93,0,0,1-1.89,1.58,2.07,2.07,0,0,1-.35,0,1.93,1.93,0,0,1-1.55-2.24C194.19,167.62,189.35,165.45,189.3,165.43Z" transform="translate(-104.63 -109.86)" fill="#4f5640"/><path d="M206.36,170.84c-1.36-14-10.2-19.49-18.34-18.69a15.88,15.88,0,0,0-3.34.7c-6.27-8.43-16.46-12.54-26.05-14.47,1.31-2.67,3.6-8.6,1.6-14.68-1.7-5.17-6-9.14-12.86-11.81-18.72-7.31-40.92,7.46-41.86,8.09a2,2,0,0,0-.71,2.46c1.09,2.48,4.41,2.58,11,2.79a146.11,146.11,0,0,1,21.31,1.88c12.38,2.12,15.78,7.82,16.7,10.46a92.68,92.68,0,0,0-18.08-.64,9.8,9.8,0,0,0-6.74-4.28c-3.47-.64-7.72.06-12.27,2s-8,4.56-10.09,7.53-2.57,6.39-1.31,9.35,4,4.92,7.66,5.52a15.66,15.66,0,0,0,2.51.2,25.62,25.62,0,0,0,9.9-2.29c4.55-1.94,8-4.52,9.94-7.48a10.14,10.14,0,0,0,1.77-6.61,93.15,93.15,0,0,1,11,.18c-2.27,1.49-37.65,25.17-36.29,47.29a2,2,0,0,0,.71,1.41,6.67,6.67,0,0,0,8.14.09c3.2-2.28,26.42-28.29,30.57-46.74a2,2,0,0,0-.53-1.82,66.36,66.36,0,0,1,15.19,3.27,37.07,37.07,0,0,0-6.61,9.89l.2.09c-7-.8-14.93,3.72-18.33,16.21-3.27,12,.61,22.08,9.45,24.49a13.37,13.37,0,0,0,3.56.48c7.47,0,14.17-6.41,17-16.79,1.63-6,1.55-11.45-.26-15.75a14,14,0,0,0-7.68-7.71c.81-1.66,3.34-6.49,6.58-9.06l-.32-.4A30.68,30.68,0,0,1,181,154.62c-4.93,3.24-8.35,9.62-7.4,19.4,1.12,11.56,8,19.24,16.86,19.24.5,0,1,0,1.53-.07a15,15,0,0,0,11.17-6.77C205.86,182.38,207,177,206.36,170.84Zm-82.54-19.56h0c-4.87,2.08-8.23,2.13-10.19,1.81a5.18,5.18,0,0,1-3.7-8.66c1.12-1.63,3.48-4,8.36-6.11a21.09,21.09,0,0,1,8-1.91,10.26,10.26,0,0,1,2,.17,5.34,5.34,0,0,1,3.71,8.69C130.47,147.57,127.65,149.65,123.82,151.28Zm-5.5,35.31a2.69,2.69,0,0,1-2.56.45c0-15.25,20.3-32.18,29.8-39.28C139.06,164.11,120.85,184.79,118.32,186.59Zm49-8.72h0c-2.7,9.89-9,15.31-15.65,13.5s-9.33-9.68-6.64-19.58c2.3-8.43,7.16-13.39,12.81-13.39a10.28,10.28,0,0,1,2.71.37,9.88,9.88,0,0,1,6.68,5.95C168.66,168.19,168.69,172.74,167.29,177.87Zm-55.73-56.82c6.89-3.72,21.86-10.31,34.36-5.43,5.65,2.2,9.19,5.33,10.5,9.3a14.37,14.37,0,0,1-.16,8.58c-2.28-3.73-7.33-8.43-18.48-10.33a150.07,150.07,0,0,0-21.85-1.94C114.46,121.18,112.9,121.14,111.56,121.05Zm66,52.58c-1-9.9,3.28-16.77,10.81-17.5.42,0,.83-.06,1.24-.06,6.89,0,11.83,5.8,12.74,15.15.51,5.23-.37,9.72-2.54,13a10.91,10.91,0,0,1-8.22,5C184.21,189.92,178.57,183.67,177.59,173.63Z" transform="translate(-104.63 -109.86)" fill="#5e4739"/><path d="M160.52,158.77a10.28,10.28,0,0,0-2.71-.37c-5.65,0-10.51,5-12.81,13.39-2.69,9.9,0,17.76,6.64,19.58s13-3.61,15.65-13.5h0c1.4-5.13,1.37-9.68-.09-13.15A9.88,9.88,0,0,0,160.52,158.77Zm-3,26.84a1.92,1.92,0,0,1-2.77-2.67c6.64-6.87,2.68-15.84,2.51-16.22a1.92,1.92,0,0,1,3.5-1.6C161,165.59,166,176.83,157.52,185.61Z" transform="translate(-104.63 -109.86)" fill="#4f5640"/><path d="M132.76,139.81a5.73,5.73,0,0,0-4.48-3.22,10.26,10.26,0,0,0-2-.17,21.09,21.09,0,0,0-8,1.91c-4.88,2.08-7.24,4.48-8.36,6.11a5.18,5.18,0,0,0,3.7,8.66c2,.32,5.32.27,10.19-1.81h0c3.83-1.63,6.65-3.71,8.17-6A5.72,5.72,0,0,0,132.76,139.81Z" transform="translate(-104.63 -109.86)" fill="#4f5640"/><path d="M156.26,133.5a14.37,14.37,0,0,0,.16-8.58c-1.31-4-4.85-7.1-10.5-9.3-12.5-4.88-27.47,1.71-34.36,5.43,1.34.09,2.9.13,4.37.18a150.07,150.07,0,0,1,21.85,1.94C148.93,125.07,154,129.77,156.26,133.5Z" transform="translate(-104.63 -109.86)" fill="#85986f"/><path d="M115.76,187a2.69,2.69,0,0,0,2.56-.45c2.53-1.8,20.74-22.48,27.24-38.83C136.06,154.86,115.78,171.79,115.76,187Z" transform="translate(-104.63 -109.86)" fill="#85986f"/><path d="M192.22,178.3a1.93,1.93,0,0,0,1.55,2.24,2.07,2.07,0,0,0,.35,0A1.93,1.93,0,0,0,196,179c2.57-14-5-17-5.34-17.16a1.93,1.93,0,0,0-1.37,3.6S194.19,167.62,192.22,178.3Z" transform="translate(-104.63 -109.86)" fill="#fff"/><path d="M158.21,164.18a1.92,1.92,0,0,0-1,2.54c.17.38,4.13,9.35-2.51,16.22a1.92,1.92,0,1,0,2.77,2.67c8.49-8.78,3.46-20,3.24-20.49A1.92,1.92,0,0,0,158.21,164.18Z" transform="translate(-104.63 -109.86)" fill="#fff"/></svg>