<svg xmlns="http://www.w3.org/2000/svg" viewBox="0 0 86.56 95.11"><title>Pepper</title><path d="M179.59,129.36a2,2,0,0,1-1.32.6l2.55,2.54.71-.71a2,2,0,0,1,.67-.42L179.85,129A2.78,2.78,0,0,1,179.59,129.36Z" transform="translate(-111.14 -102.89)" fill="none"/><path d="M156.69,150.42a2,2,0,0,1-1.39.62l3.7,3.7c0-.1,0-.21.08-.31a2,2,0,0,1,1.08-1.05l-3.25-3.25A2,2,0,0,1,156.69,150.42Z" transform="translate(-111.14 -102.89)" fill="none"/><path d="M148.64,158.48a2.11,2.11,0,0,1-.93.52l3.5,3.5a1.69,1.69,0,0,1,1.19-1.33l-3.34-3.33A1.87,1.87,0,0,1,148.64,158.48Z" transform="translate(-111.14 -102.89)" fill="none"/><path d="M155.24,151.05a2,2,0,0,1-1.38-.55L144,141.13l0,0s0,0,0,0A3.5,3.5,0,0,0,139,146h0l9.62,9.61a2,2,0,0,1,.43,2.19l3.34,3.33a2,2,0,0,1,2.16.42,3.89,3.89,0,0,0,4.95,0,3.89,3.89,0,0,0,0-5,2,2,0,0,1-.51-1.9l-3.7-3.7Z" transform="translate(-111.14 -102.89)" fill="#deb198"/><path d="M147.22,159.06a2,2,0,0,1-1.41-.58l-9.24-9.22c-2.45-.52-5.61-.12-6.64.9l-8.94,9,20.49,20.49,9-9c1.08-1.09,1.47-4.62.78-7.12a2,2,0,0,1,0-1l-3.5-3.5A2.05,2.05,0,0,1,147.22,159.06Z" transform="translate(-111.14 -102.89)" fill="#e5c7b4"/><path d="M178.14,130a2,2,0,0,1-1.38-.55l-9.33-9-1.21,1.21a2,2,0,0,1-1.28.58c-3.42.23-4.55.77-5,3.73-.15,1.09-.26,2.06-.35,2.93-.31,2.94-.53,5.07-2.13,6.66s-3.91,1.49-6.33,1.47a13.16,13.16,0,0,0-3.14.23,2.08,2.08,0,0,0-.65,1.57l9.23,8.76a2,2,0,0,1,.3,2.54l3.25,3.25a1.85,1.85,0,0,1,.82-.15c1.6.05,2-.27,2.36-.66a12.23,12.23,0,0,0,.23-3.14c0-2.39,0-4.86,1.47-6.33s3.71-1.82,6.64-2.13c.87-.09,1.85-.2,2.94-.35,3-.41,3.51-1.54,3.74-5a2,2,0,0,1,.58-1.28l1.88-1.88L178.27,130Z" transform="translate(-111.14 -102.89)" fill="#e5c7b4"/><path d="M178.69,107.17c-1.76-.39-5.06-.7-7.29,1.53a8.23,8.23,0,0,0-2.17,7.94l10.3,9.89a2,2,0,0,1,.32,2.49l2.35,2.35a1.94,1.94,0,0,1,1.26-.1,8.33,8.33,0,0,0,8.44-2.08c3.51-3.5,1.76-11-3.89-16.6A19.86,19.86,0,0,0,178.69,107.17Z" transform="translate(-111.14 -102.89)" fill="#deb198"/><path d="M190.84,109.76a23.55,23.55,0,0,0-11.29-6.49c-4.43-1-8.32,0-11,2.6A12.11,12.11,0,0,0,165.21,117l-1.29,1.28c-2.79.24-7.06,1-7.91,7.12-.15,1.14-.26,2.15-.36,3.06-.23,2.2-.38,3.66-1,4.23-.46.32-2.45.31-3.53.32-2.35,0-4.57,0-5.93,1.36a5.77,5.77,0,0,0-1.43,2.13,7.33,7.33,0,0,0-9.58,8.51c-2.73,0-5.53.72-7.12,2.31L116.74,157.7a2,2,0,0,0,0,2.83l23.33,23.32a2,2,0,0,0,1.41.59,2,2,0,0,0,1.42-.59l10.36-10.36c1.6-1.6,2.31-4.4,2.31-7.14a7.77,7.77,0,0,0,1.46.13,7.07,7.07,0,0,0,7.37-7.36,8.15,8.15,0,0,0-.34-2.33,5.8,5.8,0,0,0,2.16-1.44c1.35-1.35,1.35-3.57,1.35-5.92a11.54,11.54,0,0,1,.3-3.5c.59-.6,2-.75,4.23-1,.91-.1,1.93-.21,3.07-.37,6.08-.84,6.89-5.1,7.12-7.9l1.29-1.29A12.14,12.14,0,0,0,194.73,132C199.88,126.87,198.17,117.09,190.84,109.76Zm1.06,19.43a8.33,8.33,0,0,1-8.44,2.08,2.16,2.16,0,0,0-1.93.52l-.71.71-1.88,1.88a2,2,0,0,0-.58,1.28c-.23,3.42-.78,4.55-3.74,5-1.09.15-2.07.26-2.94.35-2.93.31-5.05.54-6.64,2.13s-1.47,3.94-1.47,6.33a12.23,12.23,0,0,1-.23,3.14c-.39.39-.76.71-2.36.66a1.85,1.85,0,0,0-.82.15,2,2,0,0,0-1.08,1.05c0,.1-.05.21-.08.31a2,2,0,0,0,.51,1.9,3.89,3.89,0,0,1,0,5,3.89,3.89,0,0,1-4.95,0,2,2,0,0,0-2.16-.42,1.69,1.69,0,0,0-1.19,1.33,2,2,0,0,0,0,1c.69,2.5.3,6-.78,7.12l-9,9L121,159.12l8.94-9c1-1,4.19-1.42,6.64-.9l9.24,9.22a2,2,0,0,0,1.41.58,2.05,2.05,0,0,0,.49-.06,2.11,2.11,0,0,0,.93-.52,1.87,1.87,0,0,0,.42-.64,2,2,0,0,0-.43-2.19L139,146h0a3.5,3.5,0,0,1,4.94-4.95s0,0,0,0l0,0,9.87,9.37a2,2,0,0,0,1.38.55h.06a2,2,0,0,0,1.31-3.45l-9.23-8.76a2.08,2.08,0,0,1,.65-1.57,13.16,13.16,0,0,1,3.14-.23c2.42,0,4.86,0,6.33-1.47s1.82-3.72,2.13-6.66c.09-.87.2-1.84.35-2.93.41-3,1.54-3.5,5-3.73a2,2,0,0,0,1.28-.58l1.21-1.21,9.33,9a2,2,0,0,0,1.38.55h.13a2,2,0,0,0,1.32-.6,2.78,2.78,0,0,0,.26-.34,2,2,0,0,0-.32-2.49l-10.3-9.89a8.23,8.23,0,0,1,2.17-7.94c2.23-2.23,5.53-1.92,7.29-1.53a19.86,19.86,0,0,1,9.32,5.42C193.66,118.24,195.41,125.69,191.9,129.19Z" transform="translate(-111.14 -102.89)" fill="#5e4739"/><path d="M116.12,170.41a2.23,2.23,0,1,0,2.23,2.23A2.23,2.23,0,0,0,116.12,170.41Z" transform="translate(-111.14 -102.89)" fill="#5e4739"/><path d="M125.28,178.61a2.23,2.23,0,1,0,2.23,2.22A2.23,2.23,0,0,0,125.28,178.61Z" transform="translate(-111.14 -102.89)" fill="#5e4739"/><path d="M113.37,181.41a2.23,2.23,0,1,0,2.23,2.22A2.23,2.23,0,0,0,113.37,181.41Z" transform="translate(-111.14 -102.89)" fill="#5e4739"/><path d="M121.16,193.55a2.23,2.23,0,1,0,2.23,2.22A2.23,2.23,0,0,0,121.16,193.55Z" transform="translate(-111.14 -102.89)" fill="#5e4739"/></svg>