<svg xmlns="http://www.w3.org/2000/svg" viewBox="0 0 90.15 73.84"><title>Pesto</title><path d="M193.63,155.72c-3.24-11.76-20.16-21.91-33.93-24-8.22-1.26-13.4-4-15.38-8.05a8.22,8.22,0,0,1-.73-2.33c-3.38,6.47-3,10.31-2.68,11.77.76,3.15,4,4,8.5,4.94l.67.14c1.34.27,2.93.5,4.61.74,8,1.13,18.88,2.68,20.07,12.38a2,2,0,0,1-1.74,2.23h-.25a2,2,0,0,1-2-1.75c-.76-6.17-7.68-7.64-16.66-8.91-1.75-.25-3.39-.48-4.85-.78l-.66-.14c-4.3-.86-10.18-2-11.6-7.92-.5-2.07-.75-6.09,1.83-12.06-6.1,3.28-13.21,8.85-11.61,16.41,2.52,11.84,16.36,18.5,37.08,17.8a2,2,0,0,1,.13,4c-21.07.71-35.82-5.95-40.25-18C120,145.78,111.59,154.1,112,162.87c.29,5.66,4.34,10.76,12,15.17,28.87,16.5,60.8-3.89,62.56-5C193,167.73,195.34,161.91,193.63,155.72ZM174.39,167.4c-5.06,6.95-16.87,10.17-26.93,10.17-5.21,0-9.94-.86-13.05-2.51-11-5.87-11.28-13.28-10.26-19.08a2,2,0,1,1,3.94.69c-1,5.76,0,10.5,8.2,14.86,8.38,4.46,28.9,1.71,34.87-6.49a2,2,0,0,1,3.23,2.36Z" transform="translate(-108.02 -114.6)" fill="#c1cc93"/><path d="M197.49,154.66C193.71,141,175.24,130,160.3,127.75c-8.47-1.29-11.4-3.86-12.36-5.8a5,5,0,0,1,.05-4.37,2,2,0,0,0-2.34-2.89c-1,.32-24.49,7.81-22.54,23.25-3.64,2.85-15.67,13.2-15.07,25.12.36,7.12,5.09,13.32,14.06,18.45a52.94,52.94,0,0,0,26.63,6.92c21.91,0,40-12,40.23-12.16l.15-.12C198.75,168.2,199,160.07,197.49,154.66ZM124.09,178c-7.71-4.41-11.76-9.51-12-15.17-.45-8.77,8-17.09,12.16-20.64,4.43,12,19.18,18.67,40.25,18a2,2,0,0,0-.13-4c-20.72.7-34.56-6-37.08-17.8-1.6-7.56,5.51-13.13,11.61-16.41-2.58,6-2.33,10-1.83,12.06,1.42,5.88,7.3,7.06,11.6,7.92l.66.14c1.46.3,3.1.53,4.85.78,9,1.27,15.9,2.74,16.66,8.91a2,2,0,0,0,2,1.75H173a2,2,0,0,0,1.74-2.23c-1.19-9.7-12.1-11.25-20.07-12.38-1.68-.24-3.27-.47-4.61-.74l-.67-.14c-4.5-.9-7.74-1.79-8.5-4.94-.36-1.46-.7-5.3,2.68-11.77a8.22,8.22,0,0,0,.73,2.33c2,4.08,7.16,6.79,15.38,8.05,13.77,2.1,30.69,12.25,33.93,24,1.71,6.19-.64,12-7,17.28C184.89,174.15,153,194.54,124.09,178Z" transform="translate(-108.02 -114.6)" fill="#5e4739"/><path d="M174,164.61a2,2,0,0,0-2.79.43c-6,8.2-26.49,11-34.87,6.49-8.2-4.36-9.21-9.1-8.2-14.86a2,2,0,1,0-3.94-.69c-1,5.8-.77,13.21,10.26,19.08,3.11,1.65,7.84,2.51,13.05,2.51,10.06,0,21.87-3.22,26.93-10.17A2,2,0,0,0,174,164.61Z" transform="translate(-108.02 -114.6)" fill="#5e4739"/></svg>