<svg xmlns="http://www.w3.org/2000/svg" viewBox="0 0 57.6 120.01"><title>Vinaigrette</title><path d="M144.32,105.06l.44,2.5h21.5l.44-2.5a2,2,0,0,1,2-1.65h1.41l1.22-9.27H139.71l1.21,9.27h1.43A2,2,0,0,1,144.32,105.06Z" transform="translate(-126.71 -90.14)" fill="#e24b4b"/><path d="M167.94,166.35h0a134.43,134.43,0,0,1-4.4-12.86h-16a129.1,129.1,0,0,1-4.4,12.86l-1,2.6a59.67,59.67,0,0,0-3.82,29.84h34.56a60,60,0,0,0-3.8-29.85Zm-.15,26.85a1.52,1.52,0,1,1,1.52-1.52A1.52,1.52,0,0,1,167.79,193.2Zm-.12-6.33-.2,0a1.53,1.53,0,0,1-1.51-1.33,38.18,38.18,0,0,0-2.66-9.83l-.85-2c-1.09-2.61-2.1-5.29-3-8a1.52,1.52,0,0,1,2.89-.95c.85,2.6,1.83,5.2,2.89,7.73l.85,2A41.25,41.25,0,0,1,169,185.16,1.53,1.53,0,0,1,167.67,186.87Z" transform="translate(-126.71 -90.14)" fill="#42210b"/><path d="M158.48,119.29h-5.93a131.73,131.73,0,0,1-5.06,34.19h16A131.43,131.43,0,0,1,158.48,119.29Z" transform="translate(-126.71 -90.14)" fill="#f3fdff"/><path d="M178.86,209.58a3.6,3.6,0,0,0,3-2.4A7.16,7.16,0,0,1,178.86,209.58Z" transform="translate(-126.71 -90.14)" fill="#f3fdff"/><path d="M129.18,207.17a3.65,3.65,0,0,0,1.11,1.61,3.59,3.59,0,0,0,1.87.8A7.14,7.14,0,0,1,129.18,207.17Z" transform="translate(-126.71 -90.14)" fill="#f3fdff"/><path d="M175.46,166.08l-1-2.61a123.69,123.69,0,0,1-8.93-46.34v-5a2,2,0,0,1,0-.34l0-.18H145.47l0,.18c0,.11,0,.23,0,.34v5a123.79,123.79,0,0,1-8.94,46.35l-1,2.6a67.38,67.38,0,0,0-3.75,37.33,3.23,3.23,0,0,0,3.09,2.74h41.21a3.22,3.22,0,0,0,3.08-2.74,67.49,67.49,0,0,0-3.74-37.33Zm1.3,33.25a3.94,3.94,0,0,1-3.85,3.45H138.12a3.93,3.93,0,0,1-3.85-3.44,63.74,63.74,0,0,1,4.07-31.89l1-2.59a127.53,127.53,0,0,0,9.17-45.65,3.93,3.93,0,0,1,3.88-3.92h6.17a3.94,3.94,0,0,1,3.88,3.92,127.38,127.38,0,0,0,9.16,45.64l1.05,2.58A64,64,0,0,1,176.76,199.33Z" transform="translate(-126.71 -90.14)" fill="#f3fdff"/><path d="M166.11,174.54l-.85-2c-1.06-2.53-2-5.13-2.89-7.73a1.52,1.52,0,0,0-2.89.95c.87,2.68,1.88,5.36,3,8l.85,2a38.18,38.18,0,0,1,2.66,9.83,1.53,1.53,0,0,0,1.51,1.33l.2,0a1.53,1.53,0,0,0,1.31-1.71A41.25,41.25,0,0,0,166.11,174.54Z" transform="translate(-126.71 -90.14)" fill="#fff"/><path d="M167.79,190.16a1.52,1.52,0,1,0,1.52,1.52A1.52,1.52,0,0,0,167.79,190.16Z" transform="translate(-126.71 -90.14)" fill="#fff"/><path d="M179.17,164.59l-1-2.6a119.79,119.79,0,0,1-8.64-44.86v-4.87l.86-4.85a4,4,0,0,0,3.7-3.44l1.22-9.3a4.13,4.13,0,0,0-.89-3.13,3.85,3.85,0,0,0-3-1.4H139.59a3.85,3.85,0,0,0-3,1.4,4,4,0,0,0-.89,3.11L137,104a3.94,3.94,0,0,0,3.72,3.44l.86,4.85v4.87A119.8,119.8,0,0,1,132.89,162l-1,2.6a71.45,71.45,0,0,0-4,39.54,7.46,7.46,0,0,0,1.29,3,7.14,7.14,0,0,0,3,2.41,6.87,6.87,0,0,0,2.75.57h41.21a6.82,6.82,0,0,0,2.74-.57,7.16,7.16,0,0,0,3-2.4,7.47,7.47,0,0,0,1.31-3.05A71.56,71.56,0,0,0,179.17,164.59Zm-38.25-61.18-1.21-9.27H171.3l-1.22,9.27h-1.41a2,2,0,0,0-2,1.65l-.44,2.5h-21.5l-.44-2.5a2,2,0,0,0-2-1.65Zm38.28,100a3.22,3.22,0,0,1-3.08,2.74H134.91a3.23,3.23,0,0,1-3.09-2.74,67.38,67.38,0,0,1,3.75-37.33l1-2.6a123.79,123.79,0,0,0,8.94-46.35v-5c0-.11,0-.23,0-.34l0-.18h20.08l0,.18a2,2,0,0,0,0,.34v5a123.69,123.69,0,0,0,8.93,46.34l1,2.61h0A67.49,67.49,0,0,1,179.2,203.41Z" transform="translate(-126.71 -90.14)" fill="#5e4739"/><path d="M171.64,164.85a127.38,127.38,0,0,1-9.16-45.64,3.94,3.94,0,0,0-3.88-3.92h-6.17a3.93,3.93,0,0,0-3.88,3.92,127.53,127.53,0,0,1-9.17,45.65l-1,2.59a63.74,63.74,0,0,0-4.07,31.89,3.93,3.93,0,0,0,3.85,3.44h34.79a3.94,3.94,0,0,0,3.85-3.45,64,64,0,0,0-4.07-31.9Zm1.15,33.93H138.23a59.67,59.67,0,0,1,3.82-29.84l1-2.6a129.1,129.1,0,0,0,4.4-12.86,131.73,131.73,0,0,0,5.06-34.19h5.93a131.43,131.43,0,0,0,5.05,34.19,134.43,134.43,0,0,0,4.4,12.86h0l1.05,2.58A60,60,0,0,1,172.79,198.78Z" transform="translate(-126.71 -90.14)" fill="#5e4739"/></svg>